<svg width="247" height="476" viewBox="0 0 247 476" fill="none" xmlns="http://www.w3.org/2000/svg">
<path d="M49.5 2C56.4036 2 62 7.60831 62 14.5265C62 21.4447 56.4036 27.053 49.5 27.053C42.5964 27.053 37 21.4447 37 14.5265C37 7.60831 42.5964 2 49.5 2Z" stroke="#6EC1B1" stroke-width="3"/>
<ellipse cx="82.5" cy="45.5924" rx="6.5" ry="6.51379" fill="#FD6F55"/>
<path d="M164.392 24.9391L164.393 24.9401L160.291 18.4054L166.812 14.295C167.349 13.9567 167.524 13.2393 167.188 12.7025L166.663 11.8663C166.326 11.3297 165.603 11.176 165.066 11.5143L158.545 15.6247L154.444 9.09009C154.107 8.55359 153.399 8.39032 152.862 8.7287L152.021 9.25864C151.485 9.59675 151.327 10.3058 151.664 10.8424L155.765 17.3771L149.221 21.5024C148.684 21.8405 148.533 22.5449 148.87 23.0817L149.395 23.9179C149.732 24.4547 150.43 24.6212 150.966 24.2831L157.511 20.1579L161.612 26.6914C161.949 27.2282 162.656 27.3933 163.192 27.0553L164.033 26.5254C164.57 26.187 164.729 25.4759 164.392 24.9391Z" fill="#1A78ED"/>
<path d="M196.114 53.0199L196.115 53.0209L192.013 46.4862L198.534 42.3758C199.071 42.0376 199.247 41.3201 198.91 40.7833L198.385 39.9471C198.048 39.4105 197.325 39.2568 196.789 39.5951L190.268 43.7055L186.166 37.1709C185.829 36.6344 185.121 36.4711 184.584 36.8095L183.744 37.3395C183.207 37.6776 183.049 38.3866 183.386 38.9232L187.488 45.4579L180.943 49.5832C180.407 49.9213 180.255 50.6258 180.592 51.1625L181.117 51.9987C181.454 52.5355 182.152 52.702 182.689 52.364L189.233 48.2387L193.334 54.7723C193.671 55.3091 194.378 55.4741 194.914 55.1361L195.755 54.6062C196.292 54.2678 196.451 53.5567 196.114 53.0199Z" fill="#FFC854"/>
<path d="M17 369.248H20V372.255H17V369.248Z" fill="#CCE2DE"/>
<path d="M17 259.015H20V262.021H17V259.015Z" fill="#CCE2DE"/>
<path d="M28 369.248H31V372.255H28V369.248Z" fill="#CCE2DE"/>
<path d="M28 259.015H31V262.021H28V259.015Z" fill="#CCE2DE"/>
<path d="M39 369.248H42V372.255H39V369.248Z" fill="#CCE2DE"/>
<path d="M39 259.015H42V262.021H39V259.015Z" fill="#CCE2DE"/>
<path d="M50 369.248H53V372.255H50V369.248Z" fill="#CCE2DE"/>
<path d="M50 259.015H53V262.021H50V259.015Z" fill="#CCE2DE"/>
<path d="M61 369.248H64V372.255H61V369.248Z" fill="#CCE2DE"/>
<path d="M61 259.015H64V262.021H61V259.015Z" fill="#CCE2DE"/>
<path d="M72 369.248H75V372.255H72V369.248Z" fill="#CCE2DE"/>
<path d="M72 259.015H75V262.021H72V259.015Z" fill="#CCE2DE"/>
<path d="M83 369.248H86V372.255H83V369.248Z" fill="#CCE2DE"/>
<path d="M83 259.015H86V262.021H83V259.015Z" fill="#CCE2DE"/>
<path d="M94 369.248H97V372.255H94V369.248Z" fill="#CCE2DE"/>
<path d="M94 259.015H97V262.021H94V259.015Z" fill="#CCE2DE"/>
<path d="M105 369.248H108V372.255H105V369.248Z" fill="#CCE2DE"/>
<path d="M105 259.015H108V262.021H105V259.015Z" fill="#CCE2DE"/>
<path d="M116 369.248H119V372.255H116V369.248Z" fill="#CCE2DE"/>
<path d="M116 259.015H119V262.021H116V259.015Z" fill="#CCE2DE"/>
<path d="M127 369.248H130V372.255H127V369.248Z" fill="#CCE2DE"/>
<path d="M127 259.015H130V262.021H127V259.015Z" fill="#CCE2DE"/>
<path d="M138 369.248H141V372.255H138V369.248Z" fill="#CCE2DE"/>
<path d="M138 259.015H141V262.021H138V259.015Z" fill="#CCE2DE"/>
<path d="M149 369.248H152V372.255H149V369.248Z" fill="#CCE2DE"/>
<path d="M149 259.015H152V262.021H149V259.015Z" fill="#CCE2DE"/>
<path d="M160 369.248H163V372.255H160V369.248Z" fill="#CCE2DE"/>
<path d="M160 259.015H163V262.021H160V259.015Z" fill="#CCE2DE"/>
<path d="M171 369.248H174V372.255H171V369.248Z" fill="#CCE2DE"/>
<path d="M171 259.015H174V262.021H171V259.015Z" fill="#CCE2DE"/>
<path d="M182 369.248H185V372.255H182V369.248Z" fill="#CCE2DE"/>
<path d="M182 259.015H185V262.021H182V259.015Z" fill="#CCE2DE"/>
<path d="M193 369.248H196V372.255H193V369.248Z" fill="#CCE2DE"/>
<path d="M193 259.015H196V262.021H193V259.015Z" fill="#CCE2DE"/>
<path d="M204 369.248H207V372.255H204V369.248Z" fill="#CCE2DE"/>
<path d="M204 259.015H207V262.021H204V259.015Z" fill="#CCE2DE"/>
<path d="M215 369.248H218V372.255H215V369.248Z" fill="#CCE2DE"/>
<path d="M215 259.015H218V262.021H215V259.015Z" fill="#CCE2DE"/>
<path d="M226 369.248H229V372.255H226V369.248Z" fill="#CCE2DE"/>
<path d="M226 259.015H229V262.021H226V259.015Z" fill="#CCE2DE"/>
<path d="M17 379.269H20V382.276H17V379.269Z" fill="#CCE2DE"/>
<path d="M17 269.036H20V272.042H17V269.036Z" fill="#CCE2DE"/>
<path d="M28 379.269H31V382.276H28V379.269Z" fill="#CCE2DE"/>
<path d="M28 269.036H31V272.042H28V269.036Z" fill="#CCE2DE"/>
<path d="M39 379.269H42V382.276H39V379.269Z" fill="#CCE2DE"/>
<path d="M39 269.036H42V272.042H39V269.036Z" fill="#CCE2DE"/>
<path d="M50 379.269H53V382.276H50V379.269Z" fill="#CCE2DE"/>
<path d="M50 269.036H53V272.042H50V269.036Z" fill="#CCE2DE"/>
<path d="M61 379.269H64V382.276H61V379.269Z" fill="#CCE2DE"/>
<path d="M61 269.036H64V272.042H61V269.036Z" fill="#CCE2DE"/>
<path d="M72 379.269H75V382.276H72V379.269Z" fill="#CCE2DE"/>
<path d="M72 269.036H75V272.042H72V269.036Z" fill="#CCE2DE"/>
<path d="M83 379.269H86V382.276H83V379.269Z" fill="#CCE2DE"/>
<path d="M83 269.036H86V272.042H83V269.036Z" fill="#CCE2DE"/>
<path d="M94 379.269H97V382.276H94V379.269Z" fill="#CCE2DE"/>
<path d="M94 269.036H97V272.042H94V269.036Z" fill="#CCE2DE"/>
<path d="M105 379.269H108V382.276H105V379.269Z" fill="#CCE2DE"/>
<path d="M105 269.036H108V272.042H105V269.036Z" fill="#CCE2DE"/>
<path d="M116 379.269H119V382.276H116V379.269Z" fill="#CCE2DE"/>
<path d="M116 269.036H119V272.042H116V269.036Z" fill="#CCE2DE"/>
<path d="M127 379.269H130V382.276H127V379.269Z" fill="#CCE2DE"/>
<path d="M127 269.036H130V272.042H127V269.036Z" fill="#CCE2DE"/>
<path d="M138 379.269H141V382.276H138V379.269Z" fill="#CCE2DE"/>
<path d="M138 269.036H141V272.042H138V269.036Z" fill="#CCE2DE"/>
<path d="M149 379.269H152V382.276H149V379.269Z" fill="#CCE2DE"/>
<path d="M149 269.036H152V272.042H149V269.036Z" fill="#CCE2DE"/>
<path d="M160 379.269H163V382.276H160V379.269Z" fill="#CCE2DE"/>
<path d="M160 269.036H163V272.042H160V269.036Z" fill="#CCE2DE"/>
<path d="M171 379.269H174V382.276H171V379.269Z" fill="#CCE2DE"/>
<path d="M171 269.036H174V272.042H171V269.036Z" fill="#CCE2DE"/>
<path d="M182 379.269H185V382.276H182V379.269Z" fill="#CCE2DE"/>
<path d="M182 269.036H185V272.042H182V269.036Z" fill="#CCE2DE"/>
<path d="M193 379.269H196V382.276H193V379.269Z" fill="#CCE2DE"/>
<path d="M193 269.036H196V272.042H193V269.036Z" fill="#CCE2DE"/>
<path d="M204 379.269H207V382.276H204V379.269Z" fill="#CCE2DE"/>
<path d="M204 269.036H207V272.042H204V269.036Z" fill="#CCE2DE"/>
<path d="M215 379.269H218V382.276H215V379.269Z" fill="#CCE2DE"/>
<path d="M215 269.036H218V272.042H215V269.036Z" fill="#CCE2DE"/>
<path d="M226 379.269H229V382.276H226V379.269Z" fill="#CCE2DE"/>
<path d="M226 269.036H229V272.042H226V269.036Z" fill="#CCE2DE"/>
<path d="M17 389.291H20V392.297H17V389.291Z" fill="#CCE2DE"/>
<path d="M17 279.057H20V282.064H17V279.057Z" fill="#CCE2DE"/>
<path d="M28 389.291H31V392.297H28V389.291Z" fill="#CCE2DE"/>
<path d="M28 279.057H31V282.064H28V279.057Z" fill="#CCE2DE"/>
<path d="M39 389.291H42V392.297H39V389.291Z" fill="#CCE2DE"/>
<path d="M39 279.057H42V282.064H39V279.057Z" fill="#CCE2DE"/>
<path d="M50 389.291H53V392.297H50V389.291Z" fill="#CCE2DE"/>
<path d="M50 279.057H53V282.064H50V279.057Z" fill="#CCE2DE"/>
<path d="M61 389.291H64V392.297H61V389.291Z" fill="#CCE2DE"/>
<path d="M61 279.057H64V282.064H61V279.057Z" fill="#CCE2DE"/>
<path d="M72 389.291H75V392.297H72V389.291Z" fill="#CCE2DE"/>
<path d="M72 279.057H75V282.064H72V279.057Z" fill="#CCE2DE"/>
<path d="M83 389.291H86V392.297H83V389.291Z" fill="#CCE2DE"/>
<path d="M83 279.057H86V282.064H83V279.057Z" fill="#CCE2DE"/>
<path d="M94 389.291H97V392.297H94V389.291Z" fill="#CCE2DE"/>
<path d="M94 279.057H97V282.064H94V279.057Z" fill="#CCE2DE"/>
<path d="M105 389.291H108V392.297H105V389.291Z" fill="#CCE2DE"/>
<path d="M105 279.057H108V282.064H105V279.057Z" fill="#CCE2DE"/>
<path d="M116 389.291H119V392.297H116V389.291Z" fill="#CCE2DE"/>
<path d="M116 279.057H119V282.064H116V279.057Z" fill="#CCE2DE"/>
<path d="M127 389.291H130V392.297H127V389.291Z" fill="#CCE2DE"/>
<path d="M127 279.057H130V282.064H127V279.057Z" fill="#CCE2DE"/>
<path d="M138 389.291H141V392.297H138V389.291Z" fill="#CCE2DE"/>
<path d="M138 279.057H141V282.064H138V279.057Z" fill="#CCE2DE"/>
<path d="M149 389.291H152V392.297H149V389.291Z" fill="#CCE2DE"/>
<path d="M149 279.057H152V282.064H149V279.057Z" fill="#CCE2DE"/>
<path d="M160 389.291H163V392.297H160V389.291Z" fill="#CCE2DE"/>
<path d="M160 279.057H163V282.064H160V279.057Z" fill="#CCE2DE"/>
<path d="M171 389.291H174V392.297H171V389.291Z" fill="#CCE2DE"/>
<path d="M171 279.057H174V282.064H171V279.057Z" fill="#CCE2DE"/>
<path d="M182 389.291H185V392.297H182V389.291Z" fill="#CCE2DE"/>
<path d="M182 279.057H185V282.064H182V279.057Z" fill="#CCE2DE"/>
<path d="M193 389.291H196V392.297H193V389.291Z" fill="#CCE2DE"/>
<path d="M193 279.057H196V282.064H193V279.057Z" fill="#CCE2DE"/>
<path d="M204 389.291H207V392.297H204V389.291Z" fill="#CCE2DE"/>
<path d="M204 279.057H207V282.064H204V279.057Z" fill="#CCE2DE"/>
<path d="M215 389.291H218V392.297H215V389.291Z" fill="#CCE2DE"/>
<path d="M215 279.057H218V282.064H215V279.057Z" fill="#CCE2DE"/>
<path d="M226 389.291H229V392.297H226V389.291Z" fill="#CCE2DE"/>
<path d="M226 279.057H229V282.064H226V279.057Z" fill="#CCE2DE"/>
<path d="M17 399.312H20V402.318H17V399.312Z" fill="#CCE2DE"/>
<path d="M17 289.079H20V292.085H17V289.079Z" fill="#CCE2DE"/>
<path d="M28 399.312H31V402.318H28V399.312Z" fill="#CCE2DE"/>
<path d="M28 289.079H31V292.085H28V289.079Z" fill="#CCE2DE"/>
<path d="M39 399.312H42V402.318H39V399.312Z" fill="#CCE2DE"/>
<path d="M39 289.079H42V292.085H39V289.079Z" fill="#CCE2DE"/>
<path d="M50 399.312H53V402.318H50V399.312Z" fill="#CCE2DE"/>
<path d="M50 289.079H53V292.085H50V289.079Z" fill="#CCE2DE"/>
<path d="M61 399.312H64V402.318H61V399.312Z" fill="#CCE2DE"/>
<path d="M61 289.079H64V292.085H61V289.079Z" fill="#CCE2DE"/>
<path d="M72 399.312H75V402.318H72V399.312Z" fill="#CCE2DE"/>
<path d="M72 289.079H75V292.085H72V289.079Z" fill="#CCE2DE"/>
<path d="M83 399.312H86V402.318H83V399.312Z" fill="#CCE2DE"/>
<path d="M83 289.079H86V292.085H83V289.079Z" fill="#CCE2DE"/>
<path d="M94 399.312H97V402.318H94V399.312Z" fill="#CCE2DE"/>
<path d="M94 289.079H97V292.085H94V289.079Z" fill="#CCE2DE"/>
<path d="M105 399.312H108V402.318H105V399.312Z" fill="#CCE2DE"/>
<path d="M105 289.079H108V292.085H105V289.079Z" fill="#CCE2DE"/>
<path d="M116 399.312H119V402.318H116V399.312Z" fill="#CCE2DE"/>
<path d="M116 289.079H119V292.085H116V289.079Z" fill="#CCE2DE"/>
<path d="M127 399.312H130V402.318H127V399.312Z" fill="#CCE2DE"/>
<path d="M127 289.079H130V292.085H127V289.079Z" fill="#CCE2DE"/>
<path d="M138 399.312H141V402.318H138V399.312Z" fill="#CCE2DE"/>
<path d="M138 289.079H141V292.085H138V289.079Z" fill="#CCE2DE"/>
<path d="M149 399.312H152V402.318H149V399.312Z" fill="#CCE2DE"/>
<path d="M149 289.079H152V292.085H149V289.079Z" fill="#CCE2DE"/>
<path d="M160 399.312H163V402.318H160V399.312Z" fill="#CCE2DE"/>
<path d="M160 289.079H163V292.085H160V289.079Z" fill="#CCE2DE"/>
<path d="M171 399.312H174V402.318H171V399.312Z" fill="#CCE2DE"/>
<path d="M171 289.079H174V292.085H171V289.079Z" fill="#CCE2DE"/>
<path d="M182 399.312H185V402.318H182V399.312Z" fill="#CCE2DE"/>
<path d="M182 289.079H185V292.085H182V289.079Z" fill="#CCE2DE"/>
<path d="M193 399.312H196V402.318H193V399.312Z" fill="#CCE2DE"/>
<path d="M193 289.079H196V292.085H193V289.079Z" fill="#CCE2DE"/>
<path d="M204 399.312H207V402.318H204V399.312Z" fill="#CCE2DE"/>
<path d="M204 289.079H207V292.085H204V289.079Z" fill="#CCE2DE"/>
<path d="M215 399.312H218V402.318H215V399.312Z" fill="#CCE2DE"/>
<path d="M215 289.079H218V292.085H215V289.079Z" fill="#CCE2DE"/>
<path d="M226 399.312H229V402.318H226V399.312Z" fill="#CCE2DE"/>
<path d="M226 289.079H229V292.085H226V289.079Z" fill="#CCE2DE"/>
<path d="M17 409.333H20V412.339H17V409.333Z" fill="#CCE2DE"/>
<path d="M17 299.1H20V302.106H17V299.1Z" fill="#CCE2DE"/>
<path d="M28 409.333H31V412.339H28V409.333Z" fill="#CCE2DE"/>
<path d="M28 299.1H31V302.106H28V299.1Z" fill="#CCE2DE"/>
<path d="M39 409.333H42V412.339H39V409.333Z" fill="#CCE2DE"/>
<path d="M39 299.1H42V302.106H39V299.1Z" fill="#CCE2DE"/>
<path d="M50 409.333H53V412.339H50V409.333Z" fill="#CCE2DE"/>
<path d="M50 299.1H53V302.106H50V299.1Z" fill="#CCE2DE"/>
<path d="M61 409.333H64V412.339H61V409.333Z" fill="#CCE2DE"/>
<path d="M61 299.1H64V302.106H61V299.1Z" fill="#CCE2DE"/>
<path d="M72 409.333H75V412.339H72V409.333Z" fill="#CCE2DE"/>
<path d="M72 299.1H75V302.106H72V299.1Z" fill="#CCE2DE"/>
<path d="M83 409.333H86V412.339H83V409.333Z" fill="#CCE2DE"/>
<path d="M83 299.1H86V302.106H83V299.1Z" fill="#CCE2DE"/>
<path d="M94 409.333H97V412.339H94V409.333Z" fill="#CCE2DE"/>
<path d="M94 299.1H97V302.106H94V299.1Z" fill="#CCE2DE"/>
<path d="M105 409.333H108V412.339H105V409.333Z" fill="#CCE2DE"/>
<path d="M105 299.1H108V302.106H105V299.1Z" fill="#CCE2DE"/>
<path d="M116 409.333H119V412.339H116V409.333Z" fill="#CCE2DE"/>
<path d="M116 299.1H119V302.106H116V299.1Z" fill="#CCE2DE"/>
<path d="M127 409.333H130V412.339H127V409.333Z" fill="#CCE2DE"/>
<path d="M127 299.1H130V302.106H127V299.1Z" fill="#CCE2DE"/>
<path d="M138 409.333H141V412.339H138V409.333Z" fill="#CCE2DE"/>
<path d="M138 299.1H141V302.106H138V299.1Z" fill="#CCE2DE"/>
<path d="M149 409.333H152V412.339H149V409.333Z" fill="#CCE2DE"/>
<path d="M149 299.1H152V302.106H149V299.1Z" fill="#CCE2DE"/>
<path d="M160 409.333H163V412.339H160V409.333Z" fill="#CCE2DE"/>
<path d="M160 299.1H163V302.106H160V299.1Z" fill="#CCE2DE"/>
<path d="M171 409.333H174V412.339H171V409.333Z" fill="#CCE2DE"/>
<path d="M171 299.1H174V302.106H171V299.1Z" fill="#CCE2DE"/>
<path d="M182 409.333H185V412.339H182V409.333Z" fill="#CCE2DE"/>
<path d="M182 299.1H185V302.106H182V299.1Z" fill="#CCE2DE"/>
<path d="M193 409.333H196V412.339H193V409.333Z" fill="#CCE2DE"/>
<path d="M193 299.1H196V302.106H193V299.1Z" fill="#CCE2DE"/>
<path d="M204 409.333H207V412.339H204V409.333Z" fill="#CCE2DE"/>
<path d="M204 299.1H207V302.106H204V299.1Z" fill="#CCE2DE"/>
<path d="M215 409.333H218V412.339H215V409.333Z" fill="#CCE2DE"/>
<path d="M215 299.1H218V302.106H215V299.1Z" fill="#CCE2DE"/>
<path d="M226 409.333H229V412.339H226V409.333Z" fill="#CCE2DE"/>
<path d="M226 299.1H229V302.106H226V299.1Z" fill="#CCE2DE"/>
<path d="M17 419.354H20V422.361H17V419.354Z" fill="#CCE2DE"/>
<path d="M17 309.121H20V312.127H17V309.121Z" fill="#CCE2DE"/>
<path d="M28 419.354H31V422.361H28V419.354Z" fill="#CCE2DE"/>
<path d="M28 309.121H31V312.127H28V309.121Z" fill="#CCE2DE"/>
<path d="M39 419.354H42V422.361H39V419.354Z" fill="#CCE2DE"/>
<path d="M39 309.121H42V312.127H39V309.121Z" fill="#CCE2DE"/>
<path d="M50 419.354H53V422.361H50V419.354Z" fill="#CCE2DE"/>
<path d="M50 309.121H53V312.127H50V309.121Z" fill="#CCE2DE"/>
<path d="M61 419.354H64V422.361H61V419.354Z" fill="#CCE2DE"/>
<path d="M61 309.121H64V312.127H61V309.121Z" fill="#CCE2DE"/>
<path d="M72 419.354H75V422.361H72V419.354Z" fill="#CCE2DE"/>
<path d="M72 309.121H75V312.127H72V309.121Z" fill="#CCE2DE"/>
<path d="M83 419.354H86V422.361H83V419.354Z" fill="#CCE2DE"/>
<path d="M83 309.121H86V312.127H83V309.121Z" fill="#CCE2DE"/>
<path d="M94 419.354H97V422.361H94V419.354Z" fill="#CCE2DE"/>
<path d="M94 309.121H97V312.127H94V309.121Z" fill="#CCE2DE"/>
<path d="M105 419.354H108V422.361H105V419.354Z" fill="#CCE2DE"/>
<path d="M105 309.121H108V312.127H105V309.121Z" fill="#CCE2DE"/>
<path d="M116 419.354H119V422.361H116V419.354Z" fill="#CCE2DE"/>
<path d="M116 309.121H119V312.127H116V309.121Z" fill="#CCE2DE"/>
<path d="M127 419.354H130V422.361H127V419.354Z" fill="#CCE2DE"/>
<path d="M127 309.121H130V312.127H127V309.121Z" fill="#CCE2DE"/>
<path d="M138 419.354H141V422.361H138V419.354Z" fill="#CCE2DE"/>
<path d="M138 309.121H141V312.127H138V309.121Z" fill="#CCE2DE"/>
<path d="M149 419.354H152V422.361H149V419.354Z" fill="#CCE2DE"/>
<path d="M149 309.121H152V312.127H149V309.121Z" fill="#CCE2DE"/>
<path d="M160 419.354H163V422.361H160V419.354Z" fill="#CCE2DE"/>
<path d="M160 309.121H163V312.127H160V309.121Z" fill="#CCE2DE"/>
<path d="M171 419.354H174V422.361H171V419.354Z" fill="#CCE2DE"/>
<path d="M171 309.121H174V312.127H171V309.121Z" fill="#CCE2DE"/>
<path d="M182 419.354H185V422.361H182V419.354Z" fill="#CCE2DE"/>
<path d="M182 309.121H185V312.127H182V309.121Z" fill="#CCE2DE"/>
<path d="M193 419.354H196V422.361H193V419.354Z" fill="#CCE2DE"/>
<path d="M193 309.121H196V312.127H193V309.121Z" fill="#CCE2DE"/>
<path d="M204 419.354H207V422.361H204V419.354Z" fill="#CCE2DE"/>
<path d="M204 309.121H207V312.127H204V309.121Z" fill="#CCE2DE"/>
<path d="M215 419.354H218V422.361H215V419.354Z" fill="#CCE2DE"/>
<path d="M215 309.121H218V312.127H215V309.121Z" fill="#CCE2DE"/>
<path d="M226 419.354H229V422.361H226V419.354Z" fill="#CCE2DE"/>
<path d="M226 309.121H229V312.127H226V309.121Z" fill="#CCE2DE"/>
<path d="M17 429.375H20V432.382H17V429.375Z" fill="#CCE2DE"/>
<path d="M17 319.142H20V322.149H17V319.142Z" fill="#CCE2DE"/>
<path d="M28 429.375H31V432.382H28V429.375Z" fill="#CCE2DE"/>
<path d="M28 319.142H31V322.149H28V319.142Z" fill="#CCE2DE"/>
<path d="M39 429.375H42V432.382H39V429.375Z" fill="#CCE2DE"/>
<path d="M39 319.142H42V322.149H39V319.142Z" fill="#CCE2DE"/>
<path d="M50 429.375H53V432.382H50V429.375Z" fill="#CCE2DE"/>
<path d="M50 319.142H53V322.149H50V319.142Z" fill="#CCE2DE"/>
<path d="M61 429.375H64V432.382H61V429.375Z" fill="#CCE2DE"/>
<path d="M61 319.142H64V322.149H61V319.142Z" fill="#CCE2DE"/>
<path d="M72 429.375H75V432.382H72V429.375Z" fill="#CCE2DE"/>
<path d="M72 319.142H75V322.149H72V319.142Z" fill="#CCE2DE"/>
<path d="M83 429.375H86V432.382H83V429.375Z" fill="#CCE2DE"/>
<path d="M83 319.142H86V322.149H83V319.142Z" fill="#CCE2DE"/>
<path d="M94 429.375H97V432.382H94V429.375Z" fill="#CCE2DE"/>
<path d="M94 319.142H97V322.149H94V319.142Z" fill="#CCE2DE"/>
<path d="M105 429.375H108V432.382H105V429.375Z" fill="#CCE2DE"/>
<path d="M105 319.142H108V322.149H105V319.142Z" fill="#CCE2DE"/>
<path d="M116 429.375H119V432.382H116V429.375Z" fill="#CCE2DE"/>
<path d="M116 319.142H119V322.149H116V319.142Z" fill="#CCE2DE"/>
<path d="M127 429.375H130V432.382H127V429.375Z" fill="#CCE2DE"/>
<path d="M127 319.142H130V322.149H127V319.142Z" fill="#CCE2DE"/>
<path d="M138 429.375H141V432.382H138V429.375Z" fill="#CCE2DE"/>
<path d="M138 319.142H141V322.149H138V319.142Z" fill="#CCE2DE"/>
<path d="M149 429.375H152V432.382H149V429.375Z" fill="#CCE2DE"/>
<path d="M149 319.142H152V322.149H149V319.142Z" fill="#CCE2DE"/>
<path d="M160 429.375H163V432.382H160V429.375Z" fill="#CCE2DE"/>
<path d="M160 319.142H163V322.149H160V319.142Z" fill="#CCE2DE"/>
<path d="M171 429.375H174V432.382H171V429.375Z" fill="#CCE2DE"/>
<path d="M171 319.142H174V322.149H171V319.142Z" fill="#CCE2DE"/>
<path d="M182 429.375H185V432.382H182V429.375Z" fill="#CCE2DE"/>
<path d="M182 319.142H185V322.149H182V319.142Z" fill="#CCE2DE"/>
<path d="M193 429.375H196V432.382H193V429.375Z" fill="#CCE2DE"/>
<path d="M193 319.142H196V322.149H193V319.142Z" fill="#CCE2DE"/>
<path d="M204 429.375H207V432.382H204V429.375Z" fill="#CCE2DE"/>
<path d="M204 319.142H207V322.149H204V319.142Z" fill="#CCE2DE"/>
<path d="M215 429.375H218V432.382H215V429.375Z" fill="#CCE2DE"/>
<path d="M215 319.142H218V322.149H215V319.142Z" fill="#CCE2DE"/>
<path d="M226 429.375H229V432.382H226V429.375Z" fill="#CCE2DE"/>
<path d="M226 319.142H229V322.149H226V319.142Z" fill="#CCE2DE"/>
<path d="M17 439.397H20V442.403H17V439.397Z" fill="#CCE2DE"/>
<path d="M17 329.163H20V332.17H17V329.163Z" fill="#CCE2DE"/>
<path d="M28 439.397H31V442.403H28V439.397Z" fill="#CCE2DE"/>
<path d="M28 329.163H31V332.17H28V329.163Z" fill="#CCE2DE"/>
<path d="M39 439.397H42V442.403H39V439.397Z" fill="#CCE2DE"/>
<path d="M39 329.163H42V332.17H39V329.163Z" fill="#CCE2DE"/>
<path d="M50 439.397H53V442.403H50V439.397Z" fill="#CCE2DE"/>
<path d="M50 329.163H53V332.17H50V329.163Z" fill="#CCE2DE"/>
<path d="M61 439.397H64V442.403H61V439.397Z" fill="#CCE2DE"/>
<path d="M61 329.163H64V332.17H61V329.163Z" fill="#CCE2DE"/>
<path d="M72 439.397H75V442.403H72V439.397Z" fill="#CCE2DE"/>
<path d="M72 329.163H75V332.17H72V329.163Z" fill="#CCE2DE"/>
<path d="M83 439.397H86V442.403H83V439.397Z" fill="#CCE2DE"/>
<path d="M83 329.163H86V332.17H83V329.163Z" fill="#CCE2DE"/>
<path d="M94 439.397H97V442.403H94V439.397Z" fill="#CCE2DE"/>
<path d="M94 329.163H97V332.17H94V329.163Z" fill="#CCE2DE"/>
<path d="M105 439.397H108V442.403H105V439.397Z" fill="#CCE2DE"/>
<path d="M105 329.163H108V332.17H105V329.163Z" fill="#CCE2DE"/>
<path d="M116 439.397H119V442.403H116V439.397Z" fill="#CCE2DE"/>
<path d="M116 329.163H119V332.17H116V329.163Z" fill="#CCE2DE"/>
<path d="M127 439.397H130V442.403H127V439.397Z" fill="#CCE2DE"/>
<path d="M127 329.163H130V332.17H127V329.163Z" fill="#CCE2DE"/>
<path d="M138 439.397H141V442.403H138V439.397Z" fill="#CCE2DE"/>
<path d="M138 329.163H141V332.17H138V329.163Z" fill="#CCE2DE"/>
<path d="M149 439.397H152V442.403H149V439.397Z" fill="#CCE2DE"/>
<path d="M149 329.163H152V332.17H149V329.163Z" fill="#CCE2DE"/>
<path d="M160 439.397H163V442.403H160V439.397Z" fill="#CCE2DE"/>
<path d="M160 329.163H163V332.17H160V329.163Z" fill="#CCE2DE"/>
<path d="M171 439.397H174V442.403H171V439.397Z" fill="#CCE2DE"/>
<path d="M171 329.163H174V332.17H171V329.163Z" fill="#CCE2DE"/>
<path d="M182 439.397H185V442.403H182V439.397Z" fill="#CCE2DE"/>
<path d="M182 329.163H185V332.17H182V329.163Z" fill="#CCE2DE"/>
<path d="M193 439.397H196V442.403H193V439.397Z" fill="#CCE2DE"/>
<path d="M193 329.163H196V332.17H193V329.163Z" fill="#CCE2DE"/>
<path d="M204 439.397H207V442.403H204V439.397Z" fill="#CCE2DE"/>
<path d="M204 329.163H207V332.17H204V329.163Z" fill="#CCE2DE"/>
<path d="M215 439.397H218V442.403H215V439.397Z" fill="#CCE2DE"/>
<path d="M215 329.163H218V332.17H215V329.163Z" fill="#CCE2DE"/>
<path d="M226 439.397H229V442.403H226V439.397Z" fill="#CCE2DE"/>
<path d="M226 329.163H229V332.17H226V329.163Z" fill="#CCE2DE"/>
<path d="M17 449.418H20V452.424H17V449.418Z" fill="#CCE2DE"/>
<path d="M17 339.185H20V342.191H17V339.185Z" fill="#CCE2DE"/>
<path d="M28 449.418H31V452.424H28V449.418Z" fill="#CCE2DE"/>
<path d="M28 339.185H31V342.191H28V339.185Z" fill="#CCE2DE"/>
<path d="M39 449.418H42V452.424H39V449.418Z" fill="#CCE2DE"/>
<path d="M39 339.185H42V342.191H39V339.185Z" fill="#CCE2DE"/>
<path d="M50 449.418H53V452.424H50V449.418Z" fill="#CCE2DE"/>
<path d="M50 339.185H53V342.191H50V339.185Z" fill="#CCE2DE"/>
<path d="M61 449.418H64V452.424H61V449.418Z" fill="#CCE2DE"/>
<path d="M61 339.185H64V342.191H61V339.185Z" fill="#CCE2DE"/>
<path d="M72 449.418H75V452.424H72V449.418Z" fill="#CCE2DE"/>
<path d="M72 339.185H75V342.191H72V339.185Z" fill="#CCE2DE"/>
<path d="M83 449.418H86V452.424H83V449.418Z" fill="#CCE2DE"/>
<path d="M83 339.185H86V342.191H83V339.185Z" fill="#CCE2DE"/>
<path d="M94 449.418H97V452.424H94V449.418Z" fill="#CCE2DE"/>
<path d="M94 339.185H97V342.191H94V339.185Z" fill="#CCE2DE"/>
<path d="M105 449.418H108V452.424H105V449.418Z" fill="#CCE2DE"/>
<path d="M105 339.185H108V342.191H105V339.185Z" fill="#CCE2DE"/>
<path d="M116 449.418H119V452.424H116V449.418Z" fill="#CCE2DE"/>
<path d="M116 339.185H119V342.191H116V339.185Z" fill="#CCE2DE"/>
<path d="M127 449.418H130V452.424H127V449.418Z" fill="#CCE2DE"/>
<path d="M127 339.185H130V342.191H127V339.185Z" fill="#CCE2DE"/>
<path d="M138 449.418H141V452.424H138V449.418Z" fill="#CCE2DE"/>
<path d="M138 339.185H141V342.191H138V339.185Z" fill="#CCE2DE"/>
<path d="M149 449.418H152V452.424H149V449.418Z" fill="#CCE2DE"/>
<path d="M149 339.185H152V342.191H149V339.185Z" fill="#CCE2DE"/>
<path d="M160 449.418H163V452.424H160V449.418Z" fill="#CCE2DE"/>
<path d="M160 339.185H163V342.191H160V339.185Z" fill="#CCE2DE"/>
<path d="M171 449.418H174V452.424H171V449.418Z" fill="#CCE2DE"/>
<path d="M171 339.185H174V342.191H171V339.185Z" fill="#CCE2DE"/>
<path d="M182 449.418H185V452.424H182V449.418Z" fill="#CCE2DE"/>
<path d="M182 339.185H185V342.191H182V339.185Z" fill="#CCE2DE"/>
<path d="M193 449.418H196V452.424H193V449.418Z" fill="#CCE2DE"/>
<path d="M193 339.185H196V342.191H193V339.185Z" fill="#CCE2DE"/>
<path d="M204 449.418H207V452.424H204V449.418Z" fill="#CCE2DE"/>
<path d="M204 339.185H207V342.191H204V339.185Z" fill="#CCE2DE"/>
<path d="M215 449.418H218V452.424H215V449.418Z" fill="#CCE2DE"/>
<path d="M215 339.185H218V342.191H215V339.185Z" fill="#CCE2DE"/>
<path d="M226 449.418H229V452.424H226V449.418Z" fill="#CCE2DE"/>
<path d="M226 339.185H229V342.191H226V339.185Z" fill="#CCE2DE"/>
<path d="M17 459.439H20V462.445H17V459.439Z" fill="#CCE2DE"/>
<path d="M17 349.206H20V352.212H17V349.206Z" fill="#CCE2DE"/>
<path d="M28 459.439H31V462.445H28V459.439Z" fill="#CCE2DE"/>
<path d="M28 349.206H31V352.212H28V349.206Z" fill="#CCE2DE"/>
<path d="M39 459.439H42V462.445H39V459.439Z" fill="#CCE2DE"/>
<path d="M39 349.206H42V352.212H39V349.206Z" fill="#CCE2DE"/>
<path d="M50 459.439H53V462.445H50V459.439Z" fill="#CCE2DE"/>
<path d="M50 349.206H53V352.212H50V349.206Z" fill="#CCE2DE"/>
<path d="M61 459.439H64V462.445H61V459.439Z" fill="#CCE2DE"/>
<path d="M61 349.206H64V352.212H61V349.206Z" fill="#CCE2DE"/>
<path d="M72 459.439H75V462.445H72V459.439Z" fill="#CCE2DE"/>
<path d="M72 349.206H75V352.212H72V349.206Z" fill="#CCE2DE"/>
<path d="M83 459.439H86V462.445H83V459.439Z" fill="#CCE2DE"/>
<path d="M83 349.206H86V352.212H83V349.206Z" fill="#CCE2DE"/>
<path d="M94 459.439H97V462.445H94V459.439Z" fill="#CCE2DE"/>
<path d="M94 349.206H97V352.212H94V349.206Z" fill="#CCE2DE"/>
<path d="M105 459.439H108V462.445H105V459.439Z" fill="#CCE2DE"/>
<path d="M105 349.206H108V352.212H105V349.206Z" fill="#CCE2DE"/>
<path d="M116 459.439H119V462.445H116V459.439Z" fill="#CCE2DE"/>
<path d="M116 349.206H119V352.212H116V349.206Z" fill="#CCE2DE"/>
<path d="M127 459.439H130V462.445H127V459.439Z" fill="#CCE2DE"/>
<path d="M127 349.206H130V352.212H127V349.206Z" fill="#CCE2DE"/>
<path d="M138 459.439H141V462.445H138V459.439Z" fill="#CCE2DE"/>
<path d="M138 349.206H141V352.212H138V349.206Z" fill="#CCE2DE"/>
<path d="M149 459.439H152V462.445H149V459.439Z" fill="#CCE2DE"/>
<path d="M149 349.206H152V352.212H149V349.206Z" fill="#CCE2DE"/>
<path d="M160 459.439H163V462.445H160V459.439Z" fill="#CCE2DE"/>
<path d="M160 349.206H163V352.212H160V349.206Z" fill="#CCE2DE"/>
<path d="M171 459.439H174V462.445H171V459.439Z" fill="#CCE2DE"/>
<path d="M171 349.206H174V352.212H171V349.206Z" fill="#CCE2DE"/>
<path d="M182 459.439H185V462.445H182V459.439Z" fill="#CCE2DE"/>
<path d="M182 349.206H185V352.212H182V349.206Z" fill="#CCE2DE"/>
<path d="M193 459.439H196V462.445H193V459.439Z" fill="#CCE2DE"/>
<path d="M193 349.206H196V352.212H193V349.206Z" fill="#CCE2DE"/>
<path d="M204 459.439H207V462.445H204V459.439Z" fill="#CCE2DE"/>
<path d="M204 349.206H207V352.212H204V349.206Z" fill="#CCE2DE"/>
<path d="M215 459.439H218V462.445H215V459.439Z" fill="#CCE2DE"/>
<path d="M215 349.206H218V352.212H215V349.206Z" fill="#CCE2DE"/>
<path d="M226 459.439H229V462.445H226V459.439Z" fill="#CCE2DE"/>
<path d="M226 349.206H229V352.212H226V349.206Z" fill="#CCE2DE"/>
<path d="M17 469.46H20V472.467H17V469.46Z" fill="#CCE2DE"/>
<path d="M17 359.227H20V362.233H17V359.227Z" fill="#CCE2DE"/>
<path d="M28 469.46H31V472.467H28V469.46Z" fill="#CCE2DE"/>
<path d="M28 359.227H31V362.233H28V359.227Z" fill="#CCE2DE"/>
<path d="M39 469.46H42V472.467H39V469.46Z" fill="#CCE2DE"/>
<path d="M39 359.227H42V362.233H39V359.227Z" fill="#CCE2DE"/>
<path d="M50 469.46H53V472.467H50V469.46Z" fill="#CCE2DE"/>
<path d="M50 359.227H53V362.233H50V359.227Z" fill="#CCE2DE"/>
<path d="M61 469.46H64V472.467H61V469.46Z" fill="#CCE2DE"/>
<path d="M61 359.227H64V362.233H61V359.227Z" fill="#CCE2DE"/>
<path d="M72 469.46H75V472.467H72V469.46Z" fill="#CCE2DE"/>
<path d="M72 359.227H75V362.233H72V359.227Z" fill="#CCE2DE"/>
<path d="M83 469.46H86V472.467H83V469.46Z" fill="#CCE2DE"/>
<path d="M83 359.227H86V362.233H83V359.227Z" fill="#CCE2DE"/>
<path d="M94 469.46H97V472.467H94V469.46Z" fill="#CCE2DE"/>
<path d="M94 359.227H97V362.233H94V359.227Z" fill="#CCE2DE"/>
<path d="M105 469.46H108V472.467H105V469.46Z" fill="#CCE2DE"/>
<path d="M105 359.227H108V362.233H105V359.227Z" fill="#CCE2DE"/>
<path d="M116 469.46H119V472.467H116V469.46Z" fill="#CCE2DE"/>
<path d="M116 359.227H119V362.233H116V359.227Z" fill="#CCE2DE"/>
<path d="M127 469.46H130V472.467H127V469.46Z" fill="#CCE2DE"/>
<path d="M127 359.227H130V362.233H127V359.227Z" fill="#CCE2DE"/>
<path d="M138 469.46H141V472.467H138V469.46Z" fill="#CCE2DE"/>
<path d="M138 359.227H141V362.233H138V359.227Z" fill="#CCE2DE"/>
<path d="M149 469.46H152V472.467H149V469.46Z" fill="#CCE2DE"/>
<path d="M149 359.227H152V362.233H149V359.227Z" fill="#CCE2DE"/>
<path d="M160 469.46H163V472.467H160V469.46Z" fill="#CCE2DE"/>
<path d="M160 359.227H163V362.233H160V359.227Z" fill="#CCE2DE"/>
<path d="M171 469.46H174V472.467H171V469.46Z" fill="#CCE2DE"/>
<path d="M171 359.227H174V362.233H171V359.227Z" fill="#CCE2DE"/>
<path d="M182 469.46H185V472.467H182V469.46Z" fill="#CCE2DE"/>
<path d="M182 359.227H185V362.233H182V359.227Z" fill="#CCE2DE"/>
<path d="M193 469.46H196V472.467H193V469.46Z" fill="#CCE2DE"/>
<path d="M193 359.227H196V362.233H193V359.227Z" fill="#CCE2DE"/>
<path d="M204 469.46H207V472.467H204V469.46Z" fill="#CCE2DE"/>
<path d="M204 359.227H207V362.233H204V359.227Z" fill="#CCE2DE"/>
<path d="M215 469.46H218V472.467H215V469.46Z" fill="#CCE2DE"/>
<path d="M215 359.227H218V362.233H215V359.227Z" fill="#CCE2DE"/>
<path d="M226 469.46H229V472.467H226V469.46Z" fill="#CCE2DE"/>
<path d="M226 359.227H229V362.233H226V359.227Z" fill="#CCE2DE"/>
<path opacity="0.27" d="M229.46 145.57H16.3899V284.01H229.46V145.57Z" fill="#C9C9C9"/>
<path d="M106.83 268.2L98.73 319.61H152.71L140.3 268.2H106.83Z" fill="#C9C9C9"/>
<path d="M229.46 252.39H16.3899V284.01H229.46V252.39Z" fill="#E6E6E6"/>
<path d="M124.12 274.88C128.848 274.88 132.68 271.048 132.68 266.32C132.68 261.592 128.848 257.76 124.12 257.76C119.392 257.76 115.56 261.592 115.56 266.32C115.56 271.048 119.392 274.88 124.12 274.88Z" fill="#A5A5A5"/>
<path d="M162.33 310.6H86.4199V327.12H162.33V310.6Z" fill="#E6E6E6"/>
<path d="M33.72 163.11C35.78 163.11 37.45 161.44 37.45 159.38C37.45 157.32 35.78 155.65 33.72 155.65C31.66 155.65 29.99 157.32 29.99 159.38C29.99 161.44 31.66 163.11 33.72 163.11Z" fill="#475762"/>
<path d="M44.8101 163.11C46.8701 163.11 48.5401 161.44 48.5401 159.38C48.5401 157.32 46.8701 155.65 44.8101 155.65C42.7501 155.65 41.0801 157.32 41.0801 159.38C41.0801 161.44 42.7501 163.11 44.8101 163.11Z" fill="#FD6F55"/>
<path d="M55.26 163.11C57.32 163.11 58.99 161.44 58.99 159.38C58.99 157.32 57.32 155.65 55.26 155.65C53.2 155.65 51.53 157.32 51.53 159.38C51.53 161.44 53.2 163.11 55.26 163.11Z" fill="#FFC854"/>
<path d="M134.26 189.87H129.06V177.7C129.113 176.683 128.958 175.665 128.604 174.709C128.251 173.754 127.707 172.88 127.006 172.141C126.304 171.402 125.46 170.814 124.523 170.412C123.587 170.01 122.579 169.803 121.56 169.803C120.541 169.803 119.533 170.01 118.597 170.412C117.661 170.814 116.816 171.402 116.114 172.141C115.413 172.88 114.869 173.754 114.516 174.709C114.163 175.665 114.008 176.683 114.06 177.7V189.87H108.85V177.7C108.943 174.39 110.323 171.246 112.698 168.937C115.072 166.628 118.253 165.337 121.565 165.337C124.877 165.337 128.058 166.628 130.433 168.937C132.807 171.246 134.187 174.39 134.28 177.7L134.26 189.87Z" fill="#68E1FD"/>
<path opacity="0.46" d="M134.26 189.87H129.06V177.7C129.113 176.683 128.958 175.665 128.604 174.709C128.251 173.754 127.707 172.88 127.006 172.141C126.304 171.402 125.46 170.814 124.523 170.412C123.587 170.01 122.579 169.803 121.56 169.803C120.541 169.803 119.533 170.01 118.597 170.412C117.661 170.814 116.816 171.402 116.114 172.141C115.413 172.88 114.869 173.754 114.516 174.709C114.163 175.665 114.008 176.683 114.06 177.7V189.87H108.85V177.7C108.943 174.39 110.323 171.246 112.698 168.937C115.072 166.628 118.253 165.337 121.565 165.337C124.877 165.337 128.058 166.628 130.433 168.937C132.807 171.246 134.187 174.39 134.28 177.7L134.26 189.87Z" fill="#FD6F55"/>
<path d="M141 180.57H102.1V211.58H141V180.57Z" fill="#6EC1B1"/>
<path d="M125.08 191.84C125.107 191.284 125.022 190.728 124.828 190.206C124.634 189.684 124.336 189.207 123.952 188.804C123.568 188.4 123.106 188.079 122.595 187.86C122.083 187.64 121.532 187.527 120.975 187.527C120.418 187.527 119.867 187.64 119.355 187.86C118.844 188.079 118.382 188.4 117.998 188.804C117.614 189.207 117.316 189.684 117.122 190.206C116.928 190.728 116.843 191.284 116.87 191.84C116.867 192.406 116.984 192.966 117.213 193.483C117.442 194 117.779 194.462 118.2 194.84V203.56H123.84V194.78C124.231 194.397 124.542 193.939 124.755 193.435C124.968 192.93 125.079 192.388 125.08 191.84Z" fill="#475762"/>
<path d="M158.38 223.45H84.71V239.09H158.38V223.45Z" fill="white"/>
<path d="M158.38 223.45H135.64V239.09H158.38V223.45Z" fill="#FFC854"/>
<path d="M94.15 233.55C95.3374 233.55 96.3 232.587 96.3 231.4C96.3 230.213 95.3374 229.25 94.15 229.25C92.9626 229.25 92 230.213 92 231.4C92 232.587 92.9626 233.55 94.15 233.55Z" fill="#24285B"/>
<path d="M102.14 233.55C103.327 233.55 104.29 232.587 104.29 231.4C104.29 230.213 103.327 229.25 102.14 229.25C100.953 229.25 99.99 230.213 99.99 231.4C99.99 232.587 100.953 233.55 102.14 233.55Z" fill="#24285B"/>
<path d="M109.94 233.55C111.127 233.55 112.09 232.587 112.09 231.4C112.09 230.213 111.127 229.25 109.94 229.25C108.753 229.25 107.79 230.213 107.79 231.4C107.79 232.587 108.753 233.55 109.94 233.55Z" fill="#24285B"/>
<path d="M117.93 233.55C119.117 233.55 120.08 232.587 120.08 231.4C120.08 230.213 119.117 229.25 117.93 229.25C116.743 229.25 115.78 230.213 115.78 231.4C115.78 232.587 116.743 233.55 117.93 233.55Z" fill="#24285B"/>
<path d="M126.1 233.55C127.287 233.55 128.25 232.587 128.25 231.4C128.25 230.213 127.287 229.25 126.1 229.25C124.913 229.25 123.95 230.213 123.95 231.4C123.95 232.587 124.913 233.55 126.1 233.55Z" fill="#24285B"/>
<path opacity="0.4" d="M229.47 183.99H197.73V201.15H229.47V183.99Z" fill="#A5A5A5"/>
<path opacity="0.12" d="M61.9999 235.5C61.9999 235.5 -26.0001 180.5 26.9998 112.5C44.1468 90.5 116 66 186.38 127.67" stroke="black" stroke-width="2" stroke-linecap="round" stroke-linejoin="round" stroke-dasharray="2 10"/>
<path d="M243.17 132.42H190V185.59H243.17V132.42Z" fill="#475762"/>
<path d="M206.17 158.5L212.35 168.78L227.17 149.22" stroke="white" stroke-width="5" stroke-linecap="round" stroke-linejoin="round"/>
</svg>
