<svg width="513" height="417" viewBox="0 0 513 417" fill="none" xmlns="http://www.w3.org/2000/svg">
<path d="M454 315.5L454 4.99991L327.436 4.99992M327.436 4.99992L327.436 83.6166M327.436 4.99992L193.303 4.99993M193.303 4.99993L193.303 180M193.303 4.99993L68.0001 4.99994L68.0001 83.6167" stroke="#475762" stroke-width="0.841241" stroke-dasharray="1.68 2.52"/>
<path d="M188.78 5.47981C188.78 3.14786 190.666 1.26201 192.986 1.26201C195.307 1.26201 197.192 3.14786 197.192 5.47981C197.192 7.81176 195.307 9.69761 192.986 9.69761C190.666 9.69761 188.78 7.81176 188.78 5.47981Z" fill="#F7F8F9" stroke="#FFC854" stroke-width="2.52372"/>
<path d="M64.2617 5.47981C64.2617 3.14786 66.1474 1.26201 68.4679 1.26201C70.7884 1.26201 72.6741 3.14786 72.6741 5.47981C72.6741 7.81176 70.7884 9.69761 68.4679 9.69761C66.1474 9.69761 64.2617 7.81176 64.2617 5.47981Z" fill="#F7F8F9" stroke="#1A78ED" stroke-width="2.52372"/>
<path d="M323.262 5.47981C323.262 3.14786 325.147 1.26201 327.468 1.26201C329.788 1.26201 331.674 3.14786 331.674 5.47981C331.674 7.81176 329.788 9.69761 327.468 9.69761C325.147 9.69761 323.262 7.81176 323.262 5.47981Z" fill="#F7F8F9" stroke="#FD6F55" stroke-width="2.52372"/>
<path d="M449.262 5.47981C449.262 3.14786 451.147 1.26201 453.468 1.26201C455.788 1.26201 457.674 3.14786 457.674 5.47981C457.674 7.81176 455.788 9.69761 453.468 9.69761C451.147 9.69761 449.262 7.81176 449.262 5.47981Z" fill="#F7F8F9" stroke="#6EC1B1" stroke-width="2.52372"/>
<g filter="url(#filter0_dd)">
<rect x="96.6643" y="128.983" width="70.6642" height="70.8141" rx="8.41241" transform="rotate(180 96.6643 128.983)" fill="#A1C6F3"/>
</g>
<rect x="102.132" y="121.818" width="68.9818" height="69.9729" rx="7.99179" transform="rotate(180 102.132 121.818)" fill="white" stroke="#1A78ED" stroke-width="0.841241"/>
<g clip-path="url(#clip0)">
<path d="M80.3056 91.0069C80.0473 91.1801 79.7553 91.2629 79.4663 91.2629C78.9789 91.2629 78.5002 91.0269 78.2087 90.5904C75.7662 86.9327 71.6831 84.7491 67.2865 84.7491C62.9029 84.7491 58.8266 86.9227 56.3823 90.5637C55.9162 91.2578 54.977 91.442 54.2844 90.9749C53.5917 90.5079 53.4079 89.5666 53.874 88.8725C55.8269 85.9636 58.6268 83.8172 61.8265 82.669C59.9076 81.0982 58.6804 78.7096 58.6804 76.0389C58.6804 71.3196 62.5116 67.4802 67.2209 67.4802C71.9302 67.4802 75.7615 71.3196 75.7615 76.0389C75.7615 78.6904 74.552 81.0641 72.6569 82.6352C75.9066 83.7792 78.7486 85.9516 80.7212 88.9055C81.1855 89.6008 80.9994 90.5416 80.3056 91.0069ZM67.2209 70.5098C64.1787 70.5098 61.7036 72.9902 61.7036 76.0389C61.7036 79.0876 64.1787 81.568 67.2209 81.568C70.2632 81.568 72.7383 79.0876 72.7383 76.0389C72.7383 72.9902 70.2632 70.5098 67.2209 70.5098ZM61.1928 94.3022L63.4463 95.9313C63.7816 96.1737 63.9219 96.6034 63.7938 96.9956L62.8863 99.6315C62.848 99.7489 62.8333 99.8635 62.8382 99.9729C62.8703 100.681 63.7557 101.165 64.4051 100.696L66.6585 99.0661C66.8262 98.945 67.0235 98.8844 67.2208 98.8844C67.4182 98.8844 67.6155 98.945 67.7832 99.0661L70.0366 100.696C70.686 101.165 71.5756 100.681 71.6037 99.9729C71.608 99.8635 71.5929 99.7488 71.5546 99.6315L70.648 96.9956C70.5198 96.6034 70.6602 96.1737 70.9955 95.9313L73.249 94.3022C73.9987 93.7602 73.6134 92.4746 72.6867 92.4746L69.9012 92.4746C69.4867 92.4746 69.1194 92.3147 68.9914 91.9225L68.1307 89.2696C67.9875 88.8311 67.6042 88.6118 67.2208 88.6118C66.8375 88.6118 66.4542 88.8311 66.311 89.2696L65.4503 91.9225C65.3222 92.3147 64.9549 92.4746 64.5405 92.4746L61.755 92.4746C60.8283 92.4746 60.443 93.7602 61.1928 94.3022ZM48.2686 99.6041L50.5221 101.233C50.8573 101.476 50.9977 101.905 50.8696 102.297L49.9621 104.933C49.9238 105.051 49.909 105.165 49.9139 105.275C49.9461 105.983 50.8315 106.467 51.4809 105.998L53.7343 104.368C53.9019 104.247 54.0993 104.186 54.2966 104.186C54.494 104.186 54.6913 104.247 54.8589 104.368L57.1124 105.998C57.7617 106.467 58.6514 105.983 58.6795 105.275C58.6838 105.165 58.6687 105.051 58.6304 104.933L57.7237 102.297C57.5956 101.905 57.736 101.476 58.0712 101.233L60.3247 99.6041C61.0745 99.0621 60.6892 97.7764 59.7624 97.7764L56.977 97.7764C56.5625 97.7764 56.1952 97.6165 56.0672 97.2244L55.2065 94.5714C55.0632 94.1329 54.68 93.9137 54.2966 93.9137C53.9133 93.9137 53.53 94.1329 53.3868 94.5714L52.5261 97.2244C52.398 97.6165 52.0307 97.7764 51.6162 97.7764L48.8308 97.7764C47.9041 97.7764 47.5188 99.0621 48.2686 99.6041ZM74.117 99.6041L76.3705 101.233C76.7058 101.476 76.8461 101.905 76.718 102.297L75.8105 104.933C75.7722 105.051 75.7575 105.165 75.7624 105.275C75.7945 105.983 76.6799 106.467 77.3293 105.998L79.5828 104.368C79.7505 104.247 79.9478 104.186 80.1451 104.186C80.3425 104.186 80.5398 104.247 80.7075 104.368L82.9609 105.998C83.6103 106.467 84.4999 105.983 84.528 105.275C84.5323 105.165 84.5172 105.051 84.4789 104.933L83.5722 102.297C83.4441 101.905 83.5845 101.476 83.9198 101.233L86.1733 99.6041C86.923 99.0621 86.5377 97.7764 85.6109 97.7764L82.8255 97.7764C82.411 97.7764 82.0437 97.6165 81.9157 97.2244L81.055 94.5714C80.9117 94.1329 80.5285 93.9137 80.1451 93.9137C79.7618 93.9137 79.3785 94.1329 79.2353 94.5714L78.3746 97.2244C78.2465 97.6165 77.8792 97.7764 77.4648 97.7764L74.6793 97.7764C73.7526 97.7764 73.3673 99.0621 74.117 99.6041Z" fill="#1A78ED"/>
</g>
<g filter="url(#filter1_dd)">
<rect x="223.691" y="250.46" width="70.6642" height="70.8141" rx="8.41241" transform="rotate(180 223.691 250.46)" fill="#FFE3A7"/>
</g>
<rect x="229.159" y="243.295" width="68.9818" height="69.9729" rx="7.99179" transform="rotate(180 229.159 243.295)" fill="white" stroke="#FFC854" stroke-width="0.841241"/>
<g clip-path="url(#clip1)">
<path d="M212.085 210.277C212.92 210.277 213.597 209.599 213.597 208.762L213.597 193.465C213.597 191.989 212.877 190.6 211.673 189.75C210.468 188.899 208.921 188.689 207.534 189.186C207.491 189.201 207.449 189.219 207.408 189.238L195.298 194.857C192.632 196.094 189.791 196.73 186.853 196.747L180.941 196.782C177.609 196.784 174.899 199.502 174.899 202.841L174.899 206.78C174.899 209.467 176.672 211.78 179.132 212.558L179.132 223.093C179.132 224.326 179.638 225.53 180.52 226.397C181.375 227.238 182.489 227.697 183.668 227.697C183.697 227.697 183.726 227.697 183.755 227.696C184.948 227.674 186.065 227.191 186.902 226.337C187.74 225.482 188.202 224.351 188.202 223.153L188.202 212.834C190.753 213.026 193.275 213.703 195.575 214.819L207.37 220.544C207.417 220.567 207.464 220.587 207.513 220.605C208.902 221.111 210.453 220.905 211.664 220.056C212.874 219.206 213.597 217.814 213.597 216.333C213.597 215.497 212.92 214.819 212.085 214.819C211.25 214.819 210.573 215.497 210.573 216.333C210.573 216.835 210.339 217.287 209.929 217.574C209.537 217.849 209.059 217.922 208.607 217.778L196.893 212.092C194.185 210.778 191.208 209.994 188.202 209.797L188.202 199.732C191.103 199.552 193.911 198.839 196.568 197.606L208.606 192.021C209.06 191.876 209.54 191.95 209.932 192.227C210.34 192.514 210.573 192.966 210.573 193.465L210.573 208.762C210.573 209.599 211.25 210.277 212.085 210.277ZM185.178 223.153C185.178 223.972 184.514 224.652 183.697 224.667C183.306 224.675 182.928 224.521 182.637 224.234C182.331 223.933 182.155 223.517 182.155 223.093L182.155 211.313C182.155 210.515 181.538 209.854 180.744 209.801C179.162 209.695 177.923 208.368 177.923 206.78L177.923 202.841C177.923 201.17 179.279 199.811 180.946 199.811L180.955 199.811L185.178 199.787L185.178 223.153Z" fill="#FFC854"/>
</g>
<g filter="url(#filter2_dd)">
<rect x="355.767" y="159.983" width="70.6642" height="70.8141" rx="8.41241" transform="rotate(180 355.767 159.983)" fill="#FFBBAF"/>
</g>
<rect x="361.235" y="152.818" width="68.9818" height="69.9729" rx="7.99179" transform="rotate(180 361.235 152.818)" fill="white" stroke="#FD6F55" stroke-width="0.841241"/>
<g clip-path="url(#clip2)">
<path d="M344.774 115.222L343.04 112.961C343.01 112.762 343.015 112.369 343.018 112.122C343.019 112.014 343.02 111.908 343.02 111.807L343.02 108.947C343.02 107.079 341.753 105.552 339.712 104.963L336.861 104.14C336.583 104.06 336.341 103.886 336.18 103.65L334.508 101.214C333.413 99.6201 331.375 98.9606 329.55 99.6105L326.746 100.61C326.473 100.707 326.173 100.707 325.9 100.61L323.096 99.6107C321.271 98.9608 319.233 99.6202 318.139 101.215L316.467 103.65C316.313 103.874 316.088 104.042 315.828 104.127L312.858 104.752C312.821 104.76 312.786 104.769 312.75 104.779C310.859 105.325 309.578 107.047 309.626 108.973L309.626 111.909C309.626 112.011 309.628 112.118 309.63 112.228C309.635 112.446 309.642 112.801 309.605 112.947L307.871 115.224C306.675 116.762 306.676 118.904 307.872 120.441L309.609 122.708C309.641 122.845 309.635 123.194 309.63 123.452C309.628 123.585 309.626 123.72 309.626 123.859L309.626 126.8C309.582 128.605 310.848 130.098 312.934 130.7L315.786 131.523C316.063 131.603 316.305 131.777 316.467 132.013L318.138 134.448C318.951 135.632 320.283 136.3 321.663 136.3C322.141 136.3 322.626 136.22 323.096 136.052L325.9 135.053C326.173 134.956 326.473 134.956 326.746 135.053L329.55 136.052C330.02 136.22 330.505 136.3 330.984 136.3C332.363 136.3 333.695 135.632 334.508 134.448L336.179 132.013C336.341 131.777 336.583 131.603 336.861 131.523L339.712 130.7C341.567 130.165 343.081 128.039 343.02 126.058C342.994 125.222 342.293 124.563 341.462 124.591C340.627 124.618 339.972 125.316 339.998 126.153C340.016 126.736 339.397 127.638 338.876 127.789L336.024 128.612C335.076 128.886 334.246 129.484 333.689 130.296L332.017 132.732C331.697 133.197 331.099 133.389 330.563 133.198L327.759 132.199C326.833 131.869 325.813 131.869 324.887 132.199L322.083 133.198C321.547 133.389 320.949 133.197 320.629 132.732L318.957 130.296C318.4 129.484 317.571 128.886 316.622 128.612L313.77 127.789C313.654 127.755 312.63 127.443 312.648 126.868C312.649 126.852 312.649 126.836 312.649 126.82L312.649 123.859C312.649 123.739 312.651 123.62 312.653 123.505C312.667 122.716 312.684 121.735 312.027 120.889L310.266 118.591C310.263 118.587 310.26 118.583 310.258 118.579C309.913 118.139 309.913 117.524 310.258 117.084C310.261 117.079 310.265 117.073 310.269 117.068L312.029 114.758C312.688 113.906 312.667 112.859 312.653 112.165C312.651 112.077 312.649 111.991 312.649 111.909L312.649 108.952C312.649 108.936 312.649 108.92 312.648 108.905C312.632 108.377 313.006 107.879 313.544 107.704L316.515 107.078C316.551 107.07 316.587 107.061 316.622 107.051C317.571 106.777 318.4 106.179 318.957 105.367L320.629 102.931C320.949 102.466 321.546 102.274 322.083 102.465L324.887 103.464C325.813 103.794 326.833 103.794 327.759 103.464L330.563 102.465C331.1 102.274 331.697 102.466 332.017 102.931L333.689 105.367C334.246 106.179 335.076 106.778 336.024 107.051L338.876 107.874C339.295 107.995 339.997 108.295 339.997 108.947L339.997 111.807C339.997 111.896 339.996 111.989 339.995 112.084C339.984 112.965 339.97 114.054 340.659 114.829L342.38 117.073C342.383 117.076 342.386 117.08 342.389 117.084C342.733 117.524 342.733 118.139 342.389 118.58C341.874 119.238 341.989 120.19 342.647 120.706C343.304 121.222 344.254 121.106 344.768 120.448C345.971 118.91 345.972 116.762 344.774 115.222Z" fill="#FD6F55"/>
<path d="M321.66 126.748C321.888 126.872 322.135 126.931 322.377 126.931C322.915 126.931 323.435 126.643 323.708 126.136L331.879 110.989C332.276 110.253 332.002 109.334 331.268 108.936C330.533 108.538 329.616 108.813 329.219 109.548L321.049 124.696C320.652 125.431 320.926 126.35 321.66 126.748Z" fill="#FD6F55"/>
<path d="M323.829 112.541C323.829 110.453 322.134 108.754 320.05 108.754C317.966 108.754 316.271 110.453 316.271 112.541C316.271 114.629 317.966 116.327 320.05 116.327C322.134 116.327 323.829 114.629 323.829 112.541ZM320.05 113.298C319.633 113.298 319.294 112.958 319.294 112.541C319.294 112.123 319.633 111.783 320.05 111.783C320.467 111.783 320.806 112.123 320.806 112.541C320.806 112.958 320.467 113.298 320.05 113.298Z" fill="#FD6F55"/>
<path d="M332.52 126.93C334.604 126.93 336.299 125.232 336.299 123.144C336.299 121.056 334.604 119.357 332.52 119.357C330.436 119.357 328.741 121.056 328.741 123.144C328.741 125.232 330.436 126.93 332.52 126.93ZM332.52 122.386C332.937 122.386 333.276 122.726 333.276 123.144C333.276 123.561 332.937 123.901 332.52 123.901C332.103 123.901 331.764 123.561 331.764 123.144C331.764 122.726 332.103 122.386 332.52 122.386Z" fill="#FD6F55"/>
</g>
<g filter="url(#filter3_dd)">
<rect x="482.664" y="386.558" width="70.6642" height="70.8141" rx="8.41241" transform="rotate(180 482.664 386.558)" fill="#B8E7DE"/>
</g>
<rect x="488.132" y="379.394" width="68.9818" height="69.9729" rx="7.99179" transform="rotate(180 488.132 379.394)" fill="white" stroke="#6EC1B1" stroke-width="0.841241"/>
<g clip-path="url(#clip3)">
<path d="M471.058 350.165C471.893 350.165 472.569 349.487 472.569 348.65L472.569 338.652C472.569 335.311 469.857 332.593 466.523 332.593L460.018 332.593L460.018 330.618C460.018 328.323 458.154 326.455 455.863 326.455L450.578 326.455C448.288 326.455 446.424 328.323 446.424 330.618L446.424 332.593L439.919 332.593C436.585 332.593 433.872 335.311 433.872 338.652L433.872 356.3C433.872 359.641 436.585 362.359 439.919 362.359L466.523 362.359C469.857 362.359 472.569 359.641 472.569 356.3C472.569 355.463 471.893 354.785 471.058 354.785C470.223 354.785 469.546 355.463 469.546 356.3C469.546 357.97 468.19 359.33 466.523 359.33L439.919 359.33C438.252 359.33 436.896 357.97 436.896 356.3L436.896 345.542L451.785 345.542L451.785 347.817C451.785 348.654 452.462 349.332 453.296 349.332C454.131 349.332 454.808 348.654 454.808 347.817L454.808 345.542L469.546 345.542L469.546 348.65C469.546 349.487 470.223 350.165 471.058 350.165ZM449.447 330.618C449.447 329.993 449.955 329.485 450.578 329.485L455.863 329.485C456.487 329.485 456.994 329.993 456.994 330.618L456.994 332.593L449.447 332.593L449.447 330.618ZM436.896 342.512L436.896 338.652C436.896 336.982 438.252 335.623 439.919 335.623L466.523 335.623C468.19 335.623 469.546 336.982 469.546 338.652L469.546 342.512L436.896 342.512Z" fill="#6EC1B1"/>
</g>
<defs>
<filter id="filter0_dd" x="14.2227" y="44.7088" width="105.996" height="106.146" filterUnits="userSpaceOnUse" color-interpolation-filters="sRGB">
<feFlood flood-opacity="0" result="BackgroundImageFix"/>
<feColorMatrix in="SourceAlpha" type="matrix" values="0 0 0 0 0 0 0 0 0 0 0 0 0 0 0 0 0 0 127 0"/>
<feOffset dx="5.88869" dy="4.2062"/>
<feGaussianBlur stdDeviation="8.83303"/>
<feColorMatrix type="matrix" values="0 0 0 0 0 0 0 0 0 0 0 0 0 0 0 0 0 0 0.05 0"/>
<feBlend mode="normal" in2="BackgroundImageFix" result="effect1_dropShadow"/>
<feColorMatrix in="SourceAlpha" type="matrix" values="0 0 0 0 0 0 0 0 0 0 0 0 0 0 0 0 0 0 127 0"/>
<feOffset dx="2.52372" dy="2.52372"/>
<feGaussianBlur stdDeviation="1.26186"/>
<feColorMatrix type="matrix" values="0 0 0 0 0 0 0 0 0 0 0 0 0 0 0 0 0 0 0.03 0"/>
<feBlend mode="normal" in2="effect1_dropShadow" result="effect2_dropShadow"/>
<feBlend mode="normal" in="SourceGraphic" in2="effect2_dropShadow" result="shape"/>
</filter>
<filter id="filter1_dd" x="141.25" y="166.186" width="105.996" height="106.146" filterUnits="userSpaceOnUse" color-interpolation-filters="sRGB">
<feFlood flood-opacity="0" result="BackgroundImageFix"/>
<feColorMatrix in="SourceAlpha" type="matrix" values="0 0 0 0 0 0 0 0 0 0 0 0 0 0 0 0 0 0 127 0"/>
<feOffset dx="5.88869" dy="4.2062"/>
<feGaussianBlur stdDeviation="8.83303"/>
<feColorMatrix type="matrix" values="0 0 0 0 0 0 0 0 0 0 0 0 0 0 0 0 0 0 0.05 0"/>
<feBlend mode="normal" in2="BackgroundImageFix" result="effect1_dropShadow"/>
<feColorMatrix in="SourceAlpha" type="matrix" values="0 0 0 0 0 0 0 0 0 0 0 0 0 0 0 0 0 0 127 0"/>
<feOffset dx="2.52372" dy="2.52372"/>
<feGaussianBlur stdDeviation="1.26186"/>
<feColorMatrix type="matrix" values="0 0 0 0 0 0 0 0 0 0 0 0 0 0 0 0 0 0 0.03 0"/>
<feBlend mode="normal" in2="effect1_dropShadow" result="effect2_dropShadow"/>
<feBlend mode="normal" in="SourceGraphic" in2="effect2_dropShadow" result="shape"/>
</filter>
<filter id="filter2_dd" x="273.325" y="75.7088" width="105.996" height="106.146" filterUnits="userSpaceOnUse" color-interpolation-filters="sRGB">
<feFlood flood-opacity="0" result="BackgroundImageFix"/>
<feColorMatrix in="SourceAlpha" type="matrix" values="0 0 0 0 0 0 0 0 0 0 0 0 0 0 0 0 0 0 127 0"/>
<feOffset dx="5.88869" dy="4.2062"/>
<feGaussianBlur stdDeviation="8.83303"/>
<feColorMatrix type="matrix" values="0 0 0 0 0 0 0 0 0 0 0 0 0 0 0 0 0 0 0.05 0"/>
<feBlend mode="normal" in2="BackgroundImageFix" result="effect1_dropShadow"/>
<feColorMatrix in="SourceAlpha" type="matrix" values="0 0 0 0 0 0 0 0 0 0 0 0 0 0 0 0 0 0 127 0"/>
<feOffset dx="2.52372" dy="2.52372"/>
<feGaussianBlur stdDeviation="1.26186"/>
<feColorMatrix type="matrix" values="0 0 0 0 0 0 0 0 0 0 0 0 0 0 0 0 0 0 0.03 0"/>
<feBlend mode="normal" in2="effect1_dropShadow" result="effect2_dropShadow"/>
<feBlend mode="normal" in="SourceGraphic" in2="effect2_dropShadow" result="shape"/>
</filter>
<filter id="filter3_dd" x="400.223" y="302.284" width="105.996" height="106.146" filterUnits="userSpaceOnUse" color-interpolation-filters="sRGB">
<feFlood flood-opacity="0" result="BackgroundImageFix"/>
<feColorMatrix in="SourceAlpha" type="matrix" values="0 0 0 0 0 0 0 0 0 0 0 0 0 0 0 0 0 0 127 0"/>
<feOffset dx="5.88869" dy="4.2062"/>
<feGaussianBlur stdDeviation="8.83303"/>
<feColorMatrix type="matrix" values="0 0 0 0 0 0 0 0 0 0 0 0 0 0 0 0 0 0 0.05 0"/>
<feBlend mode="normal" in2="BackgroundImageFix" result="effect1_dropShadow"/>
<feColorMatrix in="SourceAlpha" type="matrix" values="0 0 0 0 0 0 0 0 0 0 0 0 0 0 0 0 0 0 127 0"/>
<feOffset dx="2.52372" dy="2.52372"/>
<feGaussianBlur stdDeviation="1.26186"/>
<feColorMatrix type="matrix" values="0 0 0 0 0 0 0 0 0 0 0 0 0 0 0 0 0 0 0.03 0"/>
<feBlend mode="normal" in2="effect1_dropShadow" result="effect2_dropShadow"/>
<feBlend mode="normal" in="SourceGraphic" in2="effect2_dropShadow" result="shape"/>
</filter>
<clipPath id="clip0">
<rect width="38.6971" height="38.7792" fill="white" transform="matrix(-1 -8.74228e-08 -8.74228e-08 1 86.5694 67.4421)"/>
</clipPath>
<clipPath id="clip1">
<rect width="38.6971" height="38.7792" fill="white" transform="translate(174.899 188.919)"/>
</clipPath>
<clipPath id="clip2">
<rect width="38.6971" height="38.7792" fill="white" transform="translate(306.975 98.4419)"/>
</clipPath>
<clipPath id="clip3">
<rect width="38.6971" height="38.7792" fill="white" transform="translate(433.872 325.018)"/>
</clipPath>
</defs>
</svg>
