<svg width="796" height="477" viewBox="0 0 796 477" fill="none" xmlns="http://www.w3.org/2000/svg">
<g filter="url(#filter0_dd)">
<path d="M752.025 202.774C752.025 172.664 727.619 148.255 697.513 148.255H643V257.293H697.513C727.619 257.293 752.025 232.884 752.025 202.774Z" fill="#1A78ED"/>
</g>
<g filter="url(#filter1_dd)">
<rect x="226" y="63" width="460" height="326" rx="10" fill="white"/>
<rect x="227" y="64" width="458" height="324" rx="9" stroke="#475762" stroke-width="2" stroke-dasharray="5 5"/>
</g>
<g clip-path="url(#clip0)">
<path d="M566.617 88L572.635 100.26L586.233 102.267L576.425 111.852L578.877 125.45L566.617 118.985L554.579 125.45L556.808 111.852L547 102.267L560.598 100.26L566.617 88Z" fill="#FFBBAF"/>
<path d="M634.383 88L640.402 100.26L654 102.267L644.192 111.852L646.421 125.45L634.383 118.985L622.123 125.45L624.575 111.852L614.767 102.267L628.364 100.26L634.383 88Z" fill="#FFBBAF"/>
<path d="M580.66 188.535L577.094 188.089H573.527V163.346H575.756L581.329 160.225C588.24 156.435 593.812 150.639 597.379 143.729C597.379 143.729 597.379 143.729 597.379 143.506C597.825 142.614 598.271 141.723 598.271 140.608L599.163 136.596C599.163 136.596 601.838 134.812 603.398 138.379C603.398 138.379 605.627 144.398 602.506 149.302C602.061 151.531 598.94 153.983 599.163 155.989C599.163 155.989 601.169 157.55 603.175 156.881C605.181 156.212 610.531 157.327 611.646 160.002C612.76 161.785 613.206 164.683 609.64 166.244C609.64 166.244 612.092 167.804 611.869 170.256C611.646 173.154 609.417 174.046 609.417 174.046C609.417 174.046 611.423 175.829 610.309 178.281C609.194 180.733 607.857 180.956 607.857 180.956C607.857 180.956 609.863 183.854 608.525 185.86C607.411 187.198 605.85 188.312 604.29 188.758C598.048 190.542 589.577 189.65 580.66 188.535Z" fill="#FFD15C"/>
<path d="M599.163 136.819L598.271 140.831C598.271 141.277 598.048 141.723 597.825 142.169C599.831 142.392 600.5 140.608 600.723 139.048C600.946 137.711 599.163 136.819 599.163 136.819Z" fill="#F3F3F3"/>
<path d="M576.202 162.231H567.062V190.542H576.202V162.231Z" fill="#E8EAE9"/>
<path d="M571.744 161.117H547V195H571.744V161.117Z" fill="#415A6B"/>
<path d="M564.165 191.21C566.011 191.21 567.508 189.713 567.508 187.867C567.508 186.02 566.011 184.523 564.165 184.523C562.318 184.523 560.821 186.02 560.821 187.867C560.821 189.713 562.318 191.21 564.165 191.21Z" fill="#344A5E"/>
<path d="M600.5 88L608.971 105.165L627.919 108.063L614.321 121.438L617.442 140.163L600.5 131.246L583.558 140.163L586.679 121.438L573.081 108.063L592.029 105.165L600.5 88Z" fill="#F3705A"/>
</g>
<path d="M461.59 133.58H321.38V298.14H461.59V133.58Z" fill="#E6E6E6"/>
<path d="M573.09 143.77H478.83V231.55H573.09V143.77Z" fill="#E6E6E6"/>
<path d="M546.19 247H479V280.73H546.19V247Z" fill="#E6E6E6"/>
<path d="M495.53 273.03C500.594 273.03 504.7 268.924 504.7 263.86C504.7 258.795 500.594 254.69 495.53 254.69C490.466 254.69 486.36 258.795 486.36 263.86C486.36 268.924 490.466 273.03 495.53 273.03Z" fill="#C9C9C9"/>
<path d="M376.763 153.21H374.728V153.71H372.694V153.21H370.659V153.71H368.625V153.21H366.59V153.71H364.556V153.21H362.521V153.71H360.487V153.21H358.452V153.71H356.418V153.21H354.383V153.71H352.349V153.21H350.314V153.71H348.28V153.21H346.245V153.71H344.211V153.21H342.176V153.71H340.142V153.21H338.107V153.71H337.59V154.206H337.09V156.198H337.59V158.19H337.09V160.182H337.59V162.175H337.09V164.167H337.59V166.159H337.09V168.151H337.59V170.143H337.09V172.135H337.59V174.127H337.09V176.12H337.59V178.112H337.09V180.104H337.59V182.096H337.09V184.088H337.59V186.08H337.09V188.072H337.59V190.065H337.09V192.057H337.59V194.049H337.09V196.041H337.59V198.033H337.09V200.025H337.59V202.017H337.09V204.01H337.59V206.002H337.09V207.994H337.59V208.49H338.107V208.99H340.142V208.49H342.176V208.99H344.211V208.49H346.245V208.99H348.28V208.49H350.314V208.99H352.349V208.49H354.383V208.99H356.418V208.49H358.452V208.99H360.487V208.49H362.521V208.99H364.556V208.49H366.59V208.99H368.625V208.49H370.659V208.99H372.694V208.49H374.728V208.99H376.763V208.49H377.28V207.994H377.78V206.002H377.28V204.01H377.78V202.017H377.28V200.025H377.78V198.033H377.28V196.041H377.78V194.049H377.28V192.057H377.78V190.065H377.28V188.072H377.78V186.08H377.28V184.088H377.78V182.096H377.28V180.104H377.78V178.112H377.28V176.12H377.78V174.127H377.28V172.135H377.78V170.143H377.28V168.151H377.78V166.159H377.28V164.167H377.78V162.175H377.28V160.182H377.78V158.19H377.28V156.198H377.78V154.206H377.28V153.71H376.763V153.21Z" fill="white" stroke="#FD6F55" stroke-dasharray="2 2"/>
<path d="M520.86 154.51H489.39V183.62H520.86V154.51Z" fill="#C9C9C9"/>
<path opacity="0.44" d="M520.86 191.75H489.39V220.86H520.86V191.75Z" fill="#C9C9C9"/>
<path opacity="0.44" d="M562.64 191.75H531.17V220.86H562.64V191.75Z" fill="#C9C9C9"/>
<path opacity="0.63" d="M491.74 178.14L497.89 168.64L505.13 177.11L512.04 164.95L518.51 178.32V181.68H491.74V178.14Z" fill="#1A78ED"/>
<path d="M504.88 166.94C506.614 166.94 508.02 165.534 508.02 163.8C508.02 162.066 506.614 160.66 504.88 160.66C503.146 160.66 501.74 162.066 501.74 163.8C501.74 165.534 503.146 166.94 504.88 166.94Z" fill="#FFC854"/>
<path d="M562.89 154.51H531.42V183.62H562.89V154.51Z" fill="#C9C9C9"/>
<path opacity="0.63" d="M533.77 178.14L539.92 168.64L547.15 177.11L554.07 164.95L560.54 178.32V181.68H533.77V178.14Z" fill="#1A78ED"/>
<path d="M546.9 166.94C548.634 166.94 550.04 165.534 550.04 163.8C550.04 162.066 548.634 160.66 546.9 160.66C545.166 160.66 543.76 162.066 543.76 163.8C543.76 165.534 545.166 166.94 546.9 166.94Z" fill="#FFC854"/>
<path opacity="0.46" d="M449.63 153.21H391.48V187.66H449.63V153.21Z" fill="#6EC1B1"/>
<path d="M449.63 197.5H391.48V208.99H449.63V197.5Z" fill="white"/>
<path d="M449.63 197.5H432.75V208.99H449.63V197.5Z" fill="#C9C9C9"/>
<path d="M534.16 258.03H511.66V262.11H534.16V258.03Z" fill="#C9C9C9"/>
<path opacity="0.45" d="M534.16 265.61H511.66V269.69H534.16V265.61Z" fill="#C9C9C9"/>
<path d="M350.469 180.284C348.826 180.284 347.529 179.789 346.577 178.8C345.793 177.96 345.401 176.952 345.401 175.776C345.401 174.488 345.783 173.433 346.549 172.612C347.426 171.623 348.733 171.128 350.469 171.128C352.167 171.128 353.493 171.623 354.445 172.612C355.229 173.433 355.621 174.46 355.621 175.692C355.621 176.924 355.219 177.96 354.417 178.8C353.465 179.789 352.149 180.284 350.469 180.284ZM350.385 190L361.193 171.324H363.629L352.793 190H350.385ZM350.525 173.592C349.89 173.592 349.377 173.807 348.985 174.236C348.611 174.647 348.425 175.132 348.425 175.692C348.425 176.327 348.667 176.859 349.153 177.288C349.526 177.624 349.983 177.792 350.525 177.792C351.085 177.792 351.579 177.596 352.009 177.204C352.419 176.793 352.625 176.289 352.625 175.692C352.625 175.076 352.401 174.553 351.953 174.124C351.579 173.769 351.103 173.592 350.525 173.592ZM363.517 183.532C362.882 183.532 362.369 183.747 361.977 184.176C361.603 184.587 361.417 185.072 361.417 185.632C361.417 186.267 361.659 186.799 362.145 187.228C362.518 187.564 362.975 187.732 363.517 187.732C364.077 187.732 364.571 187.536 365.001 187.144C365.411 186.733 365.617 186.229 365.617 185.632C365.617 184.997 365.393 184.475 364.945 184.064C364.571 183.709 364.095 183.532 363.517 183.532ZM363.461 190.224C361.818 190.224 360.521 189.729 359.569 188.74C358.785 187.9 358.393 186.892 358.393 185.716C358.393 184.428 358.775 183.373 359.541 182.552C360.418 181.563 361.725 181.068 363.461 181.068C365.159 181.068 366.485 181.563 367.437 182.552C368.221 183.373 368.613 184.4 368.613 185.632C368.613 186.864 368.211 187.9 367.409 188.74C366.457 189.729 365.141 190.224 363.461 190.224Z" fill="#FD6F55"/>
<path d="M385.88 232H344V272.06H385.88V232Z" fill="#F1F1F1"/>
<path d="M438.43 232H396.55V272.06H438.43V232Z" fill="#C9C9C9"/>
<g clip-path="url(#clip1)">
<path d="M570.114 276.378V315.931C570.114 316.698 570.237 317.435 570.467 318.126C570.498 318.218 570.544 318.311 570.575 318.418C571.573 321.028 574.091 322.871 577.054 322.871H606.504L620.277 333.481V322.871H624.745C626.541 322.871 628 321.412 628 319.616V276.378C628 274.581 626.541 273.123 624.745 273.123H573.369C571.573 273.123 570.114 274.581 570.114 276.378Z" fill="#ABB2B9"/>
<path d="M619.509 281.629H578.605V286.834H619.509V281.629Z" fill="#334A5E"/>
<path d="M619.509 294.435H578.605V299.64H619.509V294.435Z" fill="#334A5E"/>
<path d="M619.509 307.255H578.605V312.461H619.509V307.255Z" fill="#334A5E"/>
<path d="M604.631 290.535H553.255C551.459 290.535 550 291.993 550 293.79V337.012C550 338.809 551.459 340.267 553.255 340.267H557.723V350.877L571.496 340.267H604.631C606.427 340.267 607.886 338.809 607.886 337.012V293.79C607.886 291.993 606.427 290.535 604.631 290.535Z" fill="#F2F2F2"/>
<path d="M562.406 321.412C565.578 321.412 568.149 318.841 568.149 315.67C568.149 312.498 565.578 309.927 562.406 309.927C559.235 309.927 556.664 312.498 556.664 315.67C556.664 318.841 559.235 321.412 562.406 321.412Z" fill="#F2705B"/>
<path d="M578.943 321.412C582.114 321.412 584.685 318.841 584.685 315.67C584.685 312.498 582.114 309.927 578.943 309.927C575.771 309.927 573.2 312.498 573.2 315.67C573.2 318.841 575.771 321.412 578.943 321.412Z" fill="#1A78ED"/>
<path d="M595.479 321.412C598.651 321.412 601.222 318.841 601.222 315.67C601.222 312.498 598.651 309.927 595.479 309.927C592.308 309.927 589.737 312.498 589.737 315.67C589.737 318.841 592.308 321.412 595.479 321.412Z" fill="#6EC1B1"/>
</g>
<g filter="url(#filter2_dd)">
<rect x="186" y="12" width="149" height="136" rx="10" fill="#FFBBAF"/>
</g>
<path d="M304.667 56H218V103.017H304.667V56Z" fill="white"/>
<path d="M232.95 74.4165C232.95 72.8998 234.033 72.0332 235.767 72.0332C237.283 72.0332 238.8 72.6832 240.1 73.7665L241.617 71.1665C240.1 69.6498 238.15 68.9998 235.767 68.9998C231.867 68.9998 229.483 71.5998 229.483 74.633C229.483 81.3498 238.583 80.0498 238.583 84.1663C238.583 85.683 237.5 86.983 235.333 86.983C233.383 86.983 231.65 86.1163 230.567 84.8163L228.833 87.4165C230.35 88.9332 232.517 90.0165 235.333 90.0165C239.667 90.0165 241.833 87.4165 241.833 84.1665C242.05 77.2332 232.95 78.1 232.95 74.4165Z" fill="#FD6F55"/>
<path d="M251.8 69.4331L245.733 89.5831H249.416L250.5 85.6831H257.216L258.3 89.5831H261.983L255.916 69.4331H251.8ZM251.15 82.6498L253.75 72.8998L256.35 82.6498H251.15Z" fill="#FD6F55"/>
<path d="M270 69.4331H266.75V89.5831H277.15V86.5498H270V69.4331Z" fill="#FD6F55"/>
<path d="M293.833 72.2498V69.4331H282.783V89.5831H293.833V86.5498H286.033V80.6998H293.616V77.8831H286.033V72.2498H293.833Z" fill="#FD6F55"/>
<g filter="url(#filter3_dd)">
<rect x="42" y="268" width="433" height="146" rx="5" fill="#6EC1B1"/>
</g>
<rect x="33.5" y="278.5" width="432" height="145" rx="4.5" fill="white" stroke="#5C998D"/>
<path d="M83.0515 305.324H94.9795V324H92.1235V308.012H85.9075V317.308C85.9075 318.204 85.8795 318.932 85.8235 319.492C85.7675 320.033 85.5902 320.649 85.2915 321.34C85.0115 322.031 84.6009 322.6 84.0595 323.048C83.1449 323.795 82.0155 324.168 80.6715 324.168C80.2795 324.168 79.8595 324.112 79.4115 324V321.368C79.7849 321.48 80.1302 321.536 80.4475 321.536C81.1382 321.536 81.6982 321.321 82.1275 320.892C82.4262 320.612 82.6409 320.192 82.7715 319.632C82.9209 319.053 83.0049 318.577 83.0235 318.204C83.0422 317.831 83.0515 317.252 83.0515 316.468V305.324ZM101.71 316.58H103.586C103.773 315.479 104.286 314.499 105.126 313.64C106.284 312.483 107.749 311.904 109.522 311.904C111.277 311.904 112.742 312.492 113.918 313.668C115.113 314.825 115.71 316.309 115.71 318.12C115.71 319.912 115.113 321.405 113.918 322.6C112.742 323.776 111.277 324.364 109.522 324.364C107.656 324.364 106.144 323.739 104.986 322.488C104.128 321.555 103.642 320.425 103.53 319.1H101.71V324H98.9665V312.212H101.71V316.58ZM111.93 315.32C111.277 314.685 110.474 314.368 109.522 314.368C108.57 314.368 107.768 314.685 107.114 315.32C106.461 315.955 106.134 316.897 106.134 318.148C106.134 319.399 106.461 320.341 107.114 320.976C107.768 321.592 108.57 321.9 109.522 321.9C110.474 321.9 111.277 321.592 111.93 320.976C112.584 320.341 112.91 319.399 112.91 318.148C112.91 316.897 112.584 315.955 111.93 315.32ZM127.476 304.12H130.276C130.071 305.091 129.641 305.931 128.988 306.64C128.335 307.349 127.532 307.835 126.58 308.096L124.732 308.6C124.247 308.731 123.873 308.843 123.612 308.936C123.351 309.029 123.024 309.207 122.632 309.468C122.259 309.711 121.941 310.009 121.68 310.364C121.064 311.185 120.737 312.249 120.7 313.556H120.728C121.549 312.455 122.884 311.904 124.732 311.904C126.393 311.904 127.765 312.464 128.848 313.584C129.987 314.76 130.556 316.253 130.556 318.064C130.556 319.893 129.949 321.405 128.736 322.6C127.541 323.776 126.048 324.364 124.256 324.364C122.464 324.364 121.027 323.841 119.944 322.796C119.347 322.236 118.889 321.545 118.572 320.724C118.255 319.903 118.068 319.231 118.012 318.708C117.975 318.167 117.956 317.513 117.956 316.748C117.956 313.089 118.553 310.392 119.748 308.656C120.644 307.331 121.82 306.491 123.276 306.136L125.236 305.66C126.524 305.343 127.271 304.829 127.476 304.12ZM121.708 320.892C122.343 321.564 123.192 321.9 124.256 321.9C125.32 321.9 126.169 321.564 126.804 320.892C127.439 320.201 127.756 319.287 127.756 318.148C127.756 316.897 127.411 315.955 126.72 315.32C126.048 314.685 125.227 314.368 124.256 314.368C123.285 314.368 122.455 314.685 121.764 315.32C121.092 315.955 120.756 316.897 120.756 318.148C120.756 319.287 121.073 320.201 121.708 320.892ZM134.596 313.668C135.809 312.492 137.312 311.904 139.104 311.904C140.896 311.904 142.389 312.492 143.584 313.668C144.797 314.825 145.404 316.309 145.404 318.12C145.404 319.912 144.797 321.405 143.584 322.6C142.389 323.776 140.896 324.364 139.104 324.364C137.312 324.364 135.809 323.776 134.596 322.6C133.401 321.405 132.804 319.912 132.804 318.12C132.804 316.309 133.401 314.825 134.596 313.668ZM136.556 320.892C137.19 321.564 138.04 321.9 139.104 321.9C140.168 321.9 141.017 321.564 141.652 320.892C142.286 320.201 142.604 319.287 142.604 318.148C142.604 316.897 142.258 315.955 141.568 315.32C140.896 314.685 140.074 314.368 139.104 314.368C138.133 314.368 137.302 314.685 136.612 315.32C135.94 315.955 135.604 316.897 135.604 318.148C135.604 319.287 135.921 320.201 136.556 320.892ZM148.267 312.212H151.011V318.904L159.075 311.148V324H156.331V317.14L148.267 324.896V312.212ZM149.163 307.116L151.403 306.472C151.758 307.685 152.523 308.292 153.699 308.292C154.857 308.292 155.622 307.685 155.995 306.472L158.235 307.116C157.937 308.18 157.33 309.001 156.415 309.58C155.519 310.14 154.614 310.42 153.699 310.42C152.785 310.42 151.87 310.14 150.955 309.58C150.059 309.001 149.462 308.18 149.163 307.116ZM169.076 312.212H179.324V324H176.58V314.732H171.82V324H169.076V312.212ZM185.546 322.628V330.412H182.802V312.212H185.546V313.5C186.442 312.436 187.609 311.904 189.046 311.904C190.652 311.904 192.005 312.473 193.106 313.612C194.226 314.732 194.786 316.207 194.786 318.036C194.786 319.921 194.208 321.452 193.05 322.628C191.893 323.785 190.568 324.364 189.074 324.364C187.674 324.364 186.498 323.785 185.546 322.628ZM188.71 314.368C187.777 314.368 186.984 314.704 186.33 315.376C185.696 316.029 185.378 316.963 185.378 318.176C185.378 319.352 185.696 320.267 186.33 320.92C186.984 321.573 187.777 321.9 188.71 321.9C189.681 321.9 190.465 321.536 191.062 320.808C191.678 320.08 191.986 319.193 191.986 318.148C191.986 317.084 191.678 316.188 191.062 315.46C190.465 314.732 189.681 314.368 188.71 314.368ZM205.91 320.024L208.206 321.312C207.683 322.245 207.021 322.964 206.218 323.468C205.303 324.065 204.146 324.364 202.746 324.364C201.103 324.364 199.778 323.86 198.77 322.852C197.613 321.695 197.034 320.192 197.034 318.344C197.034 316.403 197.659 314.788 198.91 313.5C199.974 312.436 201.29 311.904 202.858 311.904C204.389 311.904 205.649 312.417 206.638 313.444C207.739 314.583 208.29 316.244 208.29 318.428V318.764H199.834C199.909 319.753 200.245 320.547 200.842 321.144C201.346 321.648 202.046 321.9 202.942 321.9C203.67 321.9 204.295 321.704 204.818 321.312C205.247 320.976 205.611 320.547 205.91 320.024ZM200.03 316.524H205.49C205.378 315.871 205.098 315.339 204.65 314.928C204.165 314.48 203.549 314.256 202.802 314.256C202.018 314.256 201.374 314.508 200.87 315.012C200.459 315.385 200.179 315.889 200.03 316.524ZM212.166 312.212H221.014V321.48H222.806V327.36H220.286V324H212.054V327.36H209.534V321.48C210.486 321.424 211.205 320.911 211.69 319.94C212.007 319.249 212.166 318.213 212.166 316.832V312.212ZM218.27 321.48V314.732H214.798V317.868C214.798 319.567 214.341 320.771 213.426 321.48H218.27ZM224.775 312.212H235.023V324H232.279V314.732H227.519V324H224.775V312.212ZM241.246 322.628V330.412H238.502V312.212H241.246V313.5C242.142 312.436 243.308 311.904 244.746 311.904C246.351 311.904 247.704 312.473 248.806 313.612C249.926 314.732 250.486 316.207 250.486 318.036C250.486 319.921 249.907 321.452 248.75 322.628C247.592 323.785 246.267 324.364 244.774 324.364C243.374 324.364 242.198 323.785 241.246 322.628ZM244.41 314.368C243.476 314.368 242.683 314.704 242.03 315.376C241.395 316.029 241.078 316.963 241.078 318.176C241.078 319.352 241.395 320.267 242.03 320.92C242.683 321.573 243.476 321.9 244.41 321.9C245.38 321.9 246.164 321.536 246.762 320.808C247.378 320.08 247.686 319.193 247.686 318.148C247.686 317.084 247.378 316.188 246.762 315.46C246.164 314.732 245.38 314.368 244.41 314.368ZM253.349 312.212H256.093V318.904L264.157 311.148V324H261.413V317.14L253.349 324.896V312.212ZM267.623 324V312.212H270.367V316.58H275.239V312.212H277.983V324H275.239V319.1H270.367V324H267.623ZM281.459 312.212H284.203V318.904L292.267 311.148V324H289.523V317.14L281.459 324.896V312.212ZM294.388 324L297.244 311.148L302.116 320.136L306.988 311.148L309.844 324H307.044L305.868 318.092L302.116 324.896L298.364 318.092L297.188 324H294.388ZM320.598 313.584V312.212H323.342V324H320.598V322.768C319.684 323.832 318.508 324.364 317.07 324.364C315.334 324.364 313.944 323.748 312.898 322.516C311.872 321.284 311.358 319.809 311.358 318.092C311.358 316.225 311.909 314.732 313.01 313.612C314.13 312.473 315.493 311.904 317.098 311.904C318.573 311.904 319.74 312.464 320.598 313.584ZM317.434 314.368C316.464 314.368 315.67 314.732 315.054 315.46C314.457 316.188 314.158 317.084 314.158 318.148C314.158 319.193 314.457 320.08 315.054 320.808C315.67 321.536 316.464 321.9 317.434 321.9C318.368 321.9 319.152 321.573 319.786 320.92C320.44 320.267 320.766 319.352 320.766 318.176C320.766 316.963 320.44 316.029 319.786 315.376C319.152 314.704 318.368 314.368 317.434 314.368ZM334.942 314.732H331.498V324H328.754V314.732H325.31V312.212H334.942V314.732ZM344.871 320.024L347.167 321.312C346.644 322.245 345.982 322.964 345.179 323.468C344.264 324.065 343.107 324.364 341.707 324.364C340.064 324.364 338.739 323.86 337.731 322.852C336.574 321.695 335.995 320.192 335.995 318.344C335.995 316.403 336.62 314.788 337.871 313.5C338.935 312.436 340.251 311.904 341.819 311.904C343.35 311.904 344.61 312.417 345.599 313.444C346.7 314.583 347.251 316.244 347.251 318.428V318.764H338.795C338.87 319.753 339.206 320.547 339.803 321.144C340.307 321.648 341.007 321.9 341.903 321.9C342.631 321.9 343.256 321.704 343.779 321.312C344.208 320.976 344.572 320.547 344.871 320.024ZM338.991 316.524H344.451C344.339 315.871 344.059 315.339 343.611 314.928C343.126 314.48 342.51 314.256 341.763 314.256C340.979 314.256 340.335 314.508 339.831 315.012C339.42 315.385 339.14 315.889 338.991 316.524ZM359.807 312.212V324H357.063V314.732H353.591V319.408C353.591 320.864 353.217 321.993 352.471 322.796C351.519 323.86 350.231 324.261 348.607 324V321.48C349.409 321.667 350.053 321.489 350.539 320.948C350.819 320.612 350.959 320.099 350.959 319.408V312.212H359.807ZM363.271 324V312.212H366.015V316.384H367.583C368.087 316.384 368.498 316.403 368.815 316.44C369.132 316.459 369.515 316.561 369.963 316.748C370.411 316.935 370.803 317.215 371.139 317.588C371.755 318.279 372.063 319.137 372.063 320.164C372.063 321.34 371.708 322.283 370.999 322.992C370.682 323.309 370.299 323.552 369.851 323.72C369.422 323.869 369.058 323.953 368.759 323.972C368.479 323.991 368.078 324 367.555 324H363.271ZM366.015 321.648H367.275C367.947 321.648 368.423 321.564 368.703 321.396C369.114 321.097 369.319 320.696 369.319 320.192C369.319 319.669 369.123 319.277 368.731 319.016C368.432 318.829 367.956 318.736 367.303 318.736H366.015V321.648ZM381.017 312.212H383.761V318.904L391.825 311.148V324H389.081V317.14L381.017 324.896V312.212ZM404.979 312.212V324H402.235V314.732H398.763V319.408C398.763 320.864 398.389 321.993 397.643 322.796C396.691 323.86 395.403 324.261 393.779 324V321.48C394.581 321.667 395.225 321.489 395.711 320.948C395.991 320.612 396.131 320.099 396.131 319.408V312.212H404.979ZM408.443 312.212H411.187V318.904L419.251 311.148V324H416.507V317.14L408.443 324.896V312.212ZM103.847 347.212H106.591V351.412L110.511 347.212H114.151L108.999 352.364L114.431 359H110.959L107.039 354.156L106.591 354.604V359H103.847V347.212ZM117.137 348.668C118.35 347.492 119.853 346.904 121.645 346.904C123.437 346.904 124.93 347.492 126.125 348.668C127.338 349.825 127.945 351.309 127.945 353.12C127.945 354.912 127.338 356.405 126.125 357.6C124.93 358.776 123.437 359.364 121.645 359.364C119.853 359.364 118.35 358.776 117.137 357.6C115.942 356.405 115.345 354.912 115.345 353.12C115.345 351.309 115.942 349.825 117.137 348.668ZM119.097 355.892C119.731 356.564 120.581 356.9 121.645 356.9C122.709 356.9 123.558 356.564 124.193 355.892C124.827 355.201 125.145 354.287 125.145 353.148C125.145 351.897 124.799 350.955 124.109 350.32C123.437 349.685 122.615 349.368 121.645 349.368C120.674 349.368 119.843 349.685 119.153 350.32C118.481 350.955 118.145 351.897 118.145 353.148C118.145 354.287 118.462 355.201 119.097 355.892ZM129.464 359L132.32 346.148L137.192 355.136L142.064 346.148L144.92 359H142.12L140.944 353.092L137.192 359.896L133.44 353.092L132.264 359H129.464ZM147.05 347.212H157.298V359H154.554V349.732H149.794V359H147.05V347.212ZM169.401 348.584V347.212H172.145V359H169.401V357.768C168.486 358.832 167.31 359.364 165.873 359.364C164.137 359.364 162.746 358.748 161.701 357.516C160.674 356.284 160.161 354.809 160.161 353.092C160.161 351.225 160.712 349.732 161.813 348.612C162.933 347.473 164.296 346.904 165.901 346.904C167.376 346.904 168.542 347.464 169.401 348.584ZM166.237 349.368C165.266 349.368 164.473 349.732 163.857 350.46C163.26 351.188 162.961 352.084 162.961 353.148C162.961 354.193 163.26 355.08 163.857 355.808C164.473 356.536 165.266 356.9 166.237 356.9C167.17 356.9 167.954 356.573 168.589 355.92C169.242 355.267 169.569 354.352 169.569 353.176C169.569 351.963 169.242 351.029 168.589 350.376C167.954 349.704 167.17 349.368 166.237 349.368ZM175.625 359V347.212H178.369V351.58H183.241V347.212H185.985V359H183.241V354.1H178.369V359H175.625ZM189.461 347.212H192.205V353.904L200.269 346.148V359H197.525V352.14L189.461 359.896V347.212ZM202.222 359L205.918 354.324C205.19 354.212 204.565 353.913 204.042 353.428C203.389 352.793 203.062 351.981 203.062 350.992C203.062 349.872 203.426 348.967 204.154 348.276C204.901 347.567 206.039 347.212 207.57 347.212H211.966V359H209.222V354.66H208.662L205.442 359H202.222ZM209.222 352.42V349.564H207.626C206.973 349.564 206.497 349.648 206.198 349.816C205.75 350.096 205.526 350.488 205.526 350.992C205.526 351.496 205.713 351.879 206.086 352.14C206.366 352.327 206.87 352.42 207.598 352.42H209.222ZM221.972 347.212H226.592C227.768 347.212 228.664 347.445 229.28 347.912C230.008 348.491 230.372 349.247 230.372 350.18C230.372 351.244 229.906 352.009 228.972 352.476C229.57 352.588 230.102 352.849 230.568 353.26C231.184 353.82 231.492 354.576 231.492 355.528C231.492 356.667 231.063 357.563 230.204 358.216C229.495 358.739 228.59 359 227.488 359H221.972V347.212ZM224.716 351.804H226.116C226.602 351.804 226.966 351.72 227.208 351.552C227.563 351.328 227.74 351.011 227.74 350.6C227.74 350.208 227.582 349.9 227.264 349.676C227.04 349.527 226.639 349.452 226.06 349.452H224.716V351.804ZM224.716 356.76H226.76C227.376 356.76 227.852 356.648 228.188 356.424C228.562 356.181 228.748 355.836 228.748 355.388C228.748 354.903 228.571 354.557 228.216 354.352C227.899 354.147 227.442 354.044 226.844 354.044H224.716V356.76ZM250.022 347.744V350.824C249.033 349.853 247.922 349.368 246.69 349.368C245.645 349.368 244.777 349.713 244.086 350.404C243.414 351.076 243.078 351.981 243.078 353.12C243.078 354.296 243.433 355.239 244.142 355.948C244.814 356.583 245.645 356.9 246.634 356.9C247.997 356.9 249.126 356.396 250.022 355.388V358.44C249.033 359.056 247.838 359.364 246.438 359.364C244.553 359.364 243.06 358.785 241.958 357.628C240.838 356.471 240.278 354.996 240.278 353.204C240.278 351.356 240.876 349.835 242.07 348.64C243.228 347.483 244.805 346.904 246.802 346.904C247.941 346.904 249.014 347.184 250.022 347.744ZM261.045 349.732H257.601V359H254.857V349.732H251.413V347.212H261.045V349.732ZM265.759 357.628V365.412H263.015V347.212H265.759V348.5C266.655 347.436 267.822 346.904 269.259 346.904C270.865 346.904 272.218 347.473 273.319 348.612C274.439 349.732 274.999 351.207 274.999 353.036C274.999 354.921 274.421 356.452 273.263 357.628C272.106 358.785 270.781 359.364 269.287 359.364C267.887 359.364 266.711 358.785 265.759 357.628ZM268.923 349.368C267.99 349.368 267.197 349.704 266.543 350.376C265.909 351.029 265.591 351.963 265.591 353.176C265.591 354.352 265.909 355.267 266.543 355.92C267.197 356.573 267.99 356.9 268.923 356.9C269.894 356.9 270.678 356.536 271.275 355.808C271.891 355.08 272.199 354.193 272.199 353.148C272.199 352.084 271.891 351.188 271.275 350.46C270.678 349.732 269.894 349.368 268.923 349.368ZM286.487 348.584V347.212H289.231V359H286.487V357.768C285.572 358.832 284.396 359.364 282.959 359.364C281.223 359.364 279.832 358.748 278.787 357.516C277.76 356.284 277.247 354.809 277.247 353.092C277.247 351.225 277.798 349.732 278.899 348.612C280.019 347.473 281.382 346.904 282.987 346.904C284.462 346.904 285.628 347.464 286.487 348.584ZM283.323 349.368C282.352 349.368 281.559 349.732 280.943 350.46C280.346 351.188 280.047 352.084 280.047 353.148C280.047 354.193 280.346 355.08 280.943 355.808C281.559 356.536 282.352 356.9 283.323 356.9C284.256 356.9 285.04 356.573 285.675 355.92C286.328 355.267 286.655 354.352 286.655 353.176C286.655 351.963 286.328 351.029 285.675 350.376C285.04 349.704 284.256 349.368 283.323 349.368ZM292.711 359V347.212H295.455V351.58H300.327V347.212H303.071V359H300.327V354.1H295.455V359H292.711ZM314.807 355.024L317.103 356.312C316.58 357.245 315.917 357.964 315.115 358.468C314.2 359.065 313.043 359.364 311.643 359.364C310 359.364 308.675 358.86 307.667 357.852C306.509 356.695 305.931 355.192 305.931 353.344C305.931 351.403 306.556 349.788 307.807 348.5C308.871 347.436 310.187 346.904 311.755 346.904C313.285 346.904 314.545 347.417 315.535 348.444C316.636 349.583 317.187 351.244 317.187 353.428V353.764H308.731C308.805 354.753 309.141 355.547 309.739 356.144C310.243 356.648 310.943 356.9 311.839 356.9C312.567 356.9 313.192 356.704 313.715 356.312C314.144 355.976 314.508 355.547 314.807 355.024ZM308.927 351.524H314.387C314.275 350.871 313.995 350.339 313.547 349.928C313.061 349.48 312.445 349.256 311.699 349.256C310.915 349.256 310.271 349.508 309.767 350.012C309.356 350.385 309.076 350.889 308.927 351.524ZM326.814 354.296V351.776H340.254V354.296H326.814ZM350.992 340.324H353.82C355.089 340.324 356.116 340.427 356.9 340.632C357.684 340.837 358.375 341.22 358.972 341.78C359.961 342.713 360.456 343.945 360.456 345.476C360.456 346.353 360.269 347.091 359.896 347.688C359.56 348.267 359.093 348.696 358.496 348.976C359.467 349.219 360.269 349.667 360.904 350.32C361.725 351.179 362.136 352.345 362.136 353.82C362.136 355.183 361.725 356.303 360.904 357.18C359.747 358.393 358.001 359 355.668 359H350.992V340.324ZM353.848 343.012V348.36H354.716C355.761 348.36 356.536 348.117 357.04 347.632C357.525 347.165 357.768 346.456 357.768 345.504C357.768 344.739 357.544 344.141 357.096 343.712C356.611 343.245 355.855 343.012 354.828 343.012H353.848ZM353.848 350.712V356.312H355.584C356.872 356.312 357.815 356.069 358.412 355.584C359.028 355.099 359.336 354.408 359.336 353.512C359.336 352.709 359.084 352.056 358.58 351.552C358.001 350.992 357.021 350.712 355.64 350.712H353.848ZM373.85 348.584V347.212H376.594V359H373.85V357.768C372.936 358.832 371.76 359.364 370.322 359.364C368.586 359.364 367.196 358.748 366.15 357.516C365.124 356.284 364.61 354.809 364.61 353.092C364.61 351.225 365.161 349.732 366.262 348.612C367.382 347.473 368.745 346.904 370.35 346.904C371.825 346.904 372.992 347.464 373.85 348.584ZM370.686 349.368C369.716 349.368 368.922 349.732 368.306 350.46C367.709 351.188 367.41 352.084 367.41 353.148C367.41 354.193 367.709 355.08 368.306 355.808C368.922 356.536 369.716 356.9 370.686 356.9C371.62 356.9 372.404 356.573 373.038 355.92C373.692 355.267 374.018 354.352 374.018 353.176C374.018 351.963 373.692 351.029 373.038 350.376C372.404 349.704 371.62 349.368 370.686 349.368ZM380.074 359V347.212H382.818V356.48H386.738V347.212H389.482V356.48H393.402V347.212H396.146V359H380.074ZM120.91 382.212H131.158V394H128.414V384.732H123.654V394H120.91V382.212ZM135.812 383.668C137.026 382.492 138.528 381.904 140.32 381.904C142.112 381.904 143.606 382.492 144.8 383.668C146.014 384.825 146.62 386.309 146.62 388.12C146.62 389.912 146.014 391.405 144.8 392.6C143.606 393.776 142.112 394.364 140.32 394.364C138.528 394.364 137.026 393.776 135.812 392.6C134.618 391.405 134.02 389.912 134.02 388.12C134.02 386.309 134.618 384.825 135.812 383.668ZM137.772 390.892C138.407 391.564 139.256 391.9 140.32 391.9C141.384 391.9 142.234 391.564 142.868 390.892C143.503 390.201 143.82 389.287 143.82 388.148C143.82 386.897 143.475 385.955 142.784 385.32C142.112 384.685 141.291 384.368 140.32 384.368C139.35 384.368 138.519 384.685 137.828 385.32C137.156 385.955 136.82 386.897 136.82 388.148C136.82 389.287 137.138 390.201 137.772 390.892ZM157.604 384.732H154.16V394H151.416V384.732H147.972V382.212H157.604V384.732ZM167.533 390.024L169.829 391.312C169.306 392.245 168.644 392.964 167.841 393.468C166.926 394.065 165.769 394.364 164.369 394.364C162.726 394.364 161.401 393.86 160.393 392.852C159.236 391.695 158.657 390.192 158.657 388.344C158.657 386.403 159.282 384.788 160.533 383.5C161.597 382.436 162.913 381.904 164.481 381.904C166.012 381.904 167.272 382.417 168.261 383.444C169.362 384.583 169.913 386.244 169.913 388.428V388.764H161.457C161.532 389.753 161.868 390.547 162.465 391.144C162.969 391.648 163.669 391.9 164.565 391.9C165.293 391.9 165.918 391.704 166.441 391.312C166.87 390.976 167.234 390.547 167.533 390.024ZM161.653 386.524H167.113C167.001 385.871 166.721 385.339 166.273 384.928C165.788 384.48 165.172 384.256 164.425 384.256C163.641 384.256 162.997 384.508 162.493 385.012C162.082 385.385 161.802 385.889 161.653 386.524ZM172.781 394V382.212H175.525V386.58H180.397V382.212H183.141V394H180.397V389.1H175.525V394H172.781ZM186.617 394V382.212H189.361V391.48H194.009V382.212H196.753V391.48H198.713V397.36H196.193V394H186.617ZM200.672 382.212H203.416V388.904L211.48 381.148V394H208.736V387.14L200.672 394.896V382.212ZM223.569 383.584V382.212H226.313V394H223.569V392.768C222.654 393.832 221.478 394.364 220.041 394.364C218.305 394.364 216.914 393.748 215.869 392.516C214.842 391.284 214.329 389.809 214.329 388.092C214.329 386.225 214.88 384.732 215.981 383.612C217.101 382.473 218.464 381.904 220.069 381.904C221.544 381.904 222.71 382.464 223.569 383.584ZM220.405 384.368C219.434 384.368 218.641 384.732 218.025 385.46C217.428 386.188 217.129 387.084 217.129 388.148C217.129 389.193 217.428 390.08 218.025 390.808C218.641 391.536 219.434 391.9 220.405 391.9C221.338 391.9 222.122 391.573 222.757 390.92C223.41 390.267 223.737 389.352 223.737 388.176C223.737 386.963 223.41 386.029 222.757 385.376C222.122 384.704 221.338 384.368 220.405 384.368ZM239.481 382.212V394H236.737V384.732H233.265V389.408C233.265 390.864 232.891 391.993 232.145 392.796C231.193 393.86 229.905 394.261 228.281 394V391.48C229.083 391.667 229.727 391.489 230.213 390.948C230.493 390.612 230.633 390.099 230.633 389.408V382.212H239.481ZM242.945 394V382.212H245.689V386.384H247.257C247.761 386.384 248.172 386.403 248.489 386.44C248.806 386.459 249.189 386.561 249.637 386.748C250.085 386.935 250.477 387.215 250.813 387.588C251.429 388.279 251.737 389.137 251.737 390.164C251.737 391.34 251.382 392.283 250.673 392.992C250.356 393.309 249.973 393.552 249.525 393.72C249.096 393.869 248.732 393.953 248.433 393.972C248.153 393.991 247.752 394 247.229 394H242.945ZM245.689 391.648H246.949C247.621 391.648 248.097 391.564 248.377 391.396C248.788 391.097 248.993 390.696 248.993 390.192C248.993 389.669 248.797 389.277 248.405 389.016C248.106 388.829 247.63 388.736 246.977 388.736H245.689V391.648ZM254.156 394V382.212H256.9V386.58H261.772V382.212H264.516V394H261.772V389.1H256.9V394H254.156ZM267.992 394V382.212H270.736V386.384H272.304C272.808 386.384 273.219 386.403 273.536 386.44C273.853 386.459 274.236 386.561 274.684 386.748C275.132 386.935 275.524 387.215 275.86 387.588C276.476 388.279 276.784 389.137 276.784 390.164C276.784 391.34 276.429 392.283 275.72 392.992C275.403 393.309 275.02 393.552 274.572 393.72C274.143 393.869 273.779 393.953 273.48 393.972C273.2 393.991 272.799 394 272.276 394H267.992ZM270.736 391.648H271.996C272.668 391.648 273.144 391.564 273.424 391.396C273.835 391.097 274.04 390.696 274.04 390.192C274.04 389.669 273.844 389.277 273.452 389.016C273.153 388.829 272.677 388.736 272.024 388.736H270.736V391.648ZM278.016 394V382.212H280.76V394H278.016ZM284.234 382.212H286.978V388.904L295.042 381.148V394H292.298V387.14L284.234 394.896V382.212ZM285.13 377.116L287.37 376.472C287.725 377.685 288.49 378.292 289.666 378.292C290.823 378.292 291.589 377.685 291.962 376.472L294.202 377.116C293.903 378.18 293.297 379.001 292.382 379.58C291.486 380.14 290.581 380.42 289.666 380.42C288.751 380.42 287.837 380.14 286.922 379.58C286.026 379.001 285.429 378.18 285.13 377.116ZM305.043 382.212H307.787V386.412L311.707 382.212H315.347L310.195 387.364L315.627 394H312.155L308.235 389.156L307.787 389.604V394H305.043V382.212ZM327.391 382.212V394H324.647V384.732H321.175V389.408C321.175 390.864 320.801 391.993 320.055 392.796C319.103 393.86 317.815 394.261 316.191 394V391.48C316.993 391.667 317.637 391.489 318.123 390.948C318.403 390.612 318.543 390.099 318.543 389.408V382.212H327.391ZM330.855 382.212H333.599V388.904L341.663 381.148V394H338.919V387.14L330.855 394.896V382.212ZM353.389 390.024L355.685 391.312C355.162 392.245 354.499 392.964 353.697 393.468C352.782 394.065 351.625 394.364 350.225 394.364C348.582 394.364 347.257 393.86 346.249 392.852C345.091 391.695 344.513 390.192 344.513 388.344C344.513 386.403 345.138 384.788 346.389 383.5C347.453 382.436 348.769 381.904 350.337 381.904C351.867 381.904 353.127 382.417 354.117 383.444C355.218 384.583 355.769 386.244 355.769 388.428V388.764H347.313C347.387 389.753 347.723 390.547 348.321 391.144C348.825 391.648 349.525 391.9 350.421 391.9C351.149 391.9 351.774 391.704 352.297 391.312C352.726 390.976 353.09 390.547 353.389 390.024ZM347.509 386.524H352.969C352.857 385.871 352.577 385.339 352.129 384.928C351.643 384.48 351.027 384.256 350.281 384.256C349.497 384.256 348.853 384.508 348.349 385.012C347.938 385.385 347.658 385.889 347.509 386.524ZM358.636 394V382.212H361.38V386.58H366.252V382.212H368.996V394H366.252V389.1H361.38V394H358.636ZM380.592 384.732H377.148V394H374.404V384.732H370.96V382.212H380.592V384.732Z" fill="#475762"/>
<defs>
<filter id="filter0_dd" x="629" y="132.255" width="151.025" height="151.037" filterUnits="userSpaceOnUse" color-interpolation-filters="sRGB">
<feFlood flood-opacity="0" result="BackgroundImageFix"/>
<feColorMatrix in="SourceAlpha" type="matrix" values="0 0 0 0 0 0 0 0 0 0 0 0 0 0 0 0 0 0 127 0"/>
<feOffset dx="7" dy="5"/>
<feGaussianBlur stdDeviation="10.5"/>
<feColorMatrix type="matrix" values="0 0 0 0 0 0 0 0 0 0 0 0 0 0 0 0 0 0 0.05 0"/>
<feBlend mode="normal" in2="BackgroundImageFix" result="effect1_dropShadow"/>
<feColorMatrix in="SourceAlpha" type="matrix" values="0 0 0 0 0 0 0 0 0 0 0 0 0 0 0 0 0 0 127 0"/>
<feOffset dx="3" dy="3"/>
<feGaussianBlur stdDeviation="1.5"/>
<feColorMatrix type="matrix" values="0 0 0 0 0 0 0 0 0 0 0 0 0 0 0 0 0 0 0.03 0"/>
<feBlend mode="normal" in2="effect1_dropShadow" result="effect2_dropShadow"/>
<feBlend mode="normal" in="SourceGraphic" in2="effect2_dropShadow" result="shape"/>
</filter>
<filter id="filter1_dd" x="211" y="51" width="508" height="374" filterUnits="userSpaceOnUse" color-interpolation-filters="sRGB">
<feFlood flood-opacity="0" result="BackgroundImageFix"/>
<feColorMatrix in="SourceAlpha" type="matrix" values="0 0 0 0 0 0 0 0 0 0 0 0 0 0 0 0 0 0 127 0"/>
<feOffset dx="9" dy="12"/>
<feGaussianBlur stdDeviation="12"/>
<feColorMatrix type="matrix" values="0 0 0 0 0 0 0 0 0 0 0 0 0 0 0 0 0 0 0.07 0"/>
<feBlend mode="normal" in2="BackgroundImageFix" result="effect1_dropShadow"/>
<feColorMatrix in="SourceAlpha" type="matrix" values="0 0 0 0 0 0 0 0 0 0 0 0 0 0 0 0 0 0 127 0"/>
<feOffset dy="3"/>
<feGaussianBlur stdDeviation="1.5"/>
<feColorMatrix type="matrix" values="0 0 0 0 0 0 0 0 0 0 0 0 0 0 0 0 0 0 0.03 0"/>
<feBlend mode="normal" in2="effect1_dropShadow" result="effect2_dropShadow"/>
<feBlend mode="normal" in="SourceGraphic" in2="effect2_dropShadow" result="shape"/>
</filter>
<filter id="filter2_dd" x="171" y="0" width="197" height="184" filterUnits="userSpaceOnUse" color-interpolation-filters="sRGB">
<feFlood flood-opacity="0" result="BackgroundImageFix"/>
<feColorMatrix in="SourceAlpha" type="matrix" values="0 0 0 0 0 0 0 0 0 0 0 0 0 0 0 0 0 0 127 0"/>
<feOffset dx="9" dy="12"/>
<feGaussianBlur stdDeviation="12"/>
<feColorMatrix type="matrix" values="0 0 0 0 0 0 0 0 0 0 0 0 0 0 0 0 0 0 0.07 0"/>
<feBlend mode="normal" in2="BackgroundImageFix" result="effect1_dropShadow"/>
<feColorMatrix in="SourceAlpha" type="matrix" values="0 0 0 0 0 0 0 0 0 0 0 0 0 0 0 0 0 0 127 0"/>
<feOffset dy="3"/>
<feGaussianBlur stdDeviation="1.5"/>
<feColorMatrix type="matrix" values="0 0 0 0 0 0 0 0 0 0 0 0 0 0 0 0 0 0 0.03 0"/>
<feBlend mode="normal" in2="effect1_dropShadow" result="effect2_dropShadow"/>
<feBlend mode="normal" in="SourceGraphic" in2="effect2_dropShadow" result="shape"/>
</filter>
<filter id="filter3_dd" x="27" y="256" width="481" height="194" filterUnits="userSpaceOnUse" color-interpolation-filters="sRGB">
<feFlood flood-opacity="0" result="BackgroundImageFix"/>
<feColorMatrix in="SourceAlpha" type="matrix" values="0 0 0 0 0 0 0 0 0 0 0 0 0 0 0 0 0 0 127 0"/>
<feOffset dx="9" dy="12"/>
<feGaussianBlur stdDeviation="12"/>
<feColorMatrix type="matrix" values="0 0 0 0 0 0 0 0 0 0 0 0 0 0 0 0 0 0 0.07 0"/>
<feBlend mode="normal" in2="BackgroundImageFix" result="effect1_dropShadow"/>
<feColorMatrix in="SourceAlpha" type="matrix" values="0 0 0 0 0 0 0 0 0 0 0 0 0 0 0 0 0 0 127 0"/>
<feOffset dy="3"/>
<feGaussianBlur stdDeviation="1.5"/>
<feColorMatrix type="matrix" values="0 0 0 0 0 0 0 0 0 0 0 0 0 0 0 0 0 0 0.03 0"/>
<feBlend mode="normal" in2="effect1_dropShadow" result="effect2_dropShadow"/>
<feBlend mode="normal" in="SourceGraphic" in2="effect2_dropShadow" result="shape"/>
</filter>
<clipPath id="clip0">
<rect width="107" height="107" fill="white" transform="translate(547 88)"/>
</clipPath>
<clipPath id="clip1">
<rect width="78" height="78" fill="white" transform="translate(550 273)"/>
</clipPath>
</defs>
</svg>
