<svg width="682" height="401" viewBox="0 0 682 401" fill="none" xmlns="http://www.w3.org/2000/svg">
<g filter="url(#filter0_dd)">
<rect x="50" y="51" width="351" height="261" rx="5" fill="#B8E7DE"/>
</g>
<path d="M304.457 201.692H307.186V204.427H304.457V201.692Z" fill="#BABABA"/>
<path d="M304.457 101.383H307.186V104.119H304.457V101.383Z" fill="#BABABA"/>
<path d="M314.462 201.692H317.19V204.427H314.462V201.692Z" fill="#BABABA"/>
<path d="M314.462 101.383H317.19V104.119H314.462V101.383Z" fill="#BABABA"/>
<path d="M324.466 201.692H327.195V204.427H324.466V201.692Z" fill="#BABABA"/>
<path d="M324.466 101.383H327.195V104.119H324.466V101.383Z" fill="#BABABA"/>
<path d="M334.471 201.692H337.199V204.427H334.471V201.692Z" fill="#BABABA"/>
<path d="M334.471 101.383H337.199V104.119H334.471V101.383Z" fill="#BABABA"/>
<path d="M344.475 201.692H347.204V204.427H344.475V201.692Z" fill="#BABABA"/>
<path d="M344.475 101.383H347.204V104.119H344.475V101.383Z" fill="#BABABA"/>
<path d="M354.48 201.692H357.208V204.427H354.48V201.692Z" fill="#BABABA"/>
<path d="M354.48 101.383H357.208V104.119H354.48V101.383Z" fill="#BABABA"/>
<path d="M364.484 201.692H367.213V204.427H364.484V201.692Z" fill="#BABABA"/>
<path d="M364.484 101.383H367.213V104.119H364.484V101.383Z" fill="#BABABA"/>
<path d="M374.489 201.692H377.217V204.427H374.489V201.692Z" fill="#BABABA"/>
<path d="M374.489 101.383H377.217V104.119H374.489V101.383Z" fill="#BABABA"/>
<path d="M384.493 201.692H387.222V204.427H384.493V201.692Z" fill="#BABABA"/>
<path d="M384.493 101.383H387.222V104.119H384.493V101.383Z" fill="#BABABA"/>
<path d="M394.498 201.692H397.226V204.427H394.498V201.692Z" fill="#BABABA"/>
<path d="M394.498 101.383H397.226V104.119H394.498V101.383Z" fill="#BABABA"/>
<path d="M404.502 201.692H407.231V204.427H404.502V201.692Z" fill="#BABABA"/>
<path d="M404.502 101.383H407.231V104.119H404.502V101.383Z" fill="#BABABA"/>
<path d="M414.507 201.692H417.235V204.427H414.507V201.692Z" fill="#BABABA"/>
<path d="M414.507 101.383H417.235V104.119H414.507V101.383Z" fill="#BABABA"/>
<path d="M424.511 201.692H427.24V204.427H424.511V201.692Z" fill="#BABABA"/>
<path d="M424.511 101.383H427.24V104.119H424.511V101.383Z" fill="#BABABA"/>
<path d="M434.516 201.692H437.244V204.427H434.516V201.692Z" fill="#BABABA"/>
<path d="M434.516 101.383H437.244V104.119H434.516V101.383Z" fill="#BABABA"/>
<path d="M444.52 201.692H447.249V204.427H444.52V201.692Z" fill="#BABABA"/>
<path d="M444.52 101.383H447.249V104.119H444.52V101.383Z" fill="#BABABA"/>
<path d="M454.525 201.692H457.253V204.427H454.525V201.692Z" fill="#BABABA"/>
<path d="M454.525 101.383H457.253V104.119H454.525V101.383Z" fill="#BABABA"/>
<path d="M464.529 201.692H467.258V204.427H464.529V201.692Z" fill="#BABABA"/>
<path d="M464.529 101.383H467.258V104.119H464.529V101.383Z" fill="#BABABA"/>
<path d="M474.534 201.692H477.262V204.427H474.534V201.692Z" fill="#BABABA"/>
<path d="M474.534 101.383H477.262V104.119H474.534V101.383Z" fill="#BABABA"/>
<path d="M484.538 201.692H487.267V204.427H484.538V201.692Z" fill="#BABABA"/>
<path d="M484.538 101.383H487.267V104.119H484.538V101.383Z" fill="#BABABA"/>
<path d="M494.543 201.692H497.272V204.427H494.543V201.692Z" fill="#BABABA"/>
<path d="M494.543 101.383H497.272V104.119H494.543V101.383Z" fill="#BABABA"/>
<path d="M304.457 210.811H307.186V213.546H304.457V210.811Z" fill="#BABABA"/>
<path d="M304.457 110.502H307.186V113.238H304.457V110.502Z" fill="#BABABA"/>
<path d="M314.462 210.811H317.19V213.546H314.462V210.811Z" fill="#BABABA"/>
<path d="M314.462 110.502H317.19V113.238H314.462V110.502Z" fill="#BABABA"/>
<path d="M324.466 210.811H327.195V213.546H324.466V210.811Z" fill="#BABABA"/>
<path d="M324.466 110.502H327.195V113.238H324.466V110.502Z" fill="#BABABA"/>
<path d="M334.471 210.811H337.199V213.546H334.471V210.811Z" fill="#BABABA"/>
<path d="M334.471 110.502H337.199V113.238H334.471V110.502Z" fill="#BABABA"/>
<path d="M344.475 210.811H347.204V213.546H344.475V210.811Z" fill="#BABABA"/>
<path d="M344.475 110.502H347.204V113.238H344.475V110.502Z" fill="#BABABA"/>
<path d="M354.48 210.811H357.208V213.546H354.48V210.811Z" fill="#BABABA"/>
<path d="M354.48 110.502H357.208V113.238H354.48V110.502Z" fill="#BABABA"/>
<path d="M364.484 210.811H367.213V213.546H364.484V210.811Z" fill="#BABABA"/>
<path d="M364.484 110.502H367.213V113.238H364.484V110.502Z" fill="#BABABA"/>
<path d="M374.489 210.811H377.217V213.546H374.489V210.811Z" fill="#BABABA"/>
<path d="M374.489 110.502H377.217V113.238H374.489V110.502Z" fill="#BABABA"/>
<path d="M384.493 210.811H387.222V213.546H384.493V210.811Z" fill="#BABABA"/>
<path d="M384.493 110.502H387.222V113.238H384.493V110.502Z" fill="#BABABA"/>
<path d="M394.498 210.811H397.226V213.546H394.498V210.811Z" fill="#BABABA"/>
<path d="M394.498 110.502H397.226V113.238H394.498V110.502Z" fill="#BABABA"/>
<path d="M404.502 210.811H407.231V213.546H404.502V210.811Z" fill="#BABABA"/>
<path d="M404.502 110.502H407.231V113.238H404.502V110.502Z" fill="#BABABA"/>
<path d="M414.507 210.811H417.235V213.546H414.507V210.811Z" fill="#BABABA"/>
<path d="M414.507 110.502H417.235V113.238H414.507V110.502Z" fill="#BABABA"/>
<path d="M424.511 210.811H427.24V213.546H424.511V210.811Z" fill="#BABABA"/>
<path d="M424.511 110.502H427.24V113.238H424.511V110.502Z" fill="#BABABA"/>
<path d="M434.516 210.811H437.244V213.546H434.516V210.811Z" fill="#BABABA"/>
<path d="M434.516 110.502H437.244V113.238H434.516V110.502Z" fill="#BABABA"/>
<path d="M444.52 210.811H447.249V213.546H444.52V210.811Z" fill="#BABABA"/>
<path d="M444.52 110.502H447.249V113.238H444.52V110.502Z" fill="#BABABA"/>
<path d="M454.525 210.811H457.253V213.546H454.525V210.811Z" fill="#BABABA"/>
<path d="M454.525 110.502H457.253V113.238H454.525V110.502Z" fill="#BABABA"/>
<path d="M464.529 210.811H467.258V213.546H464.529V210.811Z" fill="#BABABA"/>
<path d="M464.529 110.502H467.258V113.238H464.529V110.502Z" fill="#BABABA"/>
<path d="M474.534 210.811H477.262V213.546H474.534V210.811Z" fill="#BABABA"/>
<path d="M474.534 110.502H477.262V113.238H474.534V110.502Z" fill="#BABABA"/>
<path d="M484.538 210.811H487.267V213.546H484.538V210.811Z" fill="#BABABA"/>
<path d="M484.538 110.502H487.267V113.238H484.538V110.502Z" fill="#BABABA"/>
<path d="M494.543 210.811H497.272V213.546H494.543V210.811Z" fill="#BABABA"/>
<path d="M494.543 110.502H497.272V113.238H494.543V110.502Z" fill="#BABABA"/>
<path d="M304.457 219.929H307.186V222.665H304.457V219.929Z" fill="#BABABA"/>
<path d="M304.457 119.621H307.186V122.357H304.457V119.621Z" fill="#BABABA"/>
<path d="M314.462 219.929H317.19V222.665H314.462V219.929Z" fill="#BABABA"/>
<path d="M314.462 119.621H317.19V122.357H314.462V119.621Z" fill="#BABABA"/>
<path d="M324.466 219.929H327.195V222.665H324.466V219.929Z" fill="#BABABA"/>
<path d="M324.466 119.621H327.195V122.357H324.466V119.621Z" fill="#BABABA"/>
<path d="M334.471 219.929H337.199V222.665H334.471V219.929Z" fill="#BABABA"/>
<path d="M334.471 119.621H337.199V122.357H334.471V119.621Z" fill="#BABABA"/>
<path d="M344.475 219.929H347.204V222.665H344.475V219.929Z" fill="#BABABA"/>
<path d="M344.475 119.621H347.204V122.357H344.475V119.621Z" fill="#BABABA"/>
<path d="M354.48 219.929H357.208V222.665H354.48V219.929Z" fill="#BABABA"/>
<path d="M354.48 119.621H357.208V122.357H354.48V119.621Z" fill="#BABABA"/>
<path d="M364.484 219.929H367.213V222.665H364.484V219.929Z" fill="#BABABA"/>
<path d="M364.484 119.621H367.213V122.357H364.484V119.621Z" fill="#BABABA"/>
<path d="M374.489 219.929H377.217V222.665H374.489V219.929Z" fill="#BABABA"/>
<path d="M374.489 119.621H377.217V122.357H374.489V119.621Z" fill="#BABABA"/>
<path d="M384.493 219.929H387.222V222.665H384.493V219.929Z" fill="#BABABA"/>
<path d="M384.493 119.621H387.222V122.357H384.493V119.621Z" fill="#BABABA"/>
<path d="M394.498 219.929H397.226V222.665H394.498V219.929Z" fill="#BABABA"/>
<path d="M394.498 119.621H397.226V122.357H394.498V119.621Z" fill="#BABABA"/>
<path d="M404.502 219.929H407.231V222.665H404.502V219.929Z" fill="#BABABA"/>
<path d="M404.502 119.621H407.231V122.357H404.502V119.621Z" fill="#BABABA"/>
<path d="M414.507 219.929H417.235V222.665H414.507V219.929Z" fill="#BABABA"/>
<path d="M414.507 119.621H417.235V122.357H414.507V119.621Z" fill="#BABABA"/>
<path d="M424.511 219.929H427.24V222.665H424.511V219.929Z" fill="#BABABA"/>
<path d="M424.511 119.621H427.24V122.357H424.511V119.621Z" fill="#BABABA"/>
<path d="M434.516 219.929H437.244V222.665H434.516V219.929Z" fill="#BABABA"/>
<path d="M434.516 119.621H437.244V122.357H434.516V119.621Z" fill="#BABABA"/>
<path d="M444.52 219.929H447.249V222.665H444.52V219.929Z" fill="#BABABA"/>
<path d="M444.52 119.621H447.249V122.357H444.52V119.621Z" fill="#BABABA"/>
<path d="M454.525 219.929H457.253V222.665H454.525V219.929Z" fill="#BABABA"/>
<path d="M454.525 119.621H457.253V122.357H454.525V119.621Z" fill="#BABABA"/>
<path d="M464.529 219.929H467.258V222.665H464.529V219.929Z" fill="#BABABA"/>
<path d="M464.529 119.621H467.258V122.357H464.529V119.621Z" fill="#BABABA"/>
<path d="M474.534 219.929H477.262V222.665H474.534V219.929Z" fill="#BABABA"/>
<path d="M474.534 119.621H477.262V122.357H474.534V119.621Z" fill="#BABABA"/>
<path d="M484.538 219.929H487.267V222.665H484.538V219.929Z" fill="#BABABA"/>
<path d="M484.538 119.621H487.267V122.357H484.538V119.621Z" fill="#BABABA"/>
<path d="M494.543 219.929H497.272V222.665H494.543V219.929Z" fill="#BABABA"/>
<path d="M494.543 119.621H497.272V122.357H494.543V119.621Z" fill="#BABABA"/>
<path d="M304.457 229.048H307.186V231.784H304.457V229.048Z" fill="#BABABA"/>
<path d="M304.457 128.74H307.186V131.476H304.457V128.74Z" fill="#BABABA"/>
<path d="M314.462 229.048H317.19V231.784H314.462V229.048Z" fill="#BABABA"/>
<path d="M314.462 128.74H317.19V131.476H314.462V128.74Z" fill="#BABABA"/>
<path d="M324.466 229.048H327.195V231.784H324.466V229.048Z" fill="#BABABA"/>
<path d="M324.466 128.74H327.195V131.476H324.466V128.74Z" fill="#BABABA"/>
<path d="M334.471 229.048H337.199V231.784H334.471V229.048Z" fill="#BABABA"/>
<path d="M334.471 128.74H337.199V131.476H334.471V128.74Z" fill="#BABABA"/>
<path d="M344.475 229.048H347.204V231.784H344.475V229.048Z" fill="#BABABA"/>
<path d="M344.475 128.74H347.204V131.476H344.475V128.74Z" fill="#BABABA"/>
<path d="M354.48 229.048H357.208V231.784H354.48V229.048Z" fill="#BABABA"/>
<path d="M354.48 128.74H357.208V131.476H354.48V128.74Z" fill="#BABABA"/>
<path d="M364.484 229.048H367.213V231.784H364.484V229.048Z" fill="#BABABA"/>
<path d="M364.484 128.74H367.213V131.476H364.484V128.74Z" fill="#BABABA"/>
<path d="M374.489 229.048H377.217V231.784H374.489V229.048Z" fill="#BABABA"/>
<path d="M374.489 128.74H377.217V131.476H374.489V128.74Z" fill="#BABABA"/>
<path d="M384.493 229.048H387.222V231.784H384.493V229.048Z" fill="#BABABA"/>
<path d="M384.493 128.74H387.222V131.476H384.493V128.74Z" fill="#BABABA"/>
<path d="M394.498 229.048H397.226V231.784H394.498V229.048Z" fill="#BABABA"/>
<path d="M394.498 128.74H397.226V131.476H394.498V128.74Z" fill="#BABABA"/>
<path d="M404.502 229.048H407.231V231.784H404.502V229.048Z" fill="#BABABA"/>
<path d="M404.502 128.74H407.231V131.476H404.502V128.74Z" fill="#BABABA"/>
<path d="M414.507 229.048H417.235V231.784H414.507V229.048Z" fill="#BABABA"/>
<path d="M414.507 128.74H417.235V131.476H414.507V128.74Z" fill="#BABABA"/>
<path d="M424.511 229.048H427.24V231.784H424.511V229.048Z" fill="#BABABA"/>
<path d="M424.511 128.74H427.24V131.476H424.511V128.74Z" fill="#BABABA"/>
<path d="M434.516 229.048H437.244V231.784H434.516V229.048Z" fill="#BABABA"/>
<path d="M434.516 128.74H437.244V131.476H434.516V128.74Z" fill="#BABABA"/>
<path d="M444.52 229.048H447.249V231.784H444.52V229.048Z" fill="#BABABA"/>
<path d="M444.52 128.74H447.249V131.476H444.52V128.74Z" fill="#BABABA"/>
<path d="M454.525 229.048H457.253V231.784H454.525V229.048Z" fill="#BABABA"/>
<path d="M454.525 128.74H457.253V131.476H454.525V128.74Z" fill="#BABABA"/>
<path d="M464.529 229.048H467.258V231.784H464.529V229.048Z" fill="#BABABA"/>
<path d="M464.529 128.74H467.258V131.476H464.529V128.74Z" fill="#BABABA"/>
<path d="M474.534 229.048H477.262V231.784H474.534V229.048Z" fill="#BABABA"/>
<path d="M474.534 128.74H477.262V131.476H474.534V128.74Z" fill="#BABABA"/>
<path d="M484.538 229.048H487.267V231.784H484.538V229.048Z" fill="#BABABA"/>
<path d="M484.538 128.74H487.267V131.476H484.538V128.74Z" fill="#BABABA"/>
<path d="M494.543 229.048H497.272V231.784H494.543V229.048Z" fill="#BABABA"/>
<path d="M494.543 128.74H497.272V131.476H494.543V128.74Z" fill="#BABABA"/>
<path d="M304.457 238.167H307.186V240.903H304.457V238.167Z" fill="#BABABA"/>
<path d="M304.457 137.859H307.186V140.595H304.457V137.859Z" fill="#BABABA"/>
<path d="M314.462 238.167H317.19V240.903H314.462V238.167Z" fill="#BABABA"/>
<path d="M314.462 137.859H317.19V140.595H314.462V137.859Z" fill="#BABABA"/>
<path d="M324.466 238.167H327.195V240.903H324.466V238.167Z" fill="#BABABA"/>
<path d="M324.466 137.859H327.195V140.595H324.466V137.859Z" fill="#BABABA"/>
<path d="M334.471 238.167H337.199V240.903H334.471V238.167Z" fill="#BABABA"/>
<path d="M334.471 137.859H337.199V140.595H334.471V137.859Z" fill="#BABABA"/>
<path d="M344.475 238.167H347.204V240.903H344.475V238.167Z" fill="#BABABA"/>
<path d="M344.475 137.859H347.204V140.595H344.475V137.859Z" fill="#BABABA"/>
<path d="M354.48 238.167H357.208V240.903H354.48V238.167Z" fill="#BABABA"/>
<path d="M354.48 137.859H357.208V140.595H354.48V137.859Z" fill="#BABABA"/>
<path d="M364.484 238.167H367.213V240.903H364.484V238.167Z" fill="#BABABA"/>
<path d="M364.484 137.859H367.213V140.595H364.484V137.859Z" fill="#BABABA"/>
<path d="M374.489 238.167H377.217V240.903H374.489V238.167Z" fill="#BABABA"/>
<path d="M374.489 137.859H377.217V140.595H374.489V137.859Z" fill="#BABABA"/>
<path d="M384.493 238.167H387.222V240.903H384.493V238.167Z" fill="#BABABA"/>
<path d="M384.493 137.859H387.222V140.595H384.493V137.859Z" fill="#BABABA"/>
<path d="M394.498 238.167H397.226V240.903H394.498V238.167Z" fill="#BABABA"/>
<path d="M394.498 137.859H397.226V140.595H394.498V137.859Z" fill="#BABABA"/>
<path d="M404.502 238.167H407.231V240.903H404.502V238.167Z" fill="#BABABA"/>
<path d="M404.502 137.859H407.231V140.595H404.502V137.859Z" fill="#BABABA"/>
<path d="M414.507 238.167H417.235V240.903H414.507V238.167Z" fill="#BABABA"/>
<path d="M414.507 137.859H417.235V140.595H414.507V137.859Z" fill="#BABABA"/>
<path d="M424.511 238.167H427.24V240.903H424.511V238.167Z" fill="#BABABA"/>
<path d="M424.511 137.859H427.24V140.595H424.511V137.859Z" fill="#BABABA"/>
<path d="M434.516 238.167H437.244V240.903H434.516V238.167Z" fill="#BABABA"/>
<path d="M434.516 137.859H437.244V140.595H434.516V137.859Z" fill="#BABABA"/>
<path d="M444.52 238.167H447.249V240.903H444.52V238.167Z" fill="#BABABA"/>
<path d="M444.52 137.859H447.249V140.595H444.52V137.859Z" fill="#BABABA"/>
<path d="M454.525 238.167H457.253V240.903H454.525V238.167Z" fill="#BABABA"/>
<path d="M454.525 137.859H457.253V140.595H454.525V137.859Z" fill="#BABABA"/>
<path d="M464.529 238.167H467.258V240.903H464.529V238.167Z" fill="#BABABA"/>
<path d="M464.529 137.859H467.258V140.595H464.529V137.859Z" fill="#BABABA"/>
<path d="M474.534 238.167H477.262V240.903H474.534V238.167Z" fill="#BABABA"/>
<path d="M474.534 137.859H477.262V140.595H474.534V137.859Z" fill="#BABABA"/>
<path d="M484.538 238.167H487.267V240.903H484.538V238.167Z" fill="#BABABA"/>
<path d="M484.538 137.859H487.267V140.595H484.538V137.859Z" fill="#BABABA"/>
<path d="M494.543 238.167H497.272V240.903H494.543V238.167Z" fill="#BABABA"/>
<path d="M494.543 137.859H497.272V140.595H494.543V137.859Z" fill="#BABABA"/>
<path d="M304.457 247.286H307.186V250.022H304.457V247.286Z" fill="#BABABA"/>
<path d="M304.457 146.978H307.186V149.714H304.457V146.978Z" fill="#BABABA"/>
<path d="M314.462 247.286H317.19V250.022H314.462V247.286Z" fill="#BABABA"/>
<path d="M314.462 146.978H317.19V149.714H314.462V146.978Z" fill="#BABABA"/>
<path d="M324.466 247.286H327.195V250.022H324.466V247.286Z" fill="#BABABA"/>
<path d="M324.466 146.978H327.195V149.714H324.466V146.978Z" fill="#BABABA"/>
<path d="M334.471 247.286H337.199V250.022H334.471V247.286Z" fill="#BABABA"/>
<path d="M334.471 146.978H337.199V149.714H334.471V146.978Z" fill="#BABABA"/>
<path d="M344.475 247.286H347.204V250.022H344.475V247.286Z" fill="#BABABA"/>
<path d="M344.475 146.978H347.204V149.714H344.475V146.978Z" fill="#BABABA"/>
<path d="M354.48 247.286H357.208V250.022H354.48V247.286Z" fill="#BABABA"/>
<path d="M354.48 146.978H357.208V149.714H354.48V146.978Z" fill="#BABABA"/>
<path d="M364.484 247.286H367.213V250.022H364.484V247.286Z" fill="#BABABA"/>
<path d="M364.484 146.978H367.213V149.714H364.484V146.978Z" fill="#BABABA"/>
<path d="M374.489 247.286H377.217V250.022H374.489V247.286Z" fill="#BABABA"/>
<path d="M374.489 146.978H377.217V149.714H374.489V146.978Z" fill="#BABABA"/>
<path d="M384.493 247.286H387.222V250.022H384.493V247.286Z" fill="#BABABA"/>
<path d="M384.493 146.978H387.222V149.714H384.493V146.978Z" fill="#BABABA"/>
<path d="M394.498 247.286H397.226V250.022H394.498V247.286Z" fill="#BABABA"/>
<path d="M394.498 146.978H397.226V149.714H394.498V146.978Z" fill="#BABABA"/>
<path d="M404.502 247.286H407.231V250.022H404.502V247.286Z" fill="#BABABA"/>
<path d="M404.502 146.978H407.231V149.714H404.502V146.978Z" fill="#BABABA"/>
<path d="M414.507 247.286H417.235V250.022H414.507V247.286Z" fill="#BABABA"/>
<path d="M414.507 146.978H417.235V149.714H414.507V146.978Z" fill="#BABABA"/>
<path d="M424.511 247.286H427.24V250.022H424.511V247.286Z" fill="#BABABA"/>
<path d="M424.511 146.978H427.24V149.714H424.511V146.978Z" fill="#BABABA"/>
<path d="M434.516 247.286H437.244V250.022H434.516V247.286Z" fill="#BABABA"/>
<path d="M434.516 146.978H437.244V149.714H434.516V146.978Z" fill="#BABABA"/>
<path d="M444.52 247.286H447.249V250.022H444.52V247.286Z" fill="#BABABA"/>
<path d="M444.52 146.978H447.249V149.714H444.52V146.978Z" fill="#BABABA"/>
<path d="M454.525 247.286H457.253V250.022H454.525V247.286Z" fill="#BABABA"/>
<path d="M454.525 146.978H457.253V149.714H454.525V146.978Z" fill="#BABABA"/>
<path d="M464.529 247.286H467.258V250.022H464.529V247.286Z" fill="#BABABA"/>
<path d="M464.529 146.978H467.258V149.714H464.529V146.978Z" fill="#BABABA"/>
<path d="M474.534 247.286H477.262V250.022H474.534V247.286Z" fill="#BABABA"/>
<path d="M474.534 146.978H477.262V149.714H474.534V146.978Z" fill="#BABABA"/>
<path d="M484.538 247.286H487.267V250.022H484.538V247.286Z" fill="#BABABA"/>
<path d="M484.538 146.978H487.267V149.714H484.538V146.978Z" fill="#BABABA"/>
<path d="M494.543 247.286H497.272V250.022H494.543V247.286Z" fill="#BABABA"/>
<path d="M494.543 146.978H497.272V149.714H494.543V146.978Z" fill="#BABABA"/>
<path d="M304.457 256.405H307.186V259.141H304.457V256.405Z" fill="#BABABA"/>
<path d="M304.457 156.097H307.186V158.833H304.457V156.097Z" fill="#BABABA"/>
<path d="M314.462 256.405H317.19V259.141H314.462V256.405Z" fill="#BABABA"/>
<path d="M314.462 156.097H317.19V158.833H314.462V156.097Z" fill="#BABABA"/>
<path d="M324.466 256.405H327.195V259.141H324.466V256.405Z" fill="#BABABA"/>
<path d="M324.466 156.097H327.195V158.833H324.466V156.097Z" fill="#BABABA"/>
<path d="M334.471 256.405H337.199V259.141H334.471V256.405Z" fill="#BABABA"/>
<path d="M334.471 156.097H337.199V158.833H334.471V156.097Z" fill="#BABABA"/>
<path d="M344.475 256.405H347.204V259.141H344.475V256.405Z" fill="#BABABA"/>
<path d="M344.475 156.097H347.204V158.833H344.475V156.097Z" fill="#BABABA"/>
<path d="M354.48 256.405H357.208V259.141H354.48V256.405Z" fill="#BABABA"/>
<path d="M354.48 156.097H357.208V158.833H354.48V156.097Z" fill="#BABABA"/>
<path d="M364.484 256.405H367.213V259.141H364.484V256.405Z" fill="#BABABA"/>
<path d="M364.484 156.097H367.213V158.833H364.484V156.097Z" fill="#BABABA"/>
<path d="M374.489 256.405H377.217V259.141H374.489V256.405Z" fill="#BABABA"/>
<path d="M374.489 156.097H377.217V158.833H374.489V156.097Z" fill="#BABABA"/>
<path d="M384.493 256.405H387.222V259.141H384.493V256.405Z" fill="#BABABA"/>
<path d="M384.493 156.097H387.222V158.833H384.493V156.097Z" fill="#BABABA"/>
<path d="M394.498 256.405H397.226V259.141H394.498V256.405Z" fill="#BABABA"/>
<path d="M394.498 156.097H397.226V158.833H394.498V156.097Z" fill="#BABABA"/>
<path d="M404.502 256.405H407.231V259.141H404.502V256.405Z" fill="#BABABA"/>
<path d="M404.502 156.097H407.231V158.833H404.502V156.097Z" fill="#BABABA"/>
<path d="M414.507 256.405H417.235V259.141H414.507V256.405Z" fill="#BABABA"/>
<path d="M414.507 156.097H417.235V158.833H414.507V156.097Z" fill="#BABABA"/>
<path d="M424.511 256.405H427.24V259.141H424.511V256.405Z" fill="#BABABA"/>
<path d="M424.511 156.097H427.24V158.833H424.511V156.097Z" fill="#BABABA"/>
<path d="M434.516 256.405H437.244V259.141H434.516V256.405Z" fill="#BABABA"/>
<path d="M434.516 156.097H437.244V158.833H434.516V156.097Z" fill="#BABABA"/>
<path d="M444.52 256.405H447.249V259.141H444.52V256.405Z" fill="#BABABA"/>
<path d="M444.52 156.097H447.249V158.833H444.52V156.097Z" fill="#BABABA"/>
<path d="M454.525 256.405H457.253V259.141H454.525V256.405Z" fill="#BABABA"/>
<path d="M454.525 156.097H457.253V158.833H454.525V156.097Z" fill="#BABABA"/>
<path d="M464.529 256.405H467.258V259.141H464.529V256.405Z" fill="#BABABA"/>
<path d="M464.529 156.097H467.258V158.833H464.529V156.097Z" fill="#BABABA"/>
<path d="M474.534 256.405H477.262V259.141H474.534V256.405Z" fill="#BABABA"/>
<path d="M474.534 156.097H477.262V158.833H474.534V156.097Z" fill="#BABABA"/>
<path d="M484.538 256.405H487.267V259.141H484.538V256.405Z" fill="#BABABA"/>
<path d="M484.538 156.097H487.267V158.833H484.538V156.097Z" fill="#BABABA"/>
<path d="M494.543 256.405H497.272V259.141H494.543V256.405Z" fill="#BABABA"/>
<path d="M494.543 156.097H497.272V158.833H494.543V156.097Z" fill="#BABABA"/>
<path d="M304.457 265.524H307.186V268.26H304.457V265.524Z" fill="#BABABA"/>
<path d="M304.457 165.216H307.186V167.952H304.457V165.216Z" fill="#BABABA"/>
<path d="M314.462 265.524H317.19V268.26H314.462V265.524Z" fill="#BABABA"/>
<path d="M314.462 165.216H317.19V167.952H314.462V165.216Z" fill="#BABABA"/>
<path d="M324.466 265.524H327.195V268.26H324.466V265.524Z" fill="#BABABA"/>
<path d="M324.466 165.216H327.195V167.952H324.466V165.216Z" fill="#BABABA"/>
<path d="M334.471 265.524H337.199V268.26H334.471V265.524Z" fill="#BABABA"/>
<path d="M334.471 165.216H337.199V167.952H334.471V165.216Z" fill="#BABABA"/>
<path d="M344.475 265.524H347.204V268.26H344.475V265.524Z" fill="#BABABA"/>
<path d="M344.475 165.216H347.204V167.952H344.475V165.216Z" fill="#BABABA"/>
<path d="M354.48 265.524H357.208V268.26H354.48V265.524Z" fill="#BABABA"/>
<path d="M354.48 165.216H357.208V167.952H354.48V165.216Z" fill="#BABABA"/>
<path d="M364.484 265.524H367.213V268.26H364.484V265.524Z" fill="#BABABA"/>
<path d="M364.484 165.216H367.213V167.952H364.484V165.216Z" fill="#BABABA"/>
<path d="M374.489 265.524H377.217V268.26H374.489V265.524Z" fill="#BABABA"/>
<path d="M374.489 165.216H377.217V167.952H374.489V165.216Z" fill="#BABABA"/>
<path d="M384.493 265.524H387.222V268.26H384.493V265.524Z" fill="#BABABA"/>
<path d="M384.493 165.216H387.222V167.952H384.493V165.216Z" fill="#BABABA"/>
<path d="M394.498 265.524H397.226V268.26H394.498V265.524Z" fill="#BABABA"/>
<path d="M394.498 165.216H397.226V167.952H394.498V165.216Z" fill="#BABABA"/>
<path d="M404.502 265.524H407.231V268.26H404.502V265.524Z" fill="#BABABA"/>
<path d="M404.502 165.216H407.231V167.952H404.502V165.216Z" fill="#BABABA"/>
<path d="M414.507 265.524H417.235V268.26H414.507V265.524Z" fill="#BABABA"/>
<path d="M414.507 165.216H417.235V167.952H414.507V165.216Z" fill="#BABABA"/>
<path d="M424.511 265.524H427.24V268.26H424.511V265.524Z" fill="#BABABA"/>
<path d="M424.511 165.216H427.24V167.952H424.511V165.216Z" fill="#BABABA"/>
<path d="M434.516 265.524H437.244V268.26H434.516V265.524Z" fill="#BABABA"/>
<path d="M434.516 165.216H437.244V167.952H434.516V165.216Z" fill="#BABABA"/>
<path d="M444.52 265.524H447.249V268.26H444.52V265.524Z" fill="#BABABA"/>
<path d="M444.52 165.216H447.249V167.952H444.52V165.216Z" fill="#BABABA"/>
<path d="M454.525 265.524H457.253V268.26H454.525V265.524Z" fill="#BABABA"/>
<path d="M454.525 165.216H457.253V167.952H454.525V165.216Z" fill="#BABABA"/>
<path d="M464.529 265.524H467.258V268.26H464.529V265.524Z" fill="#BABABA"/>
<path d="M464.529 165.216H467.258V167.952H464.529V165.216Z" fill="#BABABA"/>
<path d="M474.534 265.524H477.262V268.26H474.534V265.524Z" fill="#BABABA"/>
<path d="M474.534 165.216H477.262V167.952H474.534V165.216Z" fill="#BABABA"/>
<path d="M484.538 265.524H487.267V268.26H484.538V265.524Z" fill="#BABABA"/>
<path d="M484.538 165.216H487.267V167.952H484.538V165.216Z" fill="#BABABA"/>
<path d="M494.543 265.524H497.272V268.26H494.543V265.524Z" fill="#BABABA"/>
<path d="M494.543 165.216H497.272V167.952H494.543V165.216Z" fill="#BABABA"/>
<path d="M304.457 274.643H307.186V277.379H304.457V274.643Z" fill="#BABABA"/>
<path d="M304.457 174.335H307.186V177.07H304.457V174.335Z" fill="#BABABA"/>
<path d="M314.462 274.643H317.19V277.379H314.462V274.643Z" fill="#BABABA"/>
<path d="M314.462 174.335H317.19V177.07H314.462V174.335Z" fill="#BABABA"/>
<path d="M324.466 274.643H327.195V277.379H324.466V274.643Z" fill="#BABABA"/>
<path d="M324.466 174.335H327.195V177.07H324.466V174.335Z" fill="#BABABA"/>
<path d="M334.471 274.643H337.199V277.379H334.471V274.643Z" fill="#BABABA"/>
<path d="M334.471 174.335H337.199V177.07H334.471V174.335Z" fill="#BABABA"/>
<path d="M344.475 274.643H347.204V277.379H344.475V274.643Z" fill="#BABABA"/>
<path d="M344.475 174.335H347.204V177.07H344.475V174.335Z" fill="#BABABA"/>
<path d="M354.48 274.643H357.208V277.379H354.48V274.643Z" fill="#BABABA"/>
<path d="M354.48 174.335H357.208V177.07H354.48V174.335Z" fill="#BABABA"/>
<path d="M364.484 274.643H367.213V277.379H364.484V274.643Z" fill="#BABABA"/>
<path d="M364.484 174.335H367.213V177.07H364.484V174.335Z" fill="#BABABA"/>
<path d="M374.489 274.643H377.217V277.379H374.489V274.643Z" fill="#BABABA"/>
<path d="M374.489 174.335H377.217V177.07H374.489V174.335Z" fill="#BABABA"/>
<path d="M384.493 274.643H387.222V277.379H384.493V274.643Z" fill="#BABABA"/>
<path d="M384.493 174.335H387.222V177.07H384.493V174.335Z" fill="#BABABA"/>
<path d="M394.498 274.643H397.226V277.379H394.498V274.643Z" fill="#BABABA"/>
<path d="M394.498 174.335H397.226V177.07H394.498V174.335Z" fill="#BABABA"/>
<path d="M404.502 274.643H407.231V277.379H404.502V274.643Z" fill="#BABABA"/>
<path d="M404.502 174.335H407.231V177.07H404.502V174.335Z" fill="#BABABA"/>
<path d="M414.507 274.643H417.235V277.379H414.507V274.643Z" fill="#BABABA"/>
<path d="M414.507 174.335H417.235V177.07H414.507V174.335Z" fill="#BABABA"/>
<path d="M424.511 274.643H427.24V277.379H424.511V274.643Z" fill="#BABABA"/>
<path d="M424.511 174.335H427.24V177.07H424.511V174.335Z" fill="#BABABA"/>
<path d="M434.516 274.643H437.244V277.379H434.516V274.643Z" fill="#BABABA"/>
<path d="M434.516 174.335H437.244V177.07H434.516V174.335Z" fill="#BABABA"/>
<path d="M444.52 274.643H447.249V277.379H444.52V274.643Z" fill="#BABABA"/>
<path d="M444.52 174.335H447.249V177.07H444.52V174.335Z" fill="#BABABA"/>
<path d="M454.525 274.643H457.253V277.379H454.525V274.643Z" fill="#BABABA"/>
<path d="M454.525 174.335H457.253V177.07H454.525V174.335Z" fill="#BABABA"/>
<path d="M464.529 274.643H467.258V277.379H464.529V274.643Z" fill="#BABABA"/>
<path d="M464.529 174.335H467.258V177.07H464.529V174.335Z" fill="#BABABA"/>
<path d="M474.534 274.643H477.262V277.379H474.534V274.643Z" fill="#BABABA"/>
<path d="M474.534 174.335H477.262V177.07H474.534V174.335Z" fill="#BABABA"/>
<path d="M484.538 274.643H487.267V277.379H484.538V274.643Z" fill="#BABABA"/>
<path d="M484.538 174.335H487.267V177.07H484.538V174.335Z" fill="#BABABA"/>
<path d="M494.543 274.643H497.272V277.379H494.543V274.643Z" fill="#BABABA"/>
<path d="M494.543 174.335H497.272V177.07H494.543V174.335Z" fill="#BABABA"/>
<path d="M304.457 283.762H307.186V286.498H304.457V283.762Z" fill="#BABABA"/>
<path d="M304.457 183.454H307.186V186.189H304.457V183.454Z" fill="#BABABA"/>
<path d="M314.462 283.762H317.19V286.498H314.462V283.762Z" fill="#BABABA"/>
<path d="M314.462 183.454H317.19V186.189H314.462V183.454Z" fill="#BABABA"/>
<path d="M324.466 283.762H327.195V286.498H324.466V283.762Z" fill="#BABABA"/>
<path d="M324.466 183.454H327.195V186.189H324.466V183.454Z" fill="#BABABA"/>
<path d="M334.471 283.762H337.199V286.498H334.471V283.762Z" fill="#BABABA"/>
<path d="M334.471 183.454H337.199V186.189H334.471V183.454Z" fill="#BABABA"/>
<path d="M344.475 283.762H347.204V286.498H344.475V283.762Z" fill="#BABABA"/>
<path d="M344.475 183.454H347.204V186.189H344.475V183.454Z" fill="#BABABA"/>
<path d="M354.48 283.762H357.208V286.498H354.48V283.762Z" fill="#BABABA"/>
<path d="M354.48 183.454H357.208V186.189H354.48V183.454Z" fill="#BABABA"/>
<path d="M364.484 283.762H367.213V286.498H364.484V283.762Z" fill="#BABABA"/>
<path d="M364.484 183.454H367.213V186.189H364.484V183.454Z" fill="#BABABA"/>
<path d="M374.489 283.762H377.217V286.498H374.489V283.762Z" fill="#BABABA"/>
<path d="M374.489 183.454H377.217V186.189H374.489V183.454Z" fill="#BABABA"/>
<path d="M384.493 283.762H387.222V286.498H384.493V283.762Z" fill="#BABABA"/>
<path d="M384.493 183.454H387.222V186.189H384.493V183.454Z" fill="#BABABA"/>
<path d="M394.498 283.762H397.226V286.498H394.498V283.762Z" fill="#BABABA"/>
<path d="M394.498 183.454H397.226V186.189H394.498V183.454Z" fill="#BABABA"/>
<path d="M404.502 283.762H407.231V286.498H404.502V283.762Z" fill="#BABABA"/>
<path d="M404.502 183.454H407.231V186.189H404.502V183.454Z" fill="#BABABA"/>
<path d="M414.507 283.762H417.235V286.498H414.507V283.762Z" fill="#BABABA"/>
<path d="M414.507 183.454H417.235V186.189H414.507V183.454Z" fill="#BABABA"/>
<path d="M424.511 283.762H427.24V286.498H424.511V283.762Z" fill="#BABABA"/>
<path d="M424.511 183.454H427.24V186.189H424.511V183.454Z" fill="#BABABA"/>
<path d="M434.516 283.762H437.244V286.498H434.516V283.762Z" fill="#BABABA"/>
<path d="M434.516 183.454H437.244V186.189H434.516V183.454Z" fill="#BABABA"/>
<path d="M444.52 283.762H447.249V286.498H444.52V283.762Z" fill="#BABABA"/>
<path d="M444.52 183.454H447.249V186.189H444.52V183.454Z" fill="#BABABA"/>
<path d="M454.525 283.762H457.253V286.498H454.525V283.762Z" fill="#BABABA"/>
<path d="M454.525 183.454H457.253V186.189H454.525V183.454Z" fill="#BABABA"/>
<path d="M464.529 283.762H467.258V286.498H464.529V283.762Z" fill="#BABABA"/>
<path d="M464.529 183.454H467.258V186.189H464.529V183.454Z" fill="#BABABA"/>
<path d="M474.534 283.762H477.262V286.498H474.534V283.762Z" fill="#BABABA"/>
<path d="M474.534 183.454H477.262V186.189H474.534V183.454Z" fill="#BABABA"/>
<path d="M484.538 283.762H487.267V286.498H484.538V283.762Z" fill="#BABABA"/>
<path d="M484.538 183.454H487.267V186.189H484.538V183.454Z" fill="#BABABA"/>
<path d="M494.543 283.762H497.272V286.498H494.543V283.762Z" fill="#BABABA"/>
<path d="M494.543 183.454H497.272V186.189H494.543V183.454Z" fill="#BABABA"/>
<path d="M304.457 292.881H307.186V295.617H304.457V292.881Z" fill="#BABABA"/>
<path d="M304.457 192.573H307.186V195.308H304.457V192.573Z" fill="#BABABA"/>
<path d="M314.462 292.881H317.19V295.617H314.462V292.881Z" fill="#BABABA"/>
<path d="M314.462 192.573H317.19V195.308H314.462V192.573Z" fill="#BABABA"/>
<path d="M324.466 292.881H327.195V295.617H324.466V292.881Z" fill="#BABABA"/>
<path d="M324.466 192.573H327.195V195.308H324.466V192.573Z" fill="#BABABA"/>
<path d="M334.471 292.881H337.199V295.617H334.471V292.881Z" fill="#BABABA"/>
<path d="M334.471 192.573H337.199V195.308H334.471V192.573Z" fill="#BABABA"/>
<path d="M344.475 292.881H347.204V295.617H344.475V292.881Z" fill="#BABABA"/>
<path d="M344.475 192.573H347.204V195.308H344.475V192.573Z" fill="#BABABA"/>
<path d="M354.48 292.881H357.208V295.617H354.48V292.881Z" fill="#BABABA"/>
<path d="M354.48 192.573H357.208V195.308H354.48V192.573Z" fill="#BABABA"/>
<path d="M364.484 292.881H367.213V295.617H364.484V292.881Z" fill="#BABABA"/>
<path d="M364.484 192.573H367.213V195.308H364.484V192.573Z" fill="#BABABA"/>
<path d="M374.489 292.881H377.217V295.617H374.489V292.881Z" fill="#BABABA"/>
<path d="M374.489 192.573H377.217V195.308H374.489V192.573Z" fill="#BABABA"/>
<path d="M384.493 292.881H387.222V295.617H384.493V292.881Z" fill="#BABABA"/>
<path d="M384.493 192.573H387.222V195.308H384.493V192.573Z" fill="#BABABA"/>
<path d="M394.498 292.881H397.226V295.617H394.498V292.881Z" fill="#BABABA"/>
<path d="M394.498 192.573H397.226V195.308H394.498V192.573Z" fill="#BABABA"/>
<path d="M404.502 292.881H407.231V295.617H404.502V292.881Z" fill="#BABABA"/>
<path d="M404.502 192.573H407.231V195.308H404.502V192.573Z" fill="#BABABA"/>
<path d="M414.507 292.881H417.235V295.617H414.507V292.881Z" fill="#BABABA"/>
<path d="M414.507 192.573H417.235V195.308H414.507V192.573Z" fill="#BABABA"/>
<path d="M424.511 292.881H427.24V295.617H424.511V292.881Z" fill="#BABABA"/>
<path d="M424.511 192.573H427.24V195.308H424.511V192.573Z" fill="#BABABA"/>
<path d="M434.516 292.881H437.244V295.617H434.516V292.881Z" fill="#BABABA"/>
<path d="M434.516 192.573H437.244V195.308H434.516V192.573Z" fill="#BABABA"/>
<path d="M444.52 292.881H447.249V295.617H444.52V292.881Z" fill="#BABABA"/>
<path d="M444.52 192.573H447.249V195.308H444.52V192.573Z" fill="#BABABA"/>
<path d="M454.525 292.881H457.253V295.617H454.525V292.881Z" fill="#BABABA"/>
<path d="M454.525 192.573H457.253V195.308H454.525V192.573Z" fill="#BABABA"/>
<path d="M464.529 292.881H467.258V295.617H464.529V292.881Z" fill="#BABABA"/>
<path d="M464.529 192.573H467.258V195.308H464.529V192.573Z" fill="#BABABA"/>
<path d="M474.534 292.881H477.262V295.617H474.534V292.881Z" fill="#BABABA"/>
<path d="M474.534 192.573H477.262V195.308H474.534V192.573Z" fill="#BABABA"/>
<path d="M484.538 292.881H487.267V295.617H484.538V292.881Z" fill="#BABABA"/>
<path d="M484.538 192.573H487.267V195.308H484.538V192.573Z" fill="#BABABA"/>
<path d="M494.543 292.881H497.272V295.617H494.543V292.881Z" fill="#BABABA"/>
<path d="M494.543 192.573H497.272V195.308H494.543V192.573Z" fill="#BABABA"/>
<path d="M348.37 88.11H98.47V265.74H348.37V88.11Z" fill="#E6E6E6"/>
<path d="M301.6 111.2C304.102 111.2 306.13 109.172 306.13 106.67C306.13 104.168 304.102 102.14 301.6 102.14C299.098 102.14 297.07 104.168 297.07 106.67C297.07 109.172 299.098 111.2 301.6 111.2Z" fill="#24285B"/>
<path d="M315.07 111.17C317.572 111.17 319.6 109.142 319.6 106.64C319.6 104.138 317.572 102.11 315.07 102.11C312.568 102.11 310.54 104.138 310.54 106.64C310.54 109.142 312.568 111.17 315.07 111.17Z" fill="#FD6F55"/>
<path d="M327.76 111.14C330.262 111.14 332.29 109.112 332.29 106.61C332.29 104.108 330.262 102.08 327.76 102.08C325.258 102.08 323.23 104.108 323.23 106.61C323.23 109.112 325.258 111.14 327.76 111.14Z" fill="#FFD200"/>
<path d="M348 122.14H98.29V266.02H348V122.14Z" fill="#F2F2F2"/>
<path d="M285.87 101.82H139.83V110.87H285.87V101.82Z" fill="white"/>
<path d="M285.87 101.82H270.38V110.87H285.87V101.82Z" fill="#C9C9C9"/>
<path d="M163.83 142.06H115.84V187.1H163.83V142.06Z" fill="#6EC1B1"/>
<path d="M120.27 204.06C122.716 204.06 124.7 202.077 124.7 199.63C124.7 197.183 122.716 195.2 120.27 195.2C117.823 195.2 115.84 197.183 115.84 199.63C115.84 202.077 117.823 204.06 120.27 204.06Z" fill="#FD6F55"/>
<path d="M158.48 197.31H133C131.603 197.31 130.47 198.443 130.47 199.84V199.85C130.47 201.247 131.603 202.38 133 202.38H158.48C159.877 202.38 161.01 201.247 161.01 199.85V199.84C161.01 198.443 159.877 197.31 158.48 197.31Z" fill="#C9C9C9"/>
<path d="M120.27 218.21C122.716 218.21 124.7 216.227 124.7 213.78C124.7 211.333 122.716 209.35 120.27 209.35C117.823 209.35 115.84 211.333 115.84 213.78C115.84 216.227 117.823 218.21 120.27 218.21Z" fill="#FD6F55"/>
<path d="M158.48 211.46H133C131.603 211.46 130.47 212.593 130.47 213.99V214C130.47 215.397 131.603 216.53 133 216.53H158.48C159.877 216.53 161.01 215.397 161.01 214V213.99C161.01 212.593 159.877 211.46 158.48 211.46Z" fill="#C9C9C9"/>
<path d="M120.27 232.35C122.716 232.35 124.7 230.367 124.7 227.92C124.7 225.473 122.716 223.49 120.27 223.49C117.823 223.49 115.84 225.473 115.84 227.92C115.84 230.367 117.823 232.35 120.27 232.35Z" fill="#FD6F55"/>
<path d="M158.48 225.6H133C131.603 225.6 130.47 226.733 130.47 228.13V228.14C130.47 229.537 131.603 230.67 133 230.67H158.48C159.877 230.67 161.01 229.537 161.01 228.14V228.13C161.01 226.733 159.877 225.6 158.48 225.6Z" fill="#C9C9C9"/>
<path d="M279.49 142.06H174.04V172.47H279.49V142.06Z" fill="white"/>
<path d="M279.49 180.62H174.04V211.03H279.49V180.62Z" fill="white"/>
<path d="M279.49 219.17H174.04V249.58H279.49V219.17Z" fill="white"/>
<path d="M273.11 161.3H255.49V169.04H273.11V161.3Z" fill="#FEBF39"/>
<path d="M273.11 199.12H255.49V206.86H273.11V199.12Z" fill="#FEBF39"/>
<path d="M273.11 237.93H255.49V245.67H273.11V237.93Z" fill="#FEBF39"/>
<path opacity="0.28" d="M273.11 147.6H180.68V150.81H273.11V147.6Z" fill="#C9C9C9"/>
<path opacity="0.28" d="M273.11 154.06H180.68V157.27H273.11V154.06Z" fill="#C9C9C9"/>
<path opacity="0.28" d="M273.11 185.83H180.68V189.04H273.11V185.83Z" fill="#C9C9C9"/>
<path opacity="0.28" d="M273.11 192.29H180.68V195.5H273.11V192.29Z" fill="#C9C9C9"/>
<path opacity="0.28" d="M273.11 224.7H180.68V227.91H273.11V224.7Z" fill="#C9C9C9"/>
<path opacity="0.28" d="M273.11 231.16H180.68V234.37H273.11V231.16Z" fill="#C9C9C9"/>
<path d="M337.45 142.06H288.94V185.83H337.45V142.06Z" fill="#1A78ED"/>
<path d="M337.45 195.82H288.94V239.59H337.45V195.82Z" fill="#1A78ED"/>
<path d="M89.04 148.08C103.422 148.08 115.08 136.421 115.08 122.04C115.08 107.659 103.422 96 89.04 96C74.6585 96 63 107.659 63 122.04C63 136.421 74.6585 148.08 89.04 148.08Z" fill="#475762"/>
<path d="M98.8099 124.19C100.704 124.19 102.24 122.654 102.24 120.76C102.24 118.866 100.704 117.33 98.8099 117.33C96.9155 117.33 95.3799 118.866 95.3799 120.76C95.3799 122.654 96.9155 124.19 98.8099 124.19Z" fill="#6EC1B1"/>
<path d="M86.45 116.73H76.26V125.7H86.45V116.73Z" fill="#6EC1B1"/>
<path d="M86.4102 116.73C89.1233 116.496 91.7189 115.516 93.9106 113.9C96.1023 112.283 97.8048 110.093 98.8302 107.57V133.04C98.8302 133.04 94.6902 125.7 86.4102 125.7V116.73Z" fill="white"/>
<path d="M88.83 294.66C103.096 294.66 114.66 283.096 114.66 268.83C114.66 254.564 103.096 243 88.83 243C74.5645 243 63 254.564 63 268.83C63 283.096 74.5645 294.66 88.83 294.66Z" fill="#475762"/>
<path d="M102.51 258.26H74.9399V278.71H102.51V258.26Z" fill="white"/>
<path d="M74.9399 258.25L88.7299 273.12L102.52 258.25H74.9399Z" fill="#6EC1B1"/>
<path d="M81.3501 125.7L84.2201 134.37H88.9401L86.4401 125.7H81.3501Z" fill="#6EC1B1"/>
<g filter="url(#filter1_dd)">
<rect x="243" y="193" width="378" height="145" rx="5" fill="#FD6F55"/>
</g>
<rect x="256.5" y="203.5" width="377" height="144" rx="4.5" fill="white" stroke="#E72400"/>
<path d="M308.451 228.324H311.279C312.548 228.324 313.575 228.427 314.359 228.632C315.143 228.837 315.834 229.22 316.431 229.78C317.42 230.713 317.915 231.945 317.915 233.476C317.915 234.353 317.728 235.091 317.355 235.688C317.019 236.267 316.552 236.696 315.955 236.976C316.926 237.219 317.728 237.667 318.363 238.32C319.184 239.179 319.595 240.345 319.595 241.82C319.595 243.183 319.184 244.303 318.363 245.18C317.206 246.393 315.46 247 313.127 247H308.451V228.324ZM311.307 231.012V236.36H312.175C313.22 236.36 313.995 236.117 314.499 235.632C314.984 235.165 315.227 234.456 315.227 233.504C315.227 232.739 315.003 232.141 314.555 231.712C314.07 231.245 313.314 231.012 312.287 231.012H311.307ZM311.307 238.712V244.312H313.043C314.331 244.312 315.274 244.069 315.871 243.584C316.487 243.099 316.795 242.408 316.795 241.512C316.795 240.709 316.543 240.056 316.039 239.552C315.46 238.992 314.48 238.712 313.099 238.712H311.307ZM322.685 247V235.212H325.429V239.384H326.997C327.501 239.384 327.912 239.403 328.229 239.44C328.547 239.459 328.929 239.561 329.377 239.748C329.825 239.935 330.217 240.215 330.553 240.588C331.169 241.279 331.477 242.137 331.477 243.164C331.477 244.34 331.123 245.283 330.413 245.992C330.096 246.309 329.713 246.552 329.265 246.72C328.836 246.869 328.472 246.953 328.173 246.972C327.893 246.991 327.492 247 326.969 247H322.685ZM325.429 244.648H326.689C327.361 244.648 327.837 244.564 328.117 244.396C328.528 244.097 328.733 243.696 328.733 243.192C328.733 242.669 328.537 242.277 328.145 242.016C327.847 241.829 327.371 241.736 326.717 241.736H325.429V244.648ZM332.709 247V235.212H335.453V247H332.709ZM344.119 247L346.975 234.148L351.847 243.136L356.719 234.148L359.575 247H356.775L355.599 241.092L351.847 247.896L348.095 241.092L346.919 247H344.119ZM362.881 236.668C364.094 235.492 365.597 234.904 367.389 234.904C369.181 234.904 370.674 235.492 371.869 236.668C373.082 237.825 373.689 239.309 373.689 241.12C373.689 242.912 373.082 244.405 371.869 245.6C370.674 246.776 369.181 247.364 367.389 247.364C365.597 247.364 364.094 246.776 362.881 245.6C361.686 244.405 361.089 242.912 361.089 241.12C361.089 239.309 361.686 237.825 362.881 236.668ZM364.841 243.892C365.475 244.564 366.325 244.9 367.389 244.9C368.453 244.9 369.302 244.564 369.937 243.892C370.571 243.201 370.889 242.287 370.889 241.148C370.889 239.897 370.543 238.955 369.853 238.32C369.181 237.685 368.359 237.368 367.389 237.368C366.418 237.368 365.587 237.685 364.897 238.32C364.225 238.955 363.889 239.897 363.889 241.148C363.889 242.287 364.206 243.201 364.841 243.892ZM382.18 235.212H384.924V239.58L388.48 235.212H391.784L387.22 240.588L392.232 247H388.816L385.26 242.268L384.924 242.66V247H382.18V242.66L381.844 242.268L378.288 247H374.872L379.884 240.588L375.32 235.212H378.624L382.18 239.58V235.212ZM402.285 243.024L404.581 244.312C404.058 245.245 403.396 245.964 402.593 246.468C401.678 247.065 400.521 247.364 399.121 247.364C397.478 247.364 396.153 246.86 395.145 245.852C393.988 244.695 393.409 243.192 393.409 241.344C393.409 239.403 394.034 237.788 395.285 236.5C396.349 235.436 397.665 234.904 399.233 234.904C400.764 234.904 402.024 235.417 403.013 236.444C404.114 237.583 404.665 239.244 404.665 241.428V241.764H396.209C396.284 242.753 396.62 243.547 397.217 244.144C397.721 244.648 398.421 244.9 399.317 244.9C400.045 244.9 400.67 244.704 401.193 244.312C401.622 243.976 401.986 243.547 402.285 243.024ZM396.405 239.524H401.865C401.753 238.871 401.473 238.339 401.025 237.928C400.54 237.48 399.924 237.256 399.177 237.256C398.393 237.256 397.749 237.508 397.245 238.012C396.834 238.385 396.554 238.889 396.405 239.524ZM415.653 237.732H412.209V247H409.465V237.732H406.021V235.212H415.653V237.732ZM425.582 243.024L427.878 244.312C427.355 245.245 426.693 245.964 425.89 246.468C424.975 247.065 423.818 247.364 422.418 247.364C420.775 247.364 419.45 246.86 418.442 245.852C417.285 244.695 416.706 243.192 416.706 241.344C416.706 239.403 417.331 237.788 418.582 236.5C419.646 235.436 420.962 234.904 422.53 234.904C424.061 234.904 425.321 235.417 426.31 236.444C427.411 237.583 427.962 239.244 427.962 241.428V241.764H419.506C419.581 242.753 419.917 243.547 420.514 244.144C421.018 244.648 421.718 244.9 422.614 244.9C423.342 244.9 423.967 244.704 424.49 244.312C424.919 243.976 425.283 243.547 425.582 243.024ZM419.702 239.524H425.162C425.05 238.871 424.77 238.339 424.322 237.928C423.837 237.48 423.221 237.256 422.474 237.256C421.69 237.256 421.046 237.508 420.542 238.012C420.131 238.385 419.851 238.889 419.702 239.524ZM437.365 235.212H441.985C443.161 235.212 444.057 235.445 444.673 235.912C445.401 236.491 445.765 237.247 445.765 238.18C445.765 239.244 445.298 240.009 444.365 240.476C444.962 240.588 445.494 240.849 445.961 241.26C446.577 241.82 446.885 242.576 446.885 243.528C446.885 244.667 446.456 245.563 445.597 246.216C444.888 246.739 443.982 247 442.881 247H437.365V235.212ZM440.109 239.804H441.509C441.994 239.804 442.358 239.72 442.601 239.552C442.956 239.328 443.133 239.011 443.133 238.6C443.133 238.208 442.974 237.9 442.657 237.676C442.433 237.527 442.032 237.452 441.453 237.452H440.109V239.804ZM440.109 244.76H442.153C442.769 244.76 443.245 244.648 443.581 244.424C443.954 244.181 444.141 243.836 444.141 243.388C444.141 242.903 443.964 242.557 443.609 242.352C443.292 242.147 442.834 242.044 442.237 242.044H440.109V244.76ZM458.012 243.024L460.308 244.312C459.785 245.245 459.122 245.964 458.32 246.468C457.405 247.065 456.248 247.364 454.848 247.364C453.205 247.364 451.88 246.86 450.872 245.852C449.714 244.695 449.136 243.192 449.136 241.344C449.136 239.403 449.761 237.788 451.012 236.5C452.076 235.436 453.392 234.904 454.96 234.904C456.49 234.904 457.75 235.417 458.74 236.444C459.841 237.583 460.392 239.244 460.392 241.428V241.764H451.936C452.01 242.753 452.346 243.547 452.944 244.144C453.448 244.648 454.148 244.9 455.044 244.9C455.772 244.9 456.397 244.704 456.92 244.312C457.349 243.976 457.713 243.547 458.012 243.024ZM452.132 239.524H457.592C457.48 238.871 457.2 238.339 456.752 237.928C456.266 237.48 455.65 237.256 454.904 237.256C454.12 237.256 453.476 237.508 452.972 238.012C452.561 238.385 452.281 238.889 452.132 239.524ZM472.387 235.744V238.824C471.398 237.853 470.287 237.368 469.055 237.368C468.01 237.368 467.142 237.713 466.451 238.404C465.779 239.076 465.443 239.981 465.443 241.12C465.443 242.296 465.798 243.239 466.507 243.948C467.179 244.583 468.01 244.9 468.999 244.9C470.362 244.9 471.491 244.396 472.387 243.388V246.44C471.398 247.056 470.203 247.364 468.803 247.364C466.918 247.364 465.425 246.785 464.323 245.628C463.203 244.471 462.643 242.996 462.643 241.204C462.643 239.356 463.241 237.835 464.435 236.64C465.593 235.483 467.17 234.904 469.167 234.904C470.306 234.904 471.379 235.184 472.387 235.744ZM483.411 237.732H479.967V247H477.223V237.732H473.779V235.212H483.411V237.732ZM485.381 235.212H488.125V241.904L496.189 234.148V247H493.445V240.14L485.381 247.896V235.212ZM507.197 235.212H516.045V244.48H517.837V250.36H515.317V247H507.085V250.36H504.565V244.48C505.517 244.424 506.236 243.911 506.721 242.94C507.038 242.249 507.197 241.213 507.197 239.832V235.212ZM513.301 244.48V237.732H509.829V240.868C509.829 242.567 509.372 243.771 508.457 244.48H513.301ZM528.066 243.024L530.362 244.312C529.84 245.245 529.177 245.964 528.374 246.468C527.46 247.065 526.302 247.364 524.902 247.364C523.26 247.364 521.934 246.86 520.926 245.852C519.769 244.695 519.19 243.192 519.19 241.344C519.19 239.403 519.816 237.788 521.066 236.5C522.13 235.436 523.446 234.904 525.014 234.904C526.545 234.904 527.805 235.417 528.794 236.444C529.896 237.583 530.446 239.244 530.446 241.428V241.764H521.99C522.065 242.753 522.401 243.547 522.998 244.144C523.502 244.648 524.202 244.9 525.098 244.9C525.826 244.9 526.452 244.704 526.974 244.312C527.404 243.976 527.768 243.547 528.066 243.024ZM522.186 239.524H527.646C527.534 238.871 527.254 238.339 526.806 237.928C526.321 237.48 525.705 237.256 524.958 237.256C524.174 237.256 523.53 237.508 523.026 238.012C522.616 238.385 522.336 238.889 522.186 239.524ZM542.442 235.744V238.824C541.453 237.853 540.342 237.368 539.11 237.368C538.065 237.368 537.197 237.713 536.506 238.404C535.834 239.076 535.498 239.981 535.498 241.12C535.498 242.296 535.853 243.239 536.562 243.948C537.234 244.583 538.065 244.9 539.054 244.9C540.417 244.9 541.546 244.396 542.442 243.388V246.44C541.453 247.056 540.258 247.364 538.858 247.364C536.973 247.364 535.479 246.785 534.378 245.628C533.258 244.471 532.698 242.996 532.698 241.204C532.698 239.356 533.295 237.835 534.49 236.64C535.647 235.483 537.225 234.904 539.222 234.904C540.361 234.904 541.434 235.184 542.442 235.744ZM543.56 247L547.256 242.324C546.528 242.212 545.903 241.913 545.38 241.428C544.727 240.793 544.4 239.981 544.4 238.992C544.4 237.872 544.764 236.967 545.492 236.276C546.239 235.567 547.377 235.212 548.908 235.212H553.304V247H550.56V242.66H550L546.78 247H543.56ZM550.56 240.42V237.564H548.964C548.311 237.564 547.835 237.648 547.536 237.816C547.088 238.096 546.864 238.488 546.864 238.992C546.864 239.496 547.051 239.879 547.424 240.14C547.704 240.327 548.208 240.42 548.936 240.42H550.56ZM564.895 237.732H561.451V247H558.707V237.732H555.263V235.212H564.895V237.732ZM566.865 235.212H569.609V239.412L573.529 235.212H577.169L572.017 240.364L577.449 247H573.977L570.057 242.156L569.609 242.604V247H566.865V235.212ZM579.252 235.212H581.996V241.904L590.06 234.148V247H587.316V240.14L579.252 247.896V235.212ZM295.861 270.212H298.605V276.904L306.669 269.148V282H303.925V275.14L295.861 282.896V270.212ZM325.798 270.744V273.824C324.808 272.853 323.698 272.368 322.466 272.368C321.42 272.368 320.552 272.713 319.862 273.404C319.19 274.076 318.854 274.981 318.854 276.12C318.854 277.296 319.208 278.239 319.918 278.948C320.59 279.583 321.42 279.9 322.41 279.9C323.772 279.9 324.902 279.396 325.798 278.388V281.44C324.808 282.056 323.614 282.364 322.214 282.364C320.328 282.364 318.835 281.785 317.734 280.628C316.614 279.471 316.054 277.996 316.054 276.204C316.054 274.356 316.651 272.835 317.846 271.64C319.003 270.483 320.58 269.904 322.578 269.904C323.716 269.904 324.79 270.184 325.798 270.744ZM329.603 271.668C330.817 270.492 332.319 269.904 334.111 269.904C335.903 269.904 337.397 270.492 338.591 271.668C339.805 272.825 340.411 274.309 340.411 276.12C340.411 277.912 339.805 279.405 338.591 280.6C337.397 281.776 335.903 282.364 334.111 282.364C332.319 282.364 330.817 281.776 329.603 280.6C328.409 279.405 327.811 277.912 327.811 276.12C327.811 274.309 328.409 272.825 329.603 271.668ZM331.563 278.892C332.198 279.564 333.047 279.9 334.111 279.9C335.175 279.9 336.025 279.564 336.659 278.892C337.294 278.201 337.611 277.287 337.611 276.148C337.611 274.897 337.266 273.955 336.575 273.32C335.903 272.685 335.082 272.368 334.111 272.368C333.141 272.368 332.31 272.685 331.619 273.32C330.947 273.955 330.611 274.897 330.611 276.148C330.611 277.287 330.929 278.201 331.563 278.892ZM351.395 272.732H347.951V282H345.207V272.732H341.763V270.212H351.395V272.732ZM353.365 282V270.212H356.109V274.58H360.981V270.212H363.725V282H360.981V277.1H356.109V282H353.365ZM367.201 270.212H369.945V276.904L378.009 269.148V282H375.265V275.14L367.201 282.896V270.212ZM388.009 270.212H390.753V274.412L394.673 270.212H398.313L393.161 275.364L398.593 282H395.121L391.201 277.156L390.753 277.604V282H388.009V270.212ZM401.299 271.668C402.512 270.492 404.015 269.904 405.807 269.904C407.599 269.904 409.092 270.492 410.287 271.668C411.5 272.825 412.107 274.309 412.107 276.12C412.107 277.912 411.5 279.405 410.287 280.6C409.092 281.776 407.599 282.364 405.807 282.364C404.015 282.364 402.512 281.776 401.299 280.6C400.104 279.405 399.507 277.912 399.507 276.12C399.507 274.309 400.104 272.825 401.299 271.668ZM403.259 278.892C403.893 279.564 404.743 279.9 405.807 279.9C406.871 279.9 407.72 279.564 408.355 278.892C408.989 278.201 409.307 277.287 409.307 276.148C409.307 274.897 408.961 273.955 408.271 273.32C407.599 272.685 406.777 272.368 405.807 272.368C404.836 272.368 404.005 272.685 403.315 273.32C402.643 273.955 402.307 274.897 402.307 276.148C402.307 277.287 402.624 278.201 403.259 278.892ZM413.626 282L416.482 269.148L421.354 278.136L426.226 269.148L429.082 282H426.282L425.106 276.092L421.354 282.896L417.602 276.092L416.426 282H413.626ZM431.213 270.212H441.461V282H438.717V272.732H433.957V282H431.213V270.212ZM453.563 271.584V270.212H456.307V282H453.563V280.768C452.648 281.832 451.472 282.364 450.035 282.364C448.299 282.364 446.908 281.748 445.863 280.516C444.836 279.284 444.323 277.809 444.323 276.092C444.323 274.225 444.874 272.732 445.975 271.612C447.095 270.473 448.458 269.904 450.063 269.904C451.538 269.904 452.704 270.464 453.563 271.584ZM450.399 272.368C449.428 272.368 448.635 272.732 448.019 273.46C447.422 274.188 447.123 275.084 447.123 276.148C447.123 277.193 447.422 278.08 448.019 278.808C448.635 279.536 449.428 279.9 450.399 279.9C451.332 279.9 452.116 279.573 452.751 278.92C453.404 278.267 453.731 277.352 453.731 276.176C453.731 274.963 453.404 274.029 452.751 273.376C452.116 272.704 451.332 272.368 450.399 272.368ZM459.787 282V270.212H462.531V274.58H467.403V270.212H470.147V282H467.403V277.1H462.531V282H459.787ZM473.623 270.212H476.367V276.904L484.431 269.148V282H481.687V275.14L473.623 282.896V270.212ZM487.896 270.212H490.64V276.904L498.704 269.148V282H495.96V275.14L487.896 282.896V270.212ZM488.792 265.116L491.032 264.472C491.387 265.685 492.152 266.292 493.328 266.292C494.485 266.292 495.251 265.685 495.624 264.472L497.864 265.116C497.565 266.18 496.959 267.001 496.044 267.58C495.148 268.14 494.243 268.42 493.328 268.42C492.413 268.42 491.499 268.14 490.584 267.58C489.688 267.001 489.091 266.18 488.792 265.116ZM508.705 270.212H513.325C514.501 270.212 515.397 270.445 516.013 270.912C516.741 271.491 517.105 272.247 517.105 273.18C517.105 274.244 516.638 275.009 515.705 275.476C516.302 275.588 516.834 275.849 517.301 276.26C517.917 276.82 518.225 277.576 518.225 278.528C518.225 279.667 517.795 280.563 516.937 281.216C516.227 281.739 515.322 282 514.221 282H508.705V270.212ZM511.449 274.804H512.849C513.334 274.804 513.698 274.72 513.941 274.552C514.295 274.328 514.473 274.011 514.473 273.6C514.473 273.208 514.314 272.9 513.997 272.676C513.773 272.527 513.371 272.452 512.793 272.452H511.449V274.804ZM511.449 279.76H513.493C514.109 279.76 514.585 279.648 514.921 279.424C515.294 279.181 515.481 278.836 515.481 278.388C515.481 277.903 515.303 277.557 514.949 277.352C514.631 277.147 514.174 277.044 513.577 277.044H511.449V279.76ZM527.627 282V270.212H530.371V274.58H535.243V270.212H537.987V282H535.243V277.1H530.371V282H527.627ZM550.087 271.584V270.212H552.831V282H550.087V280.768C549.172 281.832 547.996 282.364 546.559 282.364C544.823 282.364 543.432 281.748 542.387 280.516C541.36 279.284 540.847 277.809 540.847 276.092C540.847 274.225 541.397 272.732 542.499 271.612C543.619 270.473 544.981 269.904 546.587 269.904C548.061 269.904 549.228 270.464 550.087 271.584ZM546.923 272.368C545.952 272.368 545.159 272.732 544.543 273.46C543.945 274.188 543.647 275.084 543.647 276.148C543.647 277.193 543.945 278.08 544.543 278.808C545.159 279.536 545.952 279.9 546.923 279.9C547.856 279.9 548.64 279.573 549.275 278.92C549.928 278.267 550.255 277.352 550.255 276.176C550.255 274.963 549.928 274.029 549.275 273.376C548.64 272.704 547.856 272.368 546.923 272.368ZM556.31 282V270.212H559.054V279.48H562.974V270.212H565.718V279.48H569.638V270.212H572.382V282H556.31ZM584.121 278.024L586.417 279.312C585.894 280.245 585.232 280.964 584.429 281.468C583.514 282.065 582.357 282.364 580.957 282.364C579.314 282.364 577.989 281.86 576.981 280.852C575.824 279.695 575.245 278.192 575.245 276.344C575.245 274.403 575.87 272.788 577.121 271.5C578.185 270.436 579.501 269.904 581.069 269.904C582.6 269.904 583.86 270.417 584.849 271.444C585.95 272.583 586.501 274.244 586.501 276.428V276.764H578.045C578.12 277.753 578.456 278.547 579.053 279.144C579.557 279.648 580.257 279.9 581.153 279.9C581.881 279.9 582.506 279.704 583.029 279.312C583.458 278.976 583.822 278.547 584.121 278.024ZM578.241 274.524H583.701C583.589 273.871 583.309 273.339 582.861 272.928C582.376 272.48 581.76 272.256 581.013 272.256C580.229 272.256 579.585 272.508 579.081 273.012C578.67 273.385 578.39 273.889 578.241 274.524ZM588.025 282L590.881 269.148L595.753 278.136L600.625 269.148L603.481 282H600.681L599.505 276.092L595.753 282.896L592.001 276.092L590.825 282H588.025ZM325.497 305.744V308.824C324.507 307.853 323.397 307.368 322.165 307.368C321.119 307.368 320.251 307.713 319.561 308.404C318.889 309.076 318.553 309.981 318.553 311.12C318.553 312.296 318.907 313.239 319.617 313.948C320.289 314.583 321.119 314.9 322.109 314.9C323.471 314.9 324.601 314.396 325.497 313.388V316.44C324.507 317.056 323.313 317.364 321.913 317.364C320.027 317.364 318.534 316.785 317.433 315.628C316.313 314.471 315.753 312.996 315.753 311.204C315.753 309.356 316.35 307.835 317.545 306.64C318.702 305.483 320.279 304.904 322.277 304.904C323.415 304.904 324.489 305.184 325.497 305.744ZM336.387 313.024L338.683 314.312C338.16 315.245 337.497 315.964 336.695 316.468C335.78 317.065 334.623 317.364 333.223 317.364C331.58 317.364 330.255 316.86 329.247 315.852C328.089 314.695 327.511 313.192 327.511 311.344C327.511 309.403 328.136 307.788 329.387 306.5C330.451 305.436 331.767 304.904 333.335 304.904C334.865 304.904 336.125 305.417 337.115 306.444C338.216 307.583 338.767 309.244 338.767 311.428V311.764H330.311C330.385 312.753 330.721 313.547 331.319 314.144C331.823 314.648 332.523 314.9 333.419 314.9C334.147 314.9 334.772 314.704 335.295 314.312C335.724 313.976 336.088 313.547 336.387 313.024ZM330.507 309.524H335.967C335.855 308.871 335.575 308.339 335.127 307.928C334.641 307.48 334.025 307.256 333.279 307.256C332.495 307.256 331.851 307.508 331.347 308.012C330.936 308.385 330.656 308.889 330.507 309.524ZM344.378 315.628V323.412H341.634V305.212H344.378V306.5C345.274 305.436 346.441 304.904 347.878 304.904C349.484 304.904 350.837 305.473 351.938 306.612C353.058 307.732 353.618 309.207 353.618 311.036C353.618 312.921 353.04 314.452 351.882 315.628C350.725 316.785 349.4 317.364 347.906 317.364C346.506 317.364 345.33 316.785 344.378 315.628ZM347.542 307.368C346.609 307.368 345.816 307.704 345.162 308.376C344.528 309.029 344.21 309.963 344.21 311.176C344.21 312.352 344.528 313.267 345.162 313.92C345.816 314.573 346.609 314.9 347.542 314.9C348.513 314.9 349.297 314.536 349.894 313.808C350.51 313.08 350.818 312.193 350.818 311.148C350.818 310.084 350.51 309.188 349.894 308.46C349.297 307.732 348.513 307.368 347.542 307.368ZM356.482 305.212H361.102C362.278 305.212 363.174 305.445 363.79 305.912C364.518 306.491 364.882 307.247 364.882 308.18C364.882 309.244 364.415 310.009 363.482 310.476C364.079 310.588 364.611 310.849 365.078 311.26C365.694 311.82 366.002 312.576 366.002 313.528C366.002 314.667 365.573 315.563 364.714 316.216C364.005 316.739 363.099 317 361.998 317H356.482V305.212ZM359.226 309.804H360.626C361.111 309.804 361.475 309.72 361.718 309.552C362.073 309.328 362.25 309.011 362.25 308.6C362.25 308.208 362.091 307.9 361.774 307.676C361.55 307.527 361.149 307.452 360.57 307.452H359.226V309.804ZM359.226 314.76H361.27C361.886 314.76 362.362 314.648 362.698 314.424C363.071 314.181 363.258 313.836 363.258 313.388C363.258 312.903 363.081 312.557 362.726 312.352C362.409 312.147 361.951 312.044 361.354 312.044H359.226V314.76ZM368.869 305.212H371.613V311.904L379.677 304.148V317H376.933V310.14L368.869 317.896V305.212ZM392.27 305.744V308.824C391.281 307.853 390.17 307.368 388.938 307.368C387.893 307.368 387.025 307.713 386.334 308.404C385.662 309.076 385.326 309.981 385.326 311.12C385.326 312.296 385.681 313.239 386.39 313.948C387.062 314.583 387.893 314.9 388.882 314.9C390.245 314.9 391.374 314.396 392.27 313.388V316.44C391.281 317.056 390.086 317.364 388.686 317.364C386.801 317.364 385.308 316.785 384.206 315.628C383.086 314.471 382.526 312.996 382.526 311.204C382.526 309.356 383.124 307.835 384.318 306.64C385.476 305.483 387.053 304.904 389.05 304.904C390.189 304.904 391.262 305.184 392.27 305.744ZM403.16 313.024L405.456 314.312C404.933 315.245 404.271 315.964 403.468 316.468C402.553 317.065 401.396 317.364 399.996 317.364C398.353 317.364 397.028 316.86 396.02 315.852C394.863 314.695 394.284 313.192 394.284 311.344C394.284 309.403 394.909 307.788 396.16 306.5C397.224 305.436 398.54 304.904 400.108 304.904C401.639 304.904 402.899 305.417 403.888 306.444C404.989 307.583 405.54 309.244 405.54 311.428V311.764H397.084C397.159 312.753 397.495 313.547 398.092 314.144C398.596 314.648 399.296 314.9 400.192 314.9C400.92 314.9 401.545 314.704 402.068 314.312C402.497 313.976 402.861 313.547 403.16 313.024ZM397.28 309.524H402.74C402.628 308.871 402.348 308.339 401.9 307.928C401.415 307.48 400.799 307.256 400.052 307.256C399.268 307.256 398.624 307.508 398.12 308.012C397.709 308.385 397.429 308.889 397.28 309.524ZM416.119 306.668C417.332 305.492 418.835 304.904 420.627 304.904C422.419 304.904 423.912 305.492 425.107 306.668C426.32 307.825 426.927 309.309 426.927 311.12C426.927 312.912 426.32 314.405 425.107 315.6C423.912 316.776 422.419 317.364 420.627 317.364C418.835 317.364 417.332 316.776 416.119 315.6C414.924 314.405 414.327 312.912 414.327 311.12C414.327 309.309 414.924 307.825 416.119 306.668ZM418.079 313.892C418.714 314.564 419.563 314.9 420.627 314.9C421.691 314.9 422.54 314.564 423.175 313.892C423.81 313.201 424.127 312.287 424.127 311.148C424.127 309.897 423.782 308.955 423.091 308.32C422.419 307.685 421.598 307.368 420.627 307.368C419.656 307.368 418.826 307.685 418.135 308.32C417.463 308.955 417.127 309.897 417.127 311.148C417.127 312.287 417.444 313.201 418.079 313.892ZM430.799 305.212H439.647V314.48H441.439V320.36H438.919V317H430.687V320.36H428.167V314.48C429.119 314.424 429.837 313.911 430.323 312.94C430.64 312.249 430.799 311.213 430.799 309.832V305.212ZM436.903 314.48V307.732H433.431V310.868C433.431 312.567 432.973 313.771 432.059 314.48H436.903ZM443.408 317V305.212H446.152V309.58H451.024V305.212H453.768V317H451.024V312.1H446.152V317H443.408ZM458.42 306.668C459.633 305.492 461.136 304.904 462.928 304.904C464.72 304.904 466.213 305.492 467.408 306.668C468.621 307.825 469.228 309.309 469.228 311.12C469.228 312.912 468.621 314.405 467.408 315.6C466.213 316.776 464.72 317.364 462.928 317.364C461.136 317.364 459.633 316.776 458.42 315.6C457.225 314.405 456.628 312.912 456.628 311.12C456.628 309.309 457.225 307.825 458.42 306.668ZM460.38 313.892C461.014 314.564 461.864 314.9 462.928 314.9C463.992 314.9 464.841 314.564 465.476 313.892C466.11 313.201 466.428 312.287 466.428 311.148C466.428 309.897 466.082 308.955 465.392 308.32C464.72 307.685 463.898 307.368 462.928 307.368C461.957 307.368 461.126 307.685 460.436 308.32C459.764 308.955 459.428 309.897 459.428 311.148C459.428 312.287 459.745 313.201 460.38 313.892ZM472.091 305.212H476.711C477.887 305.212 478.783 305.445 479.399 305.912C480.127 306.491 480.491 307.247 480.491 308.18C480.491 309.244 480.025 310.009 479.091 310.476C479.689 310.588 480.221 310.849 480.687 311.26C481.303 311.82 481.611 312.576 481.611 313.528C481.611 314.667 481.182 315.563 480.323 316.216C479.614 316.739 478.709 317 477.607 317H472.091V305.212ZM474.835 309.804H476.235C476.721 309.804 477.085 309.72 477.327 309.552C477.682 309.328 477.859 309.011 477.859 308.6C477.859 308.208 477.701 307.9 477.383 307.676C477.159 307.527 476.758 307.452 476.179 307.452H474.835V309.804ZM474.835 314.76H476.879C477.495 314.76 477.971 314.648 478.307 314.424C478.681 314.181 478.867 313.836 478.867 313.388C478.867 312.903 478.69 312.557 478.335 312.352C478.018 312.147 477.561 312.044 476.963 312.044H474.835V314.76ZM487.222 315.628V323.412H484.478V305.212H487.222V306.5C488.118 305.436 489.285 304.904 490.722 304.904C492.328 304.904 493.681 305.473 494.782 306.612C495.902 307.732 496.462 309.207 496.462 311.036C496.462 312.921 495.884 314.452 494.726 315.628C493.569 316.785 492.244 317.364 490.75 317.364C489.35 317.364 488.174 316.785 487.222 315.628ZM490.386 307.368C489.453 307.368 488.66 307.704 488.006 308.376C487.372 309.029 487.054 309.963 487.054 311.176C487.054 312.352 487.372 313.267 488.006 313.92C488.66 314.573 489.453 314.9 490.386 314.9C491.357 314.9 492.141 314.536 492.738 313.808C493.354 313.08 493.662 312.193 493.662 311.148C493.662 310.084 493.354 309.188 492.738 308.46C492.141 307.732 491.357 307.368 490.386 307.368ZM507.586 313.024L509.882 314.312C509.359 315.245 508.697 315.964 507.894 316.468C506.979 317.065 505.822 317.364 504.422 317.364C502.779 317.364 501.454 316.86 500.446 315.852C499.289 314.695 498.71 313.192 498.71 311.344C498.71 309.403 499.335 307.788 500.586 306.5C501.65 305.436 502.966 304.904 504.534 304.904C506.065 304.904 507.325 305.417 508.314 306.444C509.415 307.583 509.966 309.244 509.966 311.428V311.764H501.51C501.585 312.753 501.921 313.547 502.518 314.144C503.022 314.648 503.722 314.9 504.618 314.9C505.346 314.9 505.971 314.704 506.494 314.312C506.923 313.976 507.287 313.547 507.586 313.024ZM501.706 309.524H507.166C507.054 308.871 506.774 308.339 506.326 307.928C505.841 307.48 505.225 307.256 504.478 307.256C503.694 307.256 503.05 307.508 502.546 308.012C502.135 308.385 501.855 308.889 501.706 309.524ZM511.49 317L514.346 304.148L519.218 313.136L524.09 304.148L526.946 317H524.146L522.97 311.092L519.218 317.896L515.466 311.092L514.29 317H511.49ZM537.336 313.024L539.632 314.312C539.109 315.245 538.447 315.964 537.644 316.468C536.729 317.065 535.572 317.364 534.172 317.364C532.529 317.364 531.204 316.86 530.196 315.852C529.039 314.695 528.46 313.192 528.46 311.344C528.46 309.403 529.085 307.788 530.336 306.5C531.4 305.436 532.716 304.904 534.284 304.904C535.815 304.904 537.075 305.417 538.064 306.444C539.165 307.583 539.716 309.244 539.716 311.428V311.764H531.26C531.335 312.753 531.671 313.547 532.268 314.144C532.772 314.648 533.472 314.9 534.368 314.9C535.096 314.9 535.721 314.704 536.244 314.312C536.673 313.976 537.037 313.547 537.336 313.024ZM531.456 309.524H536.916C536.804 308.871 536.524 308.339 536.076 307.928C535.591 307.48 534.975 307.256 534.228 307.256C533.444 307.256 532.8 307.508 532.296 308.012C531.885 308.385 531.605 308.889 531.456 309.524ZM542.584 317V305.212H545.328V309.58H550.2V305.212H552.944V317H550.2V312.1H545.328V317H542.584ZM556.42 317V305.212H559.164V309.58H564.036V305.212H566.78V317H564.036V312.1H559.164V317H556.42ZM571.432 306.668C572.645 305.492 574.148 304.904 575.94 304.904C577.732 304.904 579.225 305.492 580.42 306.668C581.633 307.825 582.24 309.309 582.24 311.12C582.24 312.912 581.633 314.405 580.42 315.6C579.225 316.776 577.732 317.364 575.94 317.364C574.148 317.364 572.645 316.776 571.432 315.6C570.237 314.405 569.64 312.912 569.64 311.12C569.64 309.309 570.237 307.825 571.432 306.668ZM573.392 313.892C574.026 314.564 574.876 314.9 575.94 314.9C577.004 314.9 577.853 314.564 578.488 313.892C579.122 313.201 579.44 312.287 579.44 311.148C579.44 309.897 579.094 308.955 578.404 308.32C577.732 307.685 576.91 307.368 575.94 307.368C574.969 307.368 574.138 307.685 573.448 308.32C572.776 308.955 572.44 309.897 572.44 311.148C572.44 312.287 572.757 313.201 573.392 313.892Z" fill="#475762"/>
<defs>
<filter id="filter0_dd" x="9" y="16" width="431" height="341" filterUnits="userSpaceOnUse" color-interpolation-filters="sRGB">
<feFlood flood-opacity="0" result="BackgroundImageFix"/>
<feColorMatrix in="SourceAlpha" type="matrix" values="0 0 0 0 0 0 0 0 0 0 0 0 0 0 0 0 0 0 127 0"/>
<feMorphology radius="6" operator="dilate" in="SourceAlpha" result="effect1_dropShadow"/>
<feOffset dx="-1" dy="5"/>
<feGaussianBlur stdDeviation="17"/>
<feColorMatrix type="matrix" values="0 0 0 0 0 0 0 0 0 0 0 0 0 0 0 0 0 0 0.06 0"/>
<feBlend mode="normal" in2="BackgroundImageFix" result="effect1_dropShadow"/>
<feColorMatrix in="SourceAlpha" type="matrix" values="0 0 0 0 0 0 0 0 0 0 0 0 0 0 0 0 0 0 127 0"/>
<feOffset dy="4"/>
<feGaussianBlur stdDeviation="2"/>
<feColorMatrix type="matrix" values="0 0 0 0 0 0 0 0 0 0 0 0 0 0 0 0 0 0 0.04 0"/>
<feBlend mode="normal" in2="effect1_dropShadow" result="effect2_dropShadow"/>
<feBlend mode="normal" in="SourceGraphic" in2="effect2_dropShadow" result="shape"/>
</filter>
<filter id="filter1_dd" x="228" y="181" width="426" height="193" filterUnits="userSpaceOnUse" color-interpolation-filters="sRGB">
<feFlood flood-opacity="0" result="BackgroundImageFix"/>
<feColorMatrix in="SourceAlpha" type="matrix" values="0 0 0 0 0 0 0 0 0 0 0 0 0 0 0 0 0 0 127 0"/>
<feOffset dx="9" dy="12"/>
<feGaussianBlur stdDeviation="12"/>
<feColorMatrix type="matrix" values="0 0 0 0 0 0 0 0 0 0 0 0 0 0 0 0 0 0 0.07 0"/>
<feBlend mode="normal" in2="BackgroundImageFix" result="effect1_dropShadow"/>
<feColorMatrix in="SourceAlpha" type="matrix" values="0 0 0 0 0 0 0 0 0 0 0 0 0 0 0 0 0 0 127 0"/>
<feOffset dy="3"/>
<feGaussianBlur stdDeviation="1.5"/>
<feColorMatrix type="matrix" values="0 0 0 0 0 0 0 0 0 0 0 0 0 0 0 0 0 0 0.03 0"/>
<feBlend mode="normal" in2="effect1_dropShadow" result="effect2_dropShadow"/>
<feBlend mode="normal" in="SourceGraphic" in2="effect2_dropShadow" result="shape"/>
</filter>
</defs>
</svg>
