<svg width="1909" height="300" viewBox="0 0 1909 300" fill="none" xmlns="http://www.w3.org/2000/svg">
<path d="M76 149H79V152H76V149Z" fill="#FFDE99"/>
<path d="M76 39H79V42H76V39Z" fill="#FFDE99"/>
<path d="M87 149H90V152H87V149Z" fill="#FFDE99"/>
<path d="M87 39H90V42H87V39Z" fill="#FFDE99"/>
<path d="M98 149H101V152H98V149Z" fill="#FFDE99"/>
<path d="M98 39H101V42H98V39Z" fill="#FFDE99"/>
<path d="M109 149H112V152H109V149Z" fill="#FFDE99"/>
<path d="M109 39H112V42H109V39Z" fill="#FFDE99"/>
<path d="M120 149H123V152H120V149Z" fill="#FFDE99"/>
<path d="M120 39H123V42H120V39Z" fill="#FFDE99"/>
<path d="M131 149H134V152H131V149Z" fill="#FFDE99"/>
<path d="M131 39H134V42H131V39Z" fill="#FFDE99"/>
<path d="M142 149H145V152H142V149Z" fill="#FFDE99"/>
<path d="M142 39H145V42H142V39Z" fill="#FFDE99"/>
<path d="M153 149H156V152H153V149Z" fill="#FFDE99"/>
<path d="M153 39H156V42H153V39Z" fill="#FFDE99"/>
<path d="M164 149H167V152H164V149Z" fill="#FFDE99"/>
<path d="M164 39H167V42H164V39Z" fill="#FFDE99"/>
<path d="M175 149H178V152H175V149Z" fill="#FFDE99"/>
<path d="M175 39H178V42H175V39Z" fill="#FFDE99"/>
<path d="M186 149H189V152H186V149Z" fill="#FFDE99"/>
<path d="M186 39H189V42H186V39Z" fill="#FFDE99"/>
<path d="M197 149H200V152H197V149Z" fill="#FFDE99"/>
<path d="M197 39H200V42H197V39Z" fill="#FFDE99"/>
<path d="M208 149H211V152H208V149Z" fill="#FFDE99"/>
<path d="M208 39H211V42H208V39Z" fill="#FFDE99"/>
<path d="M219 149H222V152H219V149Z" fill="#FFDE99"/>
<path d="M219 39H222V42H219V39Z" fill="#FFDE99"/>
<path d="M230 149H233V152H230V149Z" fill="#FFDE99"/>
<path d="M230 39H233V42H230V39Z" fill="#FFDE99"/>
<path d="M241 149H244V152H241V149Z" fill="#FFDE99"/>
<path d="M241 39H244V42H241V39Z" fill="#FFDE99"/>
<path d="M252 149H255V152H252V149Z" fill="#FFDE99"/>
<path d="M252 39H255V42H252V39Z" fill="#FFDE99"/>
<path d="M263 149H266V152H263V149Z" fill="#FFDE99"/>
<path d="M263 39H266V42H263V39Z" fill="#FFDE99"/>
<path d="M274 149H277V152H274V149Z" fill="#FFDE99"/>
<path d="M274 39H277V42H274V39Z" fill="#FFDE99"/>
<path d="M285 149H288V152H285V149Z" fill="#FFDE99"/>
<path d="M285 39H288V42H285V39Z" fill="#FFDE99"/>
<path d="M76 159H79V162H76V159Z" fill="#FFDE99"/>
<path d="M76 49H79V52H76V49Z" fill="#FFDE99"/>
<path d="M87 159H90V162H87V159Z" fill="#FFDE99"/>
<path d="M87 49H90V52H87V49Z" fill="#FFDE99"/>
<path d="M98 159H101V162H98V159Z" fill="#FFDE99"/>
<path d="M98 49H101V52H98V49Z" fill="#FFDE99"/>
<path d="M109 159H112V162H109V159Z" fill="#FFDE99"/>
<path d="M109 49H112V52H109V49Z" fill="#FFDE99"/>
<path d="M120 159H123V162H120V159Z" fill="#FFDE99"/>
<path d="M120 49H123V52H120V49Z" fill="#FFDE99"/>
<path d="M131 159H134V162H131V159Z" fill="#FFDE99"/>
<path d="M131 49H134V52H131V49Z" fill="#FFDE99"/>
<path d="M142 159H145V162H142V159Z" fill="#FFDE99"/>
<path d="M142 49H145V52H142V49Z" fill="#FFDE99"/>
<path d="M153 159H156V162H153V159Z" fill="#FFDE99"/>
<path d="M153 49H156V52H153V49Z" fill="#FFDE99"/>
<path d="M164 159H167V162H164V159Z" fill="#FFDE99"/>
<path d="M164 49H167V52H164V49Z" fill="#FFDE99"/>
<path d="M175 159H178V162H175V159Z" fill="#FFDE99"/>
<path d="M175 49H178V52H175V49Z" fill="#FFDE99"/>
<path d="M186 159H189V162H186V159Z" fill="#FFDE99"/>
<path d="M186 49H189V52H186V49Z" fill="#FFDE99"/>
<path d="M197 159H200V162H197V159Z" fill="#FFDE99"/>
<path d="M197 49H200V52H197V49Z" fill="#FFDE99"/>
<path d="M208 159H211V162H208V159Z" fill="#FFDE99"/>
<path d="M208 49H211V52H208V49Z" fill="#FFDE99"/>
<path d="M219 159H222V162H219V159Z" fill="#FFDE99"/>
<path d="M219 49H222V52H219V49Z" fill="#FFDE99"/>
<path d="M230 159H233V162H230V159Z" fill="#FFDE99"/>
<path d="M230 49H233V52H230V49Z" fill="#FFDE99"/>
<path d="M241 159H244V162H241V159Z" fill="#FFDE99"/>
<path d="M241 49H244V52H241V49Z" fill="#FFDE99"/>
<path d="M252 159H255V162H252V159Z" fill="#FFDE99"/>
<path d="M252 49H255V52H252V49Z" fill="#FFDE99"/>
<path d="M263 159H266V162H263V159Z" fill="#FFDE99"/>
<path d="M263 49H266V52H263V49Z" fill="#FFDE99"/>
<path d="M274 159H277V162H274V159Z" fill="#FFDE99"/>
<path d="M274 49H277V52H274V49Z" fill="#FFDE99"/>
<path d="M285 159H288V162H285V159Z" fill="#FFDE99"/>
<path d="M285 49H288V52H285V49Z" fill="#FFDE99"/>
<path d="M76 169H79V172H76V169Z" fill="#FFDE99"/>
<path d="M76 59H79V62H76V59Z" fill="#FFDE99"/>
<path d="M87 169H90V172H87V169Z" fill="#FFDE99"/>
<path d="M87 59H90V62H87V59Z" fill="#FFDE99"/>
<path d="M98 169H101V172H98V169Z" fill="#FFDE99"/>
<path d="M98 59H101V62H98V59Z" fill="#FFDE99"/>
<path d="M109 169H112V172H109V169Z" fill="#FFDE99"/>
<path d="M109 59H112V62H109V59Z" fill="#FFDE99"/>
<path d="M120 169H123V172H120V169Z" fill="#FFDE99"/>
<path d="M120 59H123V62H120V59Z" fill="#FFDE99"/>
<path d="M131 169H134V172H131V169Z" fill="#FFDE99"/>
<path d="M131 59H134V62H131V59Z" fill="#FFDE99"/>
<path d="M142 169H145V172H142V169Z" fill="#FFDE99"/>
<path d="M142 59H145V62H142V59Z" fill="#FFDE99"/>
<path d="M153 169H156V172H153V169Z" fill="#FFDE99"/>
<path d="M153 59H156V62H153V59Z" fill="#FFDE99"/>
<path d="M164 169H167V172H164V169Z" fill="#FFDE99"/>
<path d="M164 59H167V62H164V59Z" fill="#FFDE99"/>
<path d="M175 169H178V172H175V169Z" fill="#FFDE99"/>
<path d="M175 59H178V62H175V59Z" fill="#FFDE99"/>
<path d="M186 169H189V172H186V169Z" fill="#FFDE99"/>
<path d="M186 59H189V62H186V59Z" fill="#FFDE99"/>
<path d="M197 169H200V172H197V169Z" fill="#FFDE99"/>
<path d="M197 59H200V62H197V59Z" fill="#FFDE99"/>
<path d="M208 169H211V172H208V169Z" fill="#FFDE99"/>
<path d="M208 59H211V62H208V59Z" fill="#FFDE99"/>
<path d="M219 169H222V172H219V169Z" fill="#FFDE99"/>
<path d="M219 59H222V62H219V59Z" fill="#FFDE99"/>
<path d="M230 169H233V172H230V169Z" fill="#FFDE99"/>
<path d="M230 59H233V62H230V59Z" fill="#FFDE99"/>
<path d="M241 169H244V172H241V169Z" fill="#FFDE99"/>
<path d="M241 59H244V62H241V59Z" fill="#FFDE99"/>
<path d="M252 169H255V172H252V169Z" fill="#FFDE99"/>
<path d="M252 59H255V62H252V59Z" fill="#FFDE99"/>
<path d="M263 169H266V172H263V169Z" fill="#FFDE99"/>
<path d="M263 59H266V62H263V59Z" fill="#FFDE99"/>
<path d="M274 169H277V172H274V169Z" fill="#FFDE99"/>
<path d="M274 59H277V62H274V59Z" fill="#FFDE99"/>
<path d="M285 169H288V172H285V169Z" fill="#FFDE99"/>
<path d="M285 59H288V62H285V59Z" fill="#FFDE99"/>
<path d="M76 179H79V182H76V179Z" fill="#FFDE99"/>
<path d="M76 69H79V72H76V69Z" fill="#FFDE99"/>
<path d="M87 179H90V182H87V179Z" fill="#FFDE99"/>
<path d="M87 69H90V72H87V69Z" fill="#FFDE99"/>
<path d="M98 179H101V182H98V179Z" fill="#FFDE99"/>
<path d="M98 69H101V72H98V69Z" fill="#FFDE99"/>
<path d="M109 179H112V182H109V179Z" fill="#FFDE99"/>
<path d="M109 69H112V72H109V69Z" fill="#FFDE99"/>
<path d="M120 179H123V182H120V179Z" fill="#FFDE99"/>
<path d="M120 69H123V72H120V69Z" fill="#FFDE99"/>
<path d="M131 179H134V182H131V179Z" fill="#FFDE99"/>
<path d="M131 69H134V72H131V69Z" fill="#FFDE99"/>
<path d="M142 179H145V182H142V179Z" fill="#FFDE99"/>
<path d="M142 69H145V72H142V69Z" fill="#FFDE99"/>
<path d="M153 179H156V182H153V179Z" fill="#FFDE99"/>
<path d="M153 69H156V72H153V69Z" fill="#FFDE99"/>
<path d="M164 179H167V182H164V179Z" fill="#FFDE99"/>
<path d="M164 69H167V72H164V69Z" fill="#FFDE99"/>
<path d="M175 179H178V182H175V179Z" fill="#FFDE99"/>
<path d="M175 69H178V72H175V69Z" fill="#FFDE99"/>
<path d="M186 179H189V182H186V179Z" fill="#FFDE99"/>
<path d="M186 69H189V72H186V69Z" fill="#FFDE99"/>
<path d="M197 179H200V182H197V179Z" fill="#FFDE99"/>
<path d="M197 69H200V72H197V69Z" fill="#FFDE99"/>
<path d="M208 179H211V182H208V179Z" fill="#FFDE99"/>
<path d="M208 69H211V72H208V69Z" fill="#FFDE99"/>
<path d="M219 179H222V182H219V179Z" fill="#FFDE99"/>
<path d="M219 69H222V72H219V69Z" fill="#FFDE99"/>
<path d="M230 179H233V182H230V179Z" fill="#FFDE99"/>
<path d="M230 69H233V72H230V69Z" fill="#FFDE99"/>
<path d="M241 179H244V182H241V179Z" fill="#FFDE99"/>
<path d="M241 69H244V72H241V69Z" fill="#FFDE99"/>
<path d="M252 179H255V182H252V179Z" fill="#FFDE99"/>
<path d="M252 69H255V72H252V69Z" fill="#FFDE99"/>
<path d="M263 179H266V182H263V179Z" fill="#FFDE99"/>
<path d="M263 69H266V72H263V69Z" fill="#FFDE99"/>
<path d="M274 179H277V182H274V179Z" fill="#FFDE99"/>
<path d="M274 69H277V72H274V69Z" fill="#FFDE99"/>
<path d="M285 179H288V182H285V179Z" fill="#FFDE99"/>
<path d="M285 69H288V72H285V69Z" fill="#FFDE99"/>
<path d="M76 189H79V192H76V189Z" fill="#FFDE99"/>
<path d="M76 79H79V82H76V79Z" fill="#FFDE99"/>
<path d="M87 189H90V192H87V189Z" fill="#FFDE99"/>
<path d="M87 79H90V82H87V79Z" fill="#FFDE99"/>
<path d="M98 189H101V192H98V189Z" fill="#FFDE99"/>
<path d="M98 79H101V82H98V79Z" fill="#FFDE99"/>
<path d="M109 189H112V192H109V189Z" fill="#FFDE99"/>
<path d="M109 79H112V82H109V79Z" fill="#FFDE99"/>
<path d="M120 189H123V192H120V189Z" fill="#FFDE99"/>
<path d="M120 79H123V82H120V79Z" fill="#FFDE99"/>
<path d="M131 189H134V192H131V189Z" fill="#FFDE99"/>
<path d="M131 79H134V82H131V79Z" fill="#FFDE99"/>
<path d="M142 189H145V192H142V189Z" fill="#FFDE99"/>
<path d="M142 79H145V82H142V79Z" fill="#FFDE99"/>
<path d="M153 189H156V192H153V189Z" fill="#FFDE99"/>
<path d="M153 79H156V82H153V79Z" fill="#FFDE99"/>
<path d="M164 189H167V192H164V189Z" fill="#FFDE99"/>
<path d="M164 79H167V82H164V79Z" fill="#FFDE99"/>
<path d="M175 189H178V192H175V189Z" fill="#FFDE99"/>
<path d="M175 79H178V82H175V79Z" fill="#FFDE99"/>
<path d="M186 189H189V192H186V189Z" fill="#FFDE99"/>
<path d="M186 79H189V82H186V79Z" fill="#FFDE99"/>
<path d="M197 189H200V192H197V189Z" fill="#FFDE99"/>
<path d="M197 79H200V82H197V79Z" fill="#FFDE99"/>
<path d="M208 189H211V192H208V189Z" fill="#FFDE99"/>
<path d="M208 79H211V82H208V79Z" fill="#FFDE99"/>
<path d="M219 189H222V192H219V189Z" fill="#FFDE99"/>
<path d="M219 79H222V82H219V79Z" fill="#FFDE99"/>
<path d="M230 189H233V192H230V189Z" fill="#FFDE99"/>
<path d="M230 79H233V82H230V79Z" fill="#FFDE99"/>
<path d="M241 189H244V192H241V189Z" fill="#FFDE99"/>
<path d="M241 79H244V82H241V79Z" fill="#FFDE99"/>
<path d="M252 189H255V192H252V189Z" fill="#FFDE99"/>
<path d="M252 79H255V82H252V79Z" fill="#FFDE99"/>
<path d="M263 189H266V192H263V189Z" fill="#FFDE99"/>
<path d="M263 79H266V82H263V79Z" fill="#FFDE99"/>
<path d="M274 189H277V192H274V189Z" fill="#FFDE99"/>
<path d="M274 79H277V82H274V79Z" fill="#FFDE99"/>
<path d="M285 189H288V192H285V189Z" fill="#FFDE99"/>
<path d="M285 79H288V82H285V79Z" fill="#FFDE99"/>
<path d="M76 199H79V202H76V199Z" fill="#FFDE99"/>
<path d="M76 89H79V92H76V89Z" fill="#FFDE99"/>
<path d="M87 199H90V202H87V199Z" fill="#FFDE99"/>
<path d="M87 89H90V92H87V89Z" fill="#FFDE99"/>
<path d="M98 199H101V202H98V199Z" fill="#FFDE99"/>
<path d="M98 89H101V92H98V89Z" fill="#FFDE99"/>
<path d="M109 199H112V202H109V199Z" fill="#FFDE99"/>
<path d="M109 89H112V92H109V89Z" fill="#FFDE99"/>
<path d="M120 199H123V202H120V199Z" fill="#FFDE99"/>
<path d="M120 89H123V92H120V89Z" fill="#FFDE99"/>
<path d="M131 199H134V202H131V199Z" fill="#FFDE99"/>
<path d="M131 89H134V92H131V89Z" fill="#FFDE99"/>
<path d="M142 199H145V202H142V199Z" fill="#FFDE99"/>
<path d="M142 89H145V92H142V89Z" fill="#FFDE99"/>
<path d="M153 199H156V202H153V199Z" fill="#FFDE99"/>
<path d="M153 89H156V92H153V89Z" fill="#FFDE99"/>
<path d="M164 199H167V202H164V199Z" fill="#FFDE99"/>
<path d="M164 89H167V92H164V89Z" fill="#FFDE99"/>
<path d="M175 199H178V202H175V199Z" fill="#FFDE99"/>
<path d="M175 89H178V92H175V89Z" fill="#FFDE99"/>
<path d="M186 199H189V202H186V199Z" fill="#FFDE99"/>
<path d="M186 89H189V92H186V89Z" fill="#FFDE99"/>
<path d="M197 199H200V202H197V199Z" fill="#FFDE99"/>
<path d="M197 89H200V92H197V89Z" fill="#FFDE99"/>
<path d="M208 199H211V202H208V199Z" fill="#FFDE99"/>
<path d="M208 89H211V92H208V89Z" fill="#FFDE99"/>
<path d="M219 199H222V202H219V199Z" fill="#FFDE99"/>
<path d="M219 89H222V92H219V89Z" fill="#FFDE99"/>
<path d="M230 199H233V202H230V199Z" fill="#FFDE99"/>
<path d="M230 89H233V92H230V89Z" fill="#FFDE99"/>
<path d="M241 199H244V202H241V199Z" fill="#FFDE99"/>
<path d="M241 89H244V92H241V89Z" fill="#FFDE99"/>
<path d="M252 199H255V202H252V199Z" fill="#FFDE99"/>
<path d="M252 89H255V92H252V89Z" fill="#FFDE99"/>
<path d="M263 199H266V202H263V199Z" fill="#FFDE99"/>
<path d="M263 89H266V92H263V89Z" fill="#FFDE99"/>
<path d="M274 199H277V202H274V199Z" fill="#FFDE99"/>
<path d="M274 89H277V92H274V89Z" fill="#FFDE99"/>
<path d="M285 199H288V202H285V199Z" fill="#FFDE99"/>
<path d="M285 89H288V92H285V89Z" fill="#FFDE99"/>
<path d="M76 209H79V212H76V209Z" fill="#FFDE99"/>
<path d="M76 99H79V102H76V99Z" fill="#FFDE99"/>
<path d="M87 209H90V212H87V209Z" fill="#FFDE99"/>
<path d="M87 99H90V102H87V99Z" fill="#FFDE99"/>
<path d="M98 209H101V212H98V209Z" fill="#FFDE99"/>
<path d="M98 99H101V102H98V99Z" fill="#FFDE99"/>
<path d="M109 209H112V212H109V209Z" fill="#FFDE99"/>
<path d="M109 99H112V102H109V99Z" fill="#FFDE99"/>
<path d="M120 209H123V212H120V209Z" fill="#FFDE99"/>
<path d="M120 99H123V102H120V99Z" fill="#FFDE99"/>
<path d="M131 209H134V212H131V209Z" fill="#FFDE99"/>
<path d="M131 99H134V102H131V99Z" fill="#FFDE99"/>
<path d="M142 209H145V212H142V209Z" fill="#FFDE99"/>
<path d="M142 99H145V102H142V99Z" fill="#FFDE99"/>
<path d="M153 209H156V212H153V209Z" fill="#FFDE99"/>
<path d="M153 99H156V102H153V99Z" fill="#FFDE99"/>
<path d="M164 209H167V212H164V209Z" fill="#FFDE99"/>
<path d="M164 99H167V102H164V99Z" fill="#FFDE99"/>
<path d="M175 209H178V212H175V209Z" fill="#FFDE99"/>
<path d="M175 99H178V102H175V99Z" fill="#FFDE99"/>
<path d="M186 209H189V212H186V209Z" fill="#FFDE99"/>
<path d="M186 99H189V102H186V99Z" fill="#FFDE99"/>
<path d="M197 209H200V212H197V209Z" fill="#FFDE99"/>
<path d="M197 99H200V102H197V99Z" fill="#FFDE99"/>
<path d="M208 209H211V212H208V209Z" fill="#FFDE99"/>
<path d="M208 99H211V102H208V99Z" fill="#FFDE99"/>
<path d="M219 209H222V212H219V209Z" fill="#FFDE99"/>
<path d="M219 99H222V102H219V99Z" fill="#FFDE99"/>
<path d="M230 209H233V212H230V209Z" fill="#FFDE99"/>
<path d="M230 99H233V102H230V99Z" fill="#FFDE99"/>
<path d="M241 209H244V212H241V209Z" fill="#FFDE99"/>
<path d="M241 99H244V102H241V99Z" fill="#FFDE99"/>
<path d="M252 209H255V212H252V209Z" fill="#FFDE99"/>
<path d="M252 99H255V102H252V99Z" fill="#FFDE99"/>
<path d="M263 209H266V212H263V209Z" fill="#FFDE99"/>
<path d="M263 99H266V102H263V99Z" fill="#FFDE99"/>
<path d="M274 209H277V212H274V209Z" fill="#FFDE99"/>
<path d="M274 99H277V102H274V99Z" fill="#FFDE99"/>
<path d="M285 209H288V212H285V209Z" fill="#FFDE99"/>
<path d="M285 99H288V102H285V99Z" fill="#FFDE99"/>
<path d="M76 219H79V222H76V219Z" fill="#FFDE99"/>
<path d="M76 109H79V112H76V109Z" fill="#FFDE99"/>
<path d="M87 219H90V222H87V219Z" fill="#FFDE99"/>
<path d="M87 109H90V112H87V109Z" fill="#FFDE99"/>
<path d="M98 219H101V222H98V219Z" fill="#FFDE99"/>
<path d="M98 109H101V112H98V109Z" fill="#FFDE99"/>
<path d="M109 219H112V222H109V219Z" fill="#FFDE99"/>
<path d="M109 109H112V112H109V109Z" fill="#FFDE99"/>
<path d="M120 219H123V222H120V219Z" fill="#FFDE99"/>
<path d="M120 109H123V112H120V109Z" fill="#FFDE99"/>
<path d="M131 219H134V222H131V219Z" fill="#FFDE99"/>
<path d="M131 109H134V112H131V109Z" fill="#FFDE99"/>
<path d="M142 219H145V222H142V219Z" fill="#FFDE99"/>
<path d="M142 109H145V112H142V109Z" fill="#FFDE99"/>
<path d="M153 219H156V222H153V219Z" fill="#FFDE99"/>
<path d="M153 109H156V112H153V109Z" fill="#FFDE99"/>
<path d="M164 219H167V222H164V219Z" fill="#FFDE99"/>
<path d="M164 109H167V112H164V109Z" fill="#FFDE99"/>
<path d="M175 219H178V222H175V219Z" fill="#FFDE99"/>
<path d="M175 109H178V112H175V109Z" fill="#FFDE99"/>
<path d="M186 219H189V222H186V219Z" fill="#FFDE99"/>
<path d="M186 109H189V112H186V109Z" fill="#FFDE99"/>
<path d="M197 219H200V222H197V219Z" fill="#FFDE99"/>
<path d="M197 109H200V112H197V109Z" fill="#FFDE99"/>
<path d="M208 219H211V222H208V219Z" fill="#FFDE99"/>
<path d="M208 109H211V112H208V109Z" fill="#FFDE99"/>
<path d="M219 219H222V222H219V219Z" fill="#FFDE99"/>
<path d="M219 109H222V112H219V109Z" fill="#FFDE99"/>
<path d="M230 219H233V222H230V219Z" fill="#FFDE99"/>
<path d="M230 109H233V112H230V109Z" fill="#FFDE99"/>
<path d="M241 219H244V222H241V219Z" fill="#FFDE99"/>
<path d="M241 109H244V112H241V109Z" fill="#FFDE99"/>
<path d="M252 219H255V222H252V219Z" fill="#FFDE99"/>
<path d="M252 109H255V112H252V109Z" fill="#FFDE99"/>
<path d="M263 219H266V222H263V219Z" fill="#FFDE99"/>
<path d="M263 109H266V112H263V109Z" fill="#FFDE99"/>
<path d="M274 219H277V222H274V219Z" fill="#FFDE99"/>
<path d="M274 109H277V112H274V109Z" fill="#FFDE99"/>
<path d="M285 219H288V222H285V219Z" fill="#FFDE99"/>
<path d="M285 109H288V112H285V109Z" fill="#FFDE99"/>
<path d="M76 229H79V232H76V229Z" fill="#FFDE99"/>
<path d="M76 119H79V122H76V119Z" fill="#FFDE99"/>
<path d="M87 229H90V232H87V229Z" fill="#FFDE99"/>
<path d="M87 119H90V122H87V119Z" fill="#FFDE99"/>
<path d="M98 229H101V232H98V229Z" fill="#FFDE99"/>
<path d="M98 119H101V122H98V119Z" fill="#FFDE99"/>
<path d="M109 229H112V232H109V229Z" fill="#FFDE99"/>
<path d="M109 119H112V122H109V119Z" fill="#FFDE99"/>
<path d="M120 229H123V232H120V229Z" fill="#FFDE99"/>
<path d="M120 119H123V122H120V119Z" fill="#FFDE99"/>
<path d="M131 229H134V232H131V229Z" fill="#FFDE99"/>
<path d="M131 119H134V122H131V119Z" fill="#FFDE99"/>
<path d="M142 229H145V232H142V229Z" fill="#FFDE99"/>
<path d="M142 119H145V122H142V119Z" fill="#FFDE99"/>
<path d="M153 229H156V232H153V229Z" fill="#FFDE99"/>
<path d="M153 119H156V122H153V119Z" fill="#FFDE99"/>
<path d="M164 229H167V232H164V229Z" fill="#FFDE99"/>
<path d="M164 119H167V122H164V119Z" fill="#FFDE99"/>
<path d="M175 229H178V232H175V229Z" fill="#FFDE99"/>
<path d="M175 119H178V122H175V119Z" fill="#FFDE99"/>
<path d="M186 229H189V232H186V229Z" fill="#FFDE99"/>
<path d="M186 119H189V122H186V119Z" fill="#FFDE99"/>
<path d="M197 229H200V232H197V229Z" fill="#FFDE99"/>
<path d="M197 119H200V122H197V119Z" fill="#FFDE99"/>
<path d="M208 229H211V232H208V229Z" fill="#FFDE99"/>
<path d="M208 119H211V122H208V119Z" fill="#FFDE99"/>
<path d="M219 229H222V232H219V229Z" fill="#FFDE99"/>
<path d="M219 119H222V122H219V119Z" fill="#FFDE99"/>
<path d="M230 229H233V232H230V229Z" fill="#FFDE99"/>
<path d="M230 119H233V122H230V119Z" fill="#FFDE99"/>
<path d="M241 229H244V232H241V229Z" fill="#FFDE99"/>
<path d="M241 119H244V122H241V119Z" fill="#FFDE99"/>
<path d="M252 229H255V232H252V229Z" fill="#FFDE99"/>
<path d="M252 119H255V122H252V119Z" fill="#FFDE99"/>
<path d="M263 229H266V232H263V229Z" fill="#FFDE99"/>
<path d="M263 119H266V122H263V119Z" fill="#FFDE99"/>
<path d="M274 229H277V232H274V229Z" fill="#FFDE99"/>
<path d="M274 119H277V122H274V119Z" fill="#FFDE99"/>
<path d="M285 229H288V232H285V229Z" fill="#FFDE99"/>
<path d="M285 119H288V122H285V119Z" fill="#FFDE99"/>
<path d="M76 239H79V242H76V239Z" fill="#FFDE99"/>
<path d="M76 129H79V132H76V129Z" fill="#FFDE99"/>
<path d="M87 239H90V242H87V239Z" fill="#FFDE99"/>
<path d="M87 129H90V132H87V129Z" fill="#FFDE99"/>
<path d="M98 239H101V242H98V239Z" fill="#FFDE99"/>
<path d="M98 129H101V132H98V129Z" fill="#FFDE99"/>
<path d="M109 239H112V242H109V239Z" fill="#FFDE99"/>
<path d="M109 129H112V132H109V129Z" fill="#FFDE99"/>
<path d="M120 239H123V242H120V239Z" fill="#FFDE99"/>
<path d="M120 129H123V132H120V129Z" fill="#FFDE99"/>
<path d="M131 239H134V242H131V239Z" fill="#FFDE99"/>
<path d="M131 129H134V132H131V129Z" fill="#FFDE99"/>
<path d="M142 239H145V242H142V239Z" fill="#FFDE99"/>
<path d="M142 129H145V132H142V129Z" fill="#FFDE99"/>
<path d="M153 239H156V242H153V239Z" fill="#FFDE99"/>
<path d="M153 129H156V132H153V129Z" fill="#FFDE99"/>
<path d="M164 239H167V242H164V239Z" fill="#FFDE99"/>
<path d="M164 129H167V132H164V129Z" fill="#FFDE99"/>
<path d="M175 239H178V242H175V239Z" fill="#FFDE99"/>
<path d="M175 129H178V132H175V129Z" fill="#FFDE99"/>
<path d="M186 239H189V242H186V239Z" fill="#FFDE99"/>
<path d="M186 129H189V132H186V129Z" fill="#FFDE99"/>
<path d="M197 239H200V242H197V239Z" fill="#FFDE99"/>
<path d="M197 129H200V132H197V129Z" fill="#FFDE99"/>
<path d="M208 239H211V242H208V239Z" fill="#FFDE99"/>
<path d="M208 129H211V132H208V129Z" fill="#FFDE99"/>
<path d="M219 239H222V242H219V239Z" fill="#FFDE99"/>
<path d="M219 129H222V132H219V129Z" fill="#FFDE99"/>
<path d="M230 239H233V242H230V239Z" fill="#FFDE99"/>
<path d="M230 129H233V132H230V129Z" fill="#FFDE99"/>
<path d="M241 239H244V242H241V239Z" fill="#FFDE99"/>
<path d="M241 129H244V132H241V129Z" fill="#FFDE99"/>
<path d="M252 239H255V242H252V239Z" fill="#FFDE99"/>
<path d="M252 129H255V132H252V129Z" fill="#FFDE99"/>
<path d="M263 239H266V242H263V239Z" fill="#FFDE99"/>
<path d="M263 129H266V132H263V129Z" fill="#FFDE99"/>
<path d="M274 239H277V242H274V239Z" fill="#FFDE99"/>
<path d="M274 129H277V132H274V129Z" fill="#FFDE99"/>
<path d="M285 239H288V242H285V239Z" fill="#FFDE99"/>
<path d="M285 129H288V132H285V129Z" fill="#FFDE99"/>
<path d="M76 249H79V252H76V249Z" fill="#FFDE99"/>
<path d="M76 139H79V142H76V139Z" fill="#FFDE99"/>
<path d="M87 249H90V252H87V249Z" fill="#FFDE99"/>
<path d="M87 139H90V142H87V139Z" fill="#FFDE99"/>
<path d="M98 249H101V252H98V249Z" fill="#FFDE99"/>
<path d="M98 139H101V142H98V139Z" fill="#FFDE99"/>
<path d="M109 249H112V252H109V249Z" fill="#FFDE99"/>
<path d="M109 139H112V142H109V139Z" fill="#FFDE99"/>
<path d="M120 249H123V252H120V249Z" fill="#FFDE99"/>
<path d="M120 139H123V142H120V139Z" fill="#FFDE99"/>
<path d="M131 249H134V252H131V249Z" fill="#FFDE99"/>
<path d="M131 139H134V142H131V139Z" fill="#FFDE99"/>
<path d="M142 249H145V252H142V249Z" fill="#FFDE99"/>
<path d="M142 139H145V142H142V139Z" fill="#FFDE99"/>
<path d="M153 249H156V252H153V249Z" fill="#FFDE99"/>
<path d="M153 139H156V142H153V139Z" fill="#FFDE99"/>
<path d="M164 249H167V252H164V249Z" fill="#FFDE99"/>
<path d="M164 139H167V142H164V139Z" fill="#FFDE99"/>
<path d="M175 249H178V252H175V249Z" fill="#FFDE99"/>
<path d="M175 139H178V142H175V139Z" fill="#FFDE99"/>
<path d="M186 249H189V252H186V249Z" fill="#FFDE99"/>
<path d="M186 139H189V142H186V139Z" fill="#FFDE99"/>
<path d="M197 249H200V252H197V249Z" fill="#FFDE99"/>
<path d="M197 139H200V142H197V139Z" fill="#FFDE99"/>
<path d="M208 249H211V252H208V249Z" fill="#FFDE99"/>
<path d="M208 139H211V142H208V139Z" fill="#FFDE99"/>
<path d="M219 249H222V252H219V249Z" fill="#FFDE99"/>
<path d="M219 139H222V142H219V139Z" fill="#FFDE99"/>
<path d="M230 249H233V252H230V249Z" fill="#FFDE99"/>
<path d="M230 139H233V142H230V139Z" fill="#FFDE99"/>
<path d="M241 249H244V252H241V249Z" fill="#FFDE99"/>
<path d="M241 139H244V142H241V139Z" fill="#FFDE99"/>
<path d="M252 249H255V252H252V249Z" fill="#FFDE99"/>
<path d="M252 139H255V142H252V139Z" fill="#FFDE99"/>
<path d="M263 249H266V252H263V249Z" fill="#FFDE99"/>
<path d="M263 139H266V142H263V139Z" fill="#FFDE99"/>
<path d="M274 249H277V252H274V249Z" fill="#FFDE99"/>
<path d="M274 139H277V142H274V139Z" fill="#FFDE99"/>
<path d="M285 249H288V252H285V249Z" fill="#FFDE99"/>
<path d="M285 139H288V142H285V139Z" fill="#FFDE99"/>
<path d="M0 176H109.025V285.037C94.708 285.037 80.5304 282.217 67.3034 276.737C54.0765 271.258 42.0576 263.226 31.9335 253.101C21.8094 242.976 13.7786 230.956 8.299 217.727C2.81939 204.498 0 190.319 0 176Z" fill="#FFD170"/>
<path d="M1628.86 184.251H1630.78V186.181H1628.86V184.251Z" fill="#FFDE99"/>
<path d="M1628.86 113.502H1630.78V115.432H1628.86V113.502Z" fill="#FFDE99"/>
<path d="M1635.92 184.251H1637.85V186.181H1635.92V184.251Z" fill="#FFDE99"/>
<path d="M1635.92 113.502H1637.85V115.432H1635.92V113.502Z" fill="#FFDE99"/>
<path d="M1642.99 184.251H1644.92V186.181H1642.99V184.251Z" fill="#FFDE99"/>
<path d="M1642.99 113.502H1644.92V115.432H1642.99V113.502Z" fill="#FFDE99"/>
<path d="M1650.06 184.251H1651.99V186.181H1650.06V184.251Z" fill="#FFDE99"/>
<path d="M1650.06 113.502H1651.99V115.432H1650.06V113.502Z" fill="#FFDE99"/>
<path d="M1657.13 184.251H1659.05V186.181H1657.13V184.251Z" fill="#FFDE99"/>
<path d="M1657.13 113.502H1659.05V115.432H1657.13V113.502Z" fill="#FFDE99"/>
<path d="M1664.19 184.251H1666.12V186.181H1664.19V184.251Z" fill="#FFDE99"/>
<path d="M1664.19 113.502H1666.12V115.432H1664.19V113.502Z" fill="#FFDE99"/>
<path d="M1671.26 184.251H1673.19V186.181H1671.26V184.251Z" fill="#FFDE99"/>
<path d="M1671.26 113.502H1673.19V115.432H1671.26V113.502Z" fill="#FFDE99"/>
<path d="M1678.33 184.251H1680.26V186.181H1678.33V184.251Z" fill="#FFDE99"/>
<path d="M1678.33 113.502H1680.26V115.432H1678.33V113.502Z" fill="#FFDE99"/>
<path d="M1685.4 184.251H1687.33V186.181H1685.4V184.251Z" fill="#FFDE99"/>
<path d="M1685.4 113.502H1687.33V115.432H1685.4V113.502Z" fill="#FFDE99"/>
<path d="M1692.47 184.251H1694.39V186.181H1692.47V184.251Z" fill="#FFDE99"/>
<path d="M1692.47 113.502H1694.39V115.432H1692.47V113.502Z" fill="#FFDE99"/>
<path d="M1699.53 184.251H1701.46V186.181H1699.53V184.251Z" fill="#FFDE99"/>
<path d="M1699.53 113.502H1701.46V115.432H1699.53V113.502Z" fill="#FFDE99"/>
<path d="M1706.6 184.251H1708.53V186.181H1706.6V184.251Z" fill="#FFDE99"/>
<path d="M1706.6 113.502H1708.53V115.432H1706.6V113.502Z" fill="#FFDE99"/>
<path d="M1713.67 184.251H1715.6V186.181H1713.67V184.251Z" fill="#FFDE99"/>
<path d="M1713.67 113.502H1715.6V115.432H1713.67V113.502Z" fill="#FFDE99"/>
<path d="M1720.74 184.251H1722.67V186.181H1720.74V184.251Z" fill="#FFDE99"/>
<path d="M1720.74 113.502H1722.67V115.432H1720.74V113.502Z" fill="#FFDE99"/>
<path d="M1727.81 184.251H1729.73V186.181H1727.81V184.251Z" fill="#FFDE99"/>
<path d="M1727.81 113.502H1729.73V115.432H1727.81V113.502Z" fill="#FFDE99"/>
<path d="M1734.87 184.251H1736.8V186.181H1734.87V184.251Z" fill="#FFDE99"/>
<path d="M1734.87 113.502H1736.8V115.432H1734.87V113.502Z" fill="#FFDE99"/>
<path d="M1741.94 184.251H1743.87V186.181H1741.94V184.251Z" fill="#FFDE99"/>
<path d="M1741.94 113.502H1743.87V115.432H1741.94V113.502Z" fill="#FFDE99"/>
<path d="M1749.01 184.251H1750.94V186.181H1749.01V184.251Z" fill="#FFDE99"/>
<path d="M1749.01 113.502H1750.94V115.432H1749.01V113.502Z" fill="#FFDE99"/>
<path d="M1756.08 184.251H1758V186.181H1756.08V184.251Z" fill="#FFDE99"/>
<path d="M1756.08 113.502H1758V115.432H1756.08V113.502Z" fill="#FFDE99"/>
<path d="M1763.14 184.251H1765.07V186.181H1763.14V184.251Z" fill="#FFDE99"/>
<path d="M1763.14 113.502H1765.07V115.432H1763.14V113.502Z" fill="#FFDE99"/>
<path d="M1628.86 190.683H1630.78V192.612H1628.86V190.683Z" fill="#FFDE99"/>
<path d="M1628.86 119.934H1630.78V121.863H1628.86V119.934Z" fill="#FFDE99"/>
<path d="M1635.92 190.683H1637.85V192.612H1635.92V190.683Z" fill="#FFDE99"/>
<path d="M1635.92 119.934H1637.85V121.863H1635.92V119.934Z" fill="#FFDE99"/>
<path d="M1642.99 190.683H1644.92V192.612H1642.99V190.683Z" fill="#FFDE99"/>
<path d="M1642.99 119.934H1644.92V121.863H1642.99V119.934Z" fill="#FFDE99"/>
<path d="M1650.06 190.683H1651.99V192.612H1650.06V190.683Z" fill="#FFDE99"/>
<path d="M1650.06 119.934H1651.99V121.863H1650.06V119.934Z" fill="#FFDE99"/>
<path d="M1657.13 190.683H1659.05V192.612H1657.13V190.683Z" fill="#FFDE99"/>
<path d="M1657.13 119.934H1659.05V121.863H1657.13V119.934Z" fill="#FFDE99"/>
<path d="M1664.19 190.683H1666.12V192.612H1664.19V190.683Z" fill="#FFDE99"/>
<path d="M1664.19 119.934H1666.12V121.863H1664.19V119.934Z" fill="#FFDE99"/>
<path d="M1671.26 190.683H1673.19V192.612H1671.26V190.683Z" fill="#FFDE99"/>
<path d="M1671.26 119.934H1673.19V121.863H1671.26V119.934Z" fill="#FFDE99"/>
<path d="M1678.33 190.683H1680.26V192.612H1678.33V190.683Z" fill="#FFDE99"/>
<path d="M1678.33 119.934H1680.26V121.863H1678.33V119.934Z" fill="#FFDE99"/>
<path d="M1685.4 190.683H1687.33V192.612H1685.4V190.683Z" fill="#FFDE99"/>
<path d="M1685.4 119.934H1687.33V121.863H1685.4V119.934Z" fill="#FFDE99"/>
<path d="M1692.47 190.683H1694.39V192.612H1692.47V190.683Z" fill="#FFDE99"/>
<path d="M1692.47 119.934H1694.39V121.863H1692.47V119.934Z" fill="#FFDE99"/>
<path d="M1699.53 190.683H1701.46V192.612H1699.53V190.683Z" fill="#FFDE99"/>
<path d="M1699.53 119.934H1701.46V121.863H1699.53V119.934Z" fill="#FFDE99"/>
<path d="M1706.6 190.683H1708.53V192.612H1706.6V190.683Z" fill="#FFDE99"/>
<path d="M1706.6 119.934H1708.53V121.863H1706.6V119.934Z" fill="#FFDE99"/>
<path d="M1713.67 190.683H1715.6V192.612H1713.67V190.683Z" fill="#FFDE99"/>
<path d="M1713.67 119.934H1715.6V121.863H1713.67V119.934Z" fill="#FFDE99"/>
<path d="M1720.74 190.683H1722.67V192.612H1720.74V190.683Z" fill="#FFDE99"/>
<path d="M1720.74 119.934H1722.67V121.863H1720.74V119.934Z" fill="#FFDE99"/>
<path d="M1727.81 190.683H1729.73V192.612H1727.81V190.683Z" fill="#FFDE99"/>
<path d="M1727.81 119.934H1729.73V121.863H1727.81V119.934Z" fill="#FFDE99"/>
<path d="M1734.87 190.683H1736.8V192.612H1734.87V190.683Z" fill="#FFDE99"/>
<path d="M1734.87 119.934H1736.8V121.863H1734.87V119.934Z" fill="#FFDE99"/>
<path d="M1741.94 190.683H1743.87V192.612H1741.94V190.683Z" fill="#FFDE99"/>
<path d="M1741.94 119.934H1743.87V121.863H1741.94V119.934Z" fill="#FFDE99"/>
<path d="M1749.01 190.683H1750.94V192.612H1749.01V190.683Z" fill="#FFDE99"/>
<path d="M1749.01 119.934H1750.94V121.863H1749.01V119.934Z" fill="#FFDE99"/>
<path d="M1756.08 190.683H1758V192.612H1756.08V190.683Z" fill="#FFDE99"/>
<path d="M1756.08 119.934H1758V121.863H1756.08V119.934Z" fill="#FFDE99"/>
<path d="M1763.14 190.683H1765.07V192.612H1763.14V190.683Z" fill="#FFDE99"/>
<path d="M1763.14 119.934H1765.07V121.863H1763.14V119.934Z" fill="#FFDE99"/>
<path d="M1628.86 197.115H1630.78V199.044H1628.86V197.115Z" fill="#FFDE99"/>
<path d="M1628.86 126.366H1630.78V128.295H1628.86V126.366Z" fill="#FFDE99"/>
<path d="M1635.92 197.115H1637.85V199.044H1635.92V197.115Z" fill="#FFDE99"/>
<path d="M1635.92 126.366H1637.85V128.295H1635.92V126.366Z" fill="#FFDE99"/>
<path d="M1642.99 197.115H1644.92V199.044H1642.99V197.115Z" fill="#FFDE99"/>
<path d="M1642.99 126.366H1644.92V128.295H1642.99V126.366Z" fill="#FFDE99"/>
<path d="M1650.06 197.115H1651.99V199.044H1650.06V197.115Z" fill="#FFDE99"/>
<path d="M1650.06 126.366H1651.99V128.295H1650.06V126.366Z" fill="#FFDE99"/>
<path d="M1657.13 197.115H1659.05V199.044H1657.13V197.115Z" fill="#FFDE99"/>
<path d="M1657.13 126.366H1659.05V128.295H1657.13V126.366Z" fill="#FFDE99"/>
<path d="M1664.19 197.115H1666.12V199.044H1664.19V197.115Z" fill="#FFDE99"/>
<path d="M1664.19 126.366H1666.12V128.295H1664.19V126.366Z" fill="#FFDE99"/>
<path d="M1671.26 197.115H1673.19V199.044H1671.26V197.115Z" fill="#FFDE99"/>
<path d="M1671.26 126.366H1673.19V128.295H1671.26V126.366Z" fill="#FFDE99"/>
<path d="M1678.33 197.115H1680.26V199.044H1678.33V197.115Z" fill="#FFDE99"/>
<path d="M1678.33 126.366H1680.26V128.295H1678.33V126.366Z" fill="#FFDE99"/>
<path d="M1685.4 197.115H1687.33V199.044H1685.4V197.115Z" fill="#FFDE99"/>
<path d="M1685.4 126.366H1687.33V128.295H1685.4V126.366Z" fill="#FFDE99"/>
<path d="M1692.47 197.115H1694.39V199.044H1692.47V197.115Z" fill="#FFDE99"/>
<path d="M1692.47 126.366H1694.39V128.295H1692.47V126.366Z" fill="#FFDE99"/>
<path d="M1699.53 197.115H1701.46V199.044H1699.53V197.115Z" fill="#FFDE99"/>
<path d="M1699.53 126.366H1701.46V128.295H1699.53V126.366Z" fill="#FFDE99"/>
<path d="M1706.6 197.115H1708.53V199.044H1706.6V197.115Z" fill="#FFDE99"/>
<path d="M1706.6 126.366H1708.53V128.295H1706.6V126.366Z" fill="#FFDE99"/>
<path d="M1713.67 197.115H1715.6V199.044H1713.67V197.115Z" fill="#FFDE99"/>
<path d="M1713.67 126.366H1715.6V128.295H1713.67V126.366Z" fill="#FFDE99"/>
<path d="M1720.74 197.115H1722.67V199.044H1720.74V197.115Z" fill="#FFDE99"/>
<path d="M1720.74 126.366H1722.67V128.295H1720.74V126.366Z" fill="#FFDE99"/>
<path d="M1727.81 197.115H1729.73V199.044H1727.81V197.115Z" fill="#FFDE99"/>
<path d="M1727.81 126.366H1729.73V128.295H1727.81V126.366Z" fill="#FFDE99"/>
<path d="M1734.87 197.115H1736.8V199.044H1734.87V197.115Z" fill="#FFDE99"/>
<path d="M1734.87 126.366H1736.8V128.295H1734.87V126.366Z" fill="#FFDE99"/>
<path d="M1741.94 197.115H1743.87V199.044H1741.94V197.115Z" fill="#FFDE99"/>
<path d="M1741.94 126.366H1743.87V128.295H1741.94V126.366Z" fill="#FFDE99"/>
<path d="M1749.01 197.115H1750.94V199.044H1749.01V197.115Z" fill="#FFDE99"/>
<path d="M1749.01 126.366H1750.94V128.295H1749.01V126.366Z" fill="#FFDE99"/>
<path d="M1756.08 197.115H1758V199.044H1756.08V197.115Z" fill="#FFDE99"/>
<path d="M1756.08 126.366H1758V128.295H1756.08V126.366Z" fill="#FFDE99"/>
<path d="M1763.14 197.115H1765.07V199.044H1763.14V197.115Z" fill="#FFDE99"/>
<path d="M1763.14 126.366H1765.07V128.295H1763.14V126.366Z" fill="#FFDE99"/>
<path d="M1628.86 203.546H1630.78V205.476H1628.86V203.546Z" fill="#FFDE99"/>
<path d="M1628.86 132.797H1630.78V134.727H1628.86V132.797Z" fill="#FFDE99"/>
<path d="M1635.92 203.546H1637.85V205.476H1635.92V203.546Z" fill="#FFDE99"/>
<path d="M1635.92 132.797H1637.85V134.727H1635.92V132.797Z" fill="#FFDE99"/>
<path d="M1642.99 203.546H1644.92V205.476H1642.99V203.546Z" fill="#FFDE99"/>
<path d="M1642.99 132.797H1644.92V134.727H1642.99V132.797Z" fill="#FFDE99"/>
<path d="M1650.06 203.546H1651.99V205.476H1650.06V203.546Z" fill="#FFDE99"/>
<path d="M1650.06 132.797H1651.99V134.727H1650.06V132.797Z" fill="#FFDE99"/>
<path d="M1657.13 203.546H1659.05V205.476H1657.13V203.546Z" fill="#FFDE99"/>
<path d="M1657.13 132.797H1659.05V134.727H1657.13V132.797Z" fill="#FFDE99"/>
<path d="M1664.19 203.546H1666.12V205.476H1664.19V203.546Z" fill="#FFDE99"/>
<path d="M1664.19 132.797H1666.12V134.727H1664.19V132.797Z" fill="#FFDE99"/>
<path d="M1671.26 203.546H1673.19V205.476H1671.26V203.546Z" fill="#FFDE99"/>
<path d="M1671.26 132.797H1673.19V134.727H1671.26V132.797Z" fill="#FFDE99"/>
<path d="M1678.33 203.546H1680.26V205.476H1678.33V203.546Z" fill="#FFDE99"/>
<path d="M1678.33 132.797H1680.26V134.727H1678.33V132.797Z" fill="#FFDE99"/>
<path d="M1685.4 203.546H1687.33V205.476H1685.4V203.546Z" fill="#FFDE99"/>
<path d="M1685.4 132.797H1687.33V134.727H1685.4V132.797Z" fill="#FFDE99"/>
<path d="M1692.47 203.546H1694.39V205.476H1692.47V203.546Z" fill="#FFDE99"/>
<path d="M1692.47 132.797H1694.39V134.727H1692.47V132.797Z" fill="#FFDE99"/>
<path d="M1699.53 203.546H1701.46V205.476H1699.53V203.546Z" fill="#FFDE99"/>
<path d="M1699.53 132.797H1701.46V134.727H1699.53V132.797Z" fill="#FFDE99"/>
<path d="M1706.6 203.546H1708.53V205.476H1706.6V203.546Z" fill="#FFDE99"/>
<path d="M1706.6 132.797H1708.53V134.727H1706.6V132.797Z" fill="#FFDE99"/>
<path d="M1713.67 203.546H1715.6V205.476H1713.67V203.546Z" fill="#FFDE99"/>
<path d="M1713.67 132.797H1715.6V134.727H1713.67V132.797Z" fill="#FFDE99"/>
<path d="M1720.74 203.546H1722.67V205.476H1720.74V203.546Z" fill="#FFDE99"/>
<path d="M1720.74 132.797H1722.67V134.727H1720.74V132.797Z" fill="#FFDE99"/>
<path d="M1727.81 203.546H1729.73V205.476H1727.81V203.546Z" fill="#FFDE99"/>
<path d="M1727.81 132.797H1729.73V134.727H1727.81V132.797Z" fill="#FFDE99"/>
<path d="M1734.87 203.546H1736.8V205.476H1734.87V203.546Z" fill="#FFDE99"/>
<path d="M1734.87 132.797H1736.8V134.727H1734.87V132.797Z" fill="#FFDE99"/>
<path d="M1741.94 203.546H1743.87V205.476H1741.94V203.546Z" fill="#FFDE99"/>
<path d="M1741.94 132.797H1743.87V134.727H1741.94V132.797Z" fill="#FFDE99"/>
<path d="M1749.01 203.546H1750.94V205.476H1749.01V203.546Z" fill="#FFDE99"/>
<path d="M1749.01 132.797H1750.94V134.727H1749.01V132.797Z" fill="#FFDE99"/>
<path d="M1756.08 203.546H1758V205.476H1756.08V203.546Z" fill="#FFDE99"/>
<path d="M1756.08 132.797H1758V134.727H1756.08V132.797Z" fill="#FFDE99"/>
<path d="M1763.14 203.546H1765.07V205.476H1763.14V203.546Z" fill="#FFDE99"/>
<path d="M1763.14 132.797H1765.07V134.727H1763.14V132.797Z" fill="#FFDE99"/>
<path d="M1628.86 209.978H1630.78V211.907H1628.86V209.978Z" fill="#FFDE99"/>
<path d="M1628.86 139.229H1630.78V141.159H1628.86V139.229Z" fill="#FFDE99"/>
<path d="M1635.92 209.978H1637.85V211.907H1635.92V209.978Z" fill="#FFDE99"/>
<path d="M1635.92 139.229H1637.85V141.159H1635.92V139.229Z" fill="#FFDE99"/>
<path d="M1642.99 209.978H1644.92V211.907H1642.99V209.978Z" fill="#FFDE99"/>
<path d="M1642.99 139.229H1644.92V141.159H1642.99V139.229Z" fill="#FFDE99"/>
<path d="M1650.06 209.978H1651.99V211.907H1650.06V209.978Z" fill="#FFDE99"/>
<path d="M1650.06 139.229H1651.99V141.159H1650.06V139.229Z" fill="#FFDE99"/>
<path d="M1657.13 209.978H1659.05V211.907H1657.13V209.978Z" fill="#FFDE99"/>
<path d="M1657.13 139.229H1659.05V141.159H1657.13V139.229Z" fill="#FFDE99"/>
<path d="M1664.19 209.978H1666.12V211.907H1664.19V209.978Z" fill="#FFDE99"/>
<path d="M1664.19 139.229H1666.12V141.159H1664.19V139.229Z" fill="#FFDE99"/>
<path d="M1671.26 209.978H1673.19V211.907H1671.26V209.978Z" fill="#FFDE99"/>
<path d="M1671.26 139.229H1673.19V141.159H1671.26V139.229Z" fill="#FFDE99"/>
<path d="M1678.33 209.978H1680.26V211.907H1678.33V209.978Z" fill="#FFDE99"/>
<path d="M1678.33 139.229H1680.26V141.159H1678.33V139.229Z" fill="#FFDE99"/>
<path d="M1685.4 209.978H1687.33V211.907H1685.4V209.978Z" fill="#FFDE99"/>
<path d="M1685.4 139.229H1687.33V141.159H1685.4V139.229Z" fill="#FFDE99"/>
<path d="M1692.47 209.978H1694.39V211.907H1692.47V209.978Z" fill="#FFDE99"/>
<path d="M1692.47 139.229H1694.39V141.159H1692.47V139.229Z" fill="#FFDE99"/>
<path d="M1699.53 209.978H1701.46V211.907H1699.53V209.978Z" fill="#FFDE99"/>
<path d="M1699.53 139.229H1701.46V141.159H1699.53V139.229Z" fill="#FFDE99"/>
<path d="M1706.6 209.978H1708.53V211.907H1706.6V209.978Z" fill="#FFDE99"/>
<path d="M1706.6 139.229H1708.53V141.159H1706.6V139.229Z" fill="#FFDE99"/>
<path d="M1713.67 209.978H1715.6V211.907H1713.67V209.978Z" fill="#FFDE99"/>
<path d="M1713.67 139.229H1715.6V141.159H1713.67V139.229Z" fill="#FFDE99"/>
<path d="M1720.74 209.978H1722.67V211.907H1720.74V209.978Z" fill="#FFDE99"/>
<path d="M1720.74 139.229H1722.67V141.159H1720.74V139.229Z" fill="#FFDE99"/>
<path d="M1727.81 209.978H1729.73V211.907H1727.81V209.978Z" fill="#FFDE99"/>
<path d="M1727.81 139.229H1729.73V141.159H1727.81V139.229Z" fill="#FFDE99"/>
<path d="M1734.87 209.978H1736.8V211.907H1734.87V209.978Z" fill="#FFDE99"/>
<path d="M1734.87 139.229H1736.8V141.159H1734.87V139.229Z" fill="#FFDE99"/>
<path d="M1741.94 209.978H1743.87V211.907H1741.94V209.978Z" fill="#FFDE99"/>
<path d="M1741.94 139.229H1743.87V141.159H1741.94V139.229Z" fill="#FFDE99"/>
<path d="M1749.01 209.978H1750.94V211.907H1749.01V209.978Z" fill="#FFDE99"/>
<path d="M1749.01 139.229H1750.94V141.159H1749.01V139.229Z" fill="#FFDE99"/>
<path d="M1756.08 209.978H1758V211.907H1756.08V209.978Z" fill="#FFDE99"/>
<path d="M1756.08 139.229H1758V141.159H1756.08V139.229Z" fill="#FFDE99"/>
<path d="M1763.14 209.978H1765.07V211.907H1763.14V209.978Z" fill="#FFDE99"/>
<path d="M1763.14 139.229H1765.07V141.159H1763.14V139.229Z" fill="#FFDE99"/>
<path d="M1628.86 216.41H1630.78V218.339H1628.86V216.41Z" fill="#FFDE99"/>
<path d="M1628.86 145.661H1630.78V147.59H1628.86V145.661Z" fill="#FFDE99"/>
<path d="M1635.92 216.41H1637.85V218.339H1635.92V216.41Z" fill="#FFDE99"/>
<path d="M1635.92 145.661H1637.85V147.59H1635.92V145.661Z" fill="#FFDE99"/>
<path d="M1642.99 216.41H1644.92V218.339H1642.99V216.41Z" fill="#FFDE99"/>
<path d="M1642.99 145.661H1644.92V147.59H1642.99V145.661Z" fill="#FFDE99"/>
<path d="M1650.06 216.41H1651.99V218.339H1650.06V216.41Z" fill="#FFDE99"/>
<path d="M1650.06 145.661H1651.99V147.59H1650.06V145.661Z" fill="#FFDE99"/>
<path d="M1657.13 216.41H1659.05V218.339H1657.13V216.41Z" fill="#FFDE99"/>
<path d="M1657.13 145.661H1659.05V147.59H1657.13V145.661Z" fill="#FFDE99"/>
<path d="M1664.19 216.41H1666.12V218.339H1664.19V216.41Z" fill="#FFDE99"/>
<path d="M1664.19 145.661H1666.12V147.59H1664.19V145.661Z" fill="#FFDE99"/>
<path d="M1671.26 216.41H1673.19V218.339H1671.26V216.41Z" fill="#FFDE99"/>
<path d="M1671.26 145.661H1673.19V147.59H1671.26V145.661Z" fill="#FFDE99"/>
<path d="M1678.33 216.41H1680.26V218.339H1678.33V216.41Z" fill="#FFDE99"/>
<path d="M1678.33 145.661H1680.26V147.59H1678.33V145.661Z" fill="#FFDE99"/>
<path d="M1685.4 216.41H1687.33V218.339H1685.4V216.41Z" fill="#FFDE99"/>
<path d="M1685.4 145.661H1687.33V147.59H1685.4V145.661Z" fill="#FFDE99"/>
<path d="M1692.47 216.41H1694.39V218.339H1692.47V216.41Z" fill="#FFDE99"/>
<path d="M1692.47 145.661H1694.39V147.59H1692.47V145.661Z" fill="#FFDE99"/>
<path d="M1699.53 216.41H1701.46V218.339H1699.53V216.41Z" fill="#FFDE99"/>
<path d="M1699.53 145.661H1701.46V147.59H1699.53V145.661Z" fill="#FFDE99"/>
<path d="M1706.6 216.41H1708.53V218.339H1706.6V216.41Z" fill="#FFDE99"/>
<path d="M1706.6 145.661H1708.53V147.59H1706.6V145.661Z" fill="#FFDE99"/>
<path d="M1713.67 216.41H1715.6V218.339H1713.67V216.41Z" fill="#FFDE99"/>
<path d="M1713.67 145.661H1715.6V147.59H1713.67V145.661Z" fill="#FFDE99"/>
<path d="M1720.74 216.41H1722.67V218.339H1720.74V216.41Z" fill="#FFDE99"/>
<path d="M1720.74 145.661H1722.67V147.59H1720.74V145.661Z" fill="#FFDE99"/>
<path d="M1727.81 216.41H1729.73V218.339H1727.81V216.41Z" fill="#FFDE99"/>
<path d="M1727.81 145.661H1729.73V147.59H1727.81V145.661Z" fill="#FFDE99"/>
<path d="M1734.87 216.41H1736.8V218.339H1734.87V216.41Z" fill="#FFDE99"/>
<path d="M1734.87 145.661H1736.8V147.59H1734.87V145.661Z" fill="#FFDE99"/>
<path d="M1741.94 216.41H1743.87V218.339H1741.94V216.41Z" fill="#FFDE99"/>
<path d="M1741.94 145.661H1743.87V147.59H1741.94V145.661Z" fill="#FFDE99"/>
<path d="M1749.01 216.41H1750.94V218.339H1749.01V216.41Z" fill="#FFDE99"/>
<path d="M1749.01 145.661H1750.94V147.59H1749.01V145.661Z" fill="#FFDE99"/>
<path d="M1756.08 216.41H1758V218.339H1756.08V216.41Z" fill="#FFDE99"/>
<path d="M1756.08 145.661H1758V147.59H1756.08V145.661Z" fill="#FFDE99"/>
<path d="M1763.14 216.41H1765.07V218.339H1763.14V216.41Z" fill="#FFDE99"/>
<path d="M1763.14 145.661H1765.07V147.59H1763.14V145.661Z" fill="#FFDE99"/>
<path d="M1628.86 222.841H1630.78V224.771H1628.86V222.841Z" fill="#FFDE99"/>
<path d="M1628.86 152.093H1630.78V154.022H1628.86V152.093Z" fill="#FFDE99"/>
<path d="M1635.92 222.841H1637.85V224.771H1635.92V222.841Z" fill="#FFDE99"/>
<path d="M1635.92 152.093H1637.85V154.022H1635.92V152.093Z" fill="#FFDE99"/>
<path d="M1642.99 222.841H1644.92V224.771H1642.99V222.841Z" fill="#FFDE99"/>
<path d="M1642.99 152.093H1644.92V154.022H1642.99V152.093Z" fill="#FFDE99"/>
<path d="M1650.06 222.841H1651.99V224.771H1650.06V222.841Z" fill="#FFDE99"/>
<path d="M1650.06 152.093H1651.99V154.022H1650.06V152.093Z" fill="#FFDE99"/>
<path d="M1657.13 222.841H1659.05V224.771H1657.13V222.841Z" fill="#FFDE99"/>
<path d="M1657.13 152.093H1659.05V154.022H1657.13V152.093Z" fill="#FFDE99"/>
<path d="M1664.19 222.841H1666.12V224.771H1664.19V222.841Z" fill="#FFDE99"/>
<path d="M1664.19 152.093H1666.12V154.022H1664.19V152.093Z" fill="#FFDE99"/>
<path d="M1671.26 222.841H1673.19V224.771H1671.26V222.841Z" fill="#FFDE99"/>
<path d="M1671.26 152.093H1673.19V154.022H1671.26V152.093Z" fill="#FFDE99"/>
<path d="M1678.33 222.841H1680.26V224.771H1678.33V222.841Z" fill="#FFDE99"/>
<path d="M1678.33 152.093H1680.26V154.022H1678.33V152.093Z" fill="#FFDE99"/>
<path d="M1685.4 222.841H1687.33V224.771H1685.4V222.841Z" fill="#FFDE99"/>
<path d="M1685.4 152.093H1687.33V154.022H1685.4V152.093Z" fill="#FFDE99"/>
<path d="M1692.47 222.841H1694.39V224.771H1692.47V222.841Z" fill="#FFDE99"/>
<path d="M1692.47 152.093H1694.39V154.022H1692.47V152.093Z" fill="#FFDE99"/>
<path d="M1699.53 222.841H1701.46V224.771H1699.53V222.841Z" fill="#FFDE99"/>
<path d="M1699.53 152.093H1701.46V154.022H1699.53V152.093Z" fill="#FFDE99"/>
<path d="M1706.6 222.841H1708.53V224.771H1706.6V222.841Z" fill="#FFDE99"/>
<path d="M1706.6 152.093H1708.53V154.022H1706.6V152.093Z" fill="#FFDE99"/>
<path d="M1713.67 222.841H1715.6V224.771H1713.67V222.841Z" fill="#FFDE99"/>
<path d="M1713.67 152.093H1715.6V154.022H1713.67V152.093Z" fill="#FFDE99"/>
<path d="M1720.74 222.841H1722.67V224.771H1720.74V222.841Z" fill="#FFDE99"/>
<path d="M1720.74 152.093H1722.67V154.022H1720.74V152.093Z" fill="#FFDE99"/>
<path d="M1727.81 222.841H1729.73V224.771H1727.81V222.841Z" fill="#FFDE99"/>
<path d="M1727.81 152.093H1729.73V154.022H1727.81V152.093Z" fill="#FFDE99"/>
<path d="M1734.87 222.841H1736.8V224.771H1734.87V222.841Z" fill="#FFDE99"/>
<path d="M1734.87 152.093H1736.8V154.022H1734.87V152.093Z" fill="#FFDE99"/>
<path d="M1741.94 222.841H1743.87V224.771H1741.94V222.841Z" fill="#FFDE99"/>
<path d="M1741.94 152.093H1743.87V154.022H1741.94V152.093Z" fill="#FFDE99"/>
<path d="M1749.01 222.841H1750.94V224.771H1749.01V222.841Z" fill="#FFDE99"/>
<path d="M1749.01 152.093H1750.94V154.022H1749.01V152.093Z" fill="#FFDE99"/>
<path d="M1756.08 222.841H1758V224.771H1756.08V222.841Z" fill="#FFDE99"/>
<path d="M1756.08 152.093H1758V154.022H1756.08V152.093Z" fill="#FFDE99"/>
<path d="M1763.14 222.841H1765.07V224.771H1763.14V222.841Z" fill="#FFDE99"/>
<path d="M1763.14 152.093H1765.07V154.022H1763.14V152.093Z" fill="#FFDE99"/>
<path d="M1628.86 229.273H1630.78V231.203H1628.86V229.273Z" fill="#FFDE99"/>
<path d="M1628.86 158.524H1630.78V160.454H1628.86V158.524Z" fill="#FFDE99"/>
<path d="M1635.92 229.273H1637.85V231.203H1635.92V229.273Z" fill="#FFDE99"/>
<path d="M1635.92 158.524H1637.85V160.454H1635.92V158.524Z" fill="#FFDE99"/>
<path d="M1642.99 229.273H1644.92V231.203H1642.99V229.273Z" fill="#FFDE99"/>
<path d="M1642.99 158.524H1644.92V160.454H1642.99V158.524Z" fill="#FFDE99"/>
<path d="M1650.06 229.273H1651.99V231.203H1650.06V229.273Z" fill="#FFDE99"/>
<path d="M1650.06 158.524H1651.99V160.454H1650.06V158.524Z" fill="#FFDE99"/>
<path d="M1657.13 229.273H1659.05V231.203H1657.13V229.273Z" fill="#FFDE99"/>
<path d="M1657.13 158.524H1659.05V160.454H1657.13V158.524Z" fill="#FFDE99"/>
<path d="M1664.19 229.273H1666.12V231.203H1664.19V229.273Z" fill="#FFDE99"/>
<path d="M1664.19 158.524H1666.12V160.454H1664.19V158.524Z" fill="#FFDE99"/>
<path d="M1671.26 229.273H1673.19V231.203H1671.26V229.273Z" fill="#FFDE99"/>
<path d="M1671.26 158.524H1673.19V160.454H1671.26V158.524Z" fill="#FFDE99"/>
<path d="M1678.33 229.273H1680.26V231.203H1678.33V229.273Z" fill="#FFDE99"/>
<path d="M1678.33 158.524H1680.26V160.454H1678.33V158.524Z" fill="#FFDE99"/>
<path d="M1685.4 229.273H1687.33V231.203H1685.4V229.273Z" fill="#FFDE99"/>
<path d="M1685.4 158.524H1687.33V160.454H1685.4V158.524Z" fill="#FFDE99"/>
<path d="M1692.47 229.273H1694.39V231.203H1692.47V229.273Z" fill="#FFDE99"/>
<path d="M1692.47 158.524H1694.39V160.454H1692.47V158.524Z" fill="#FFDE99"/>
<path d="M1699.53 229.273H1701.46V231.203H1699.53V229.273Z" fill="#FFDE99"/>
<path d="M1699.53 158.524H1701.46V160.454H1699.53V158.524Z" fill="#FFDE99"/>
<path d="M1706.6 229.273H1708.53V231.203H1706.6V229.273Z" fill="#FFDE99"/>
<path d="M1706.6 158.524H1708.53V160.454H1706.6V158.524Z" fill="#FFDE99"/>
<path d="M1713.67 229.273H1715.6V231.203H1713.67V229.273Z" fill="#FFDE99"/>
<path d="M1713.67 158.524H1715.6V160.454H1713.67V158.524Z" fill="#FFDE99"/>
<path d="M1720.74 229.273H1722.67V231.203H1720.74V229.273Z" fill="#FFDE99"/>
<path d="M1720.74 158.524H1722.67V160.454H1720.74V158.524Z" fill="#FFDE99"/>
<path d="M1727.81 229.273H1729.73V231.203H1727.81V229.273Z" fill="#FFDE99"/>
<path d="M1727.81 158.524H1729.73V160.454H1727.81V158.524Z" fill="#FFDE99"/>
<path d="M1734.87 229.273H1736.8V231.203H1734.87V229.273Z" fill="#FFDE99"/>
<path d="M1734.87 158.524H1736.8V160.454H1734.87V158.524Z" fill="#FFDE99"/>
<path d="M1741.94 229.273H1743.87V231.203H1741.94V229.273Z" fill="#FFDE99"/>
<path d="M1741.94 158.524H1743.87V160.454H1741.94V158.524Z" fill="#FFDE99"/>
<path d="M1749.01 229.273H1750.94V231.203H1749.01V229.273Z" fill="#FFDE99"/>
<path d="M1749.01 158.524H1750.94V160.454H1749.01V158.524Z" fill="#FFDE99"/>
<path d="M1756.08 229.273H1758V231.203H1756.08V229.273Z" fill="#FFDE99"/>
<path d="M1756.08 158.524H1758V160.454H1756.08V158.524Z" fill="#FFDE99"/>
<path d="M1763.14 229.273H1765.07V231.203H1763.14V229.273Z" fill="#FFDE99"/>
<path d="M1763.14 158.524H1765.07V160.454H1763.14V158.524Z" fill="#FFDE99"/>
<path d="M1628.86 235.705H1630.78V237.634H1628.86V235.705Z" fill="#FFDE99"/>
<path d="M1628.86 164.956H1630.78V166.885H1628.86V164.956Z" fill="#FFDE99"/>
<path d="M1635.92 235.705H1637.85V237.634H1635.92V235.705Z" fill="#FFDE99"/>
<path d="M1635.92 164.956H1637.85V166.885H1635.92V164.956Z" fill="#FFDE99"/>
<path d="M1642.99 235.705H1644.92V237.634H1642.99V235.705Z" fill="#FFDE99"/>
<path d="M1642.99 164.956H1644.92V166.885H1642.99V164.956Z" fill="#FFDE99"/>
<path d="M1650.06 235.705H1651.99V237.634H1650.06V235.705Z" fill="#FFDE99"/>
<path d="M1650.06 164.956H1651.99V166.885H1650.06V164.956Z" fill="#FFDE99"/>
<path d="M1657.13 235.705H1659.05V237.634H1657.13V235.705Z" fill="#FFDE99"/>
<path d="M1657.13 164.956H1659.05V166.885H1657.13V164.956Z" fill="#FFDE99"/>
<path d="M1664.19 235.705H1666.12V237.634H1664.19V235.705Z" fill="#FFDE99"/>
<path d="M1664.19 164.956H1666.12V166.885H1664.19V164.956Z" fill="#FFDE99"/>
<path d="M1671.26 235.705H1673.19V237.634H1671.26V235.705Z" fill="#FFDE99"/>
<path d="M1671.26 164.956H1673.19V166.885H1671.26V164.956Z" fill="#FFDE99"/>
<path d="M1678.33 235.705H1680.26V237.634H1678.33V235.705Z" fill="#FFDE99"/>
<path d="M1678.33 164.956H1680.26V166.885H1678.33V164.956Z" fill="#FFDE99"/>
<path d="M1685.4 235.705H1687.33V237.634H1685.4V235.705Z" fill="#FFDE99"/>
<path d="M1685.4 164.956H1687.33V166.885H1685.4V164.956Z" fill="#FFDE99"/>
<path d="M1692.47 235.705H1694.39V237.634H1692.47V235.705Z" fill="#FFDE99"/>
<path d="M1692.47 164.956H1694.39V166.885H1692.47V164.956Z" fill="#FFDE99"/>
<path d="M1699.53 235.705H1701.46V237.634H1699.53V235.705Z" fill="#FFDE99"/>
<path d="M1699.53 164.956H1701.46V166.885H1699.53V164.956Z" fill="#FFDE99"/>
<path d="M1706.6 235.705H1708.53V237.634H1706.6V235.705Z" fill="#FFDE99"/>
<path d="M1706.6 164.956H1708.53V166.885H1706.6V164.956Z" fill="#FFDE99"/>
<path d="M1713.67 235.705H1715.6V237.634H1713.67V235.705Z" fill="#FFDE99"/>
<path d="M1713.67 164.956H1715.6V166.885H1713.67V164.956Z" fill="#FFDE99"/>
<path d="M1720.74 235.705H1722.67V237.634H1720.74V235.705Z" fill="#FFDE99"/>
<path d="M1720.74 164.956H1722.67V166.885H1720.74V164.956Z" fill="#FFDE99"/>
<path d="M1727.81 235.705H1729.73V237.634H1727.81V235.705Z" fill="#FFDE99"/>
<path d="M1727.81 164.956H1729.73V166.885H1727.81V164.956Z" fill="#FFDE99"/>
<path d="M1734.87 235.705H1736.8V237.634H1734.87V235.705Z" fill="#FFDE99"/>
<path d="M1734.87 164.956H1736.8V166.885H1734.87V164.956Z" fill="#FFDE99"/>
<path d="M1741.94 235.705H1743.87V237.634H1741.94V235.705Z" fill="#FFDE99"/>
<path d="M1741.94 164.956H1743.87V166.885H1741.94V164.956Z" fill="#FFDE99"/>
<path d="M1749.01 235.705H1750.94V237.634H1749.01V235.705Z" fill="#FFDE99"/>
<path d="M1749.01 164.956H1750.94V166.885H1749.01V164.956Z" fill="#FFDE99"/>
<path d="M1756.08 235.705H1758V237.634H1756.08V235.705Z" fill="#FFDE99"/>
<path d="M1756.08 164.956H1758V166.885H1756.08V164.956Z" fill="#FFDE99"/>
<path d="M1763.14 235.705H1765.07V237.634H1763.14V235.705Z" fill="#FFDE99"/>
<path d="M1763.14 164.956H1765.07V166.885H1763.14V164.956Z" fill="#FFDE99"/>
<path d="M1628.86 242.137H1630.78V244.066H1628.86V242.137Z" fill="#FFDE99"/>
<path d="M1628.86 171.388H1630.78V173.317H1628.86V171.388Z" fill="#FFDE99"/>
<path d="M1635.92 242.137H1637.85V244.066H1635.92V242.137Z" fill="#FFDE99"/>
<path d="M1635.92 171.388H1637.85V173.317H1635.92V171.388Z" fill="#FFDE99"/>
<path d="M1642.99 242.137H1644.92V244.066H1642.99V242.137Z" fill="#FFDE99"/>
<path d="M1642.99 171.388H1644.92V173.317H1642.99V171.388Z" fill="#FFDE99"/>
<path d="M1650.06 242.137H1651.99V244.066H1650.06V242.137Z" fill="#FFDE99"/>
<path d="M1650.06 171.388H1651.99V173.317H1650.06V171.388Z" fill="#FFDE99"/>
<path d="M1657.13 242.137H1659.05V244.066H1657.13V242.137Z" fill="#FFDE99"/>
<path d="M1657.13 171.388H1659.05V173.317H1657.13V171.388Z" fill="#FFDE99"/>
<path d="M1664.19 242.137H1666.12V244.066H1664.19V242.137Z" fill="#FFDE99"/>
<path d="M1664.19 171.388H1666.12V173.317H1664.19V171.388Z" fill="#FFDE99"/>
<path d="M1671.26 242.137H1673.19V244.066H1671.26V242.137Z" fill="#FFDE99"/>
<path d="M1671.26 171.388H1673.19V173.317H1671.26V171.388Z" fill="#FFDE99"/>
<path d="M1678.33 242.137H1680.26V244.066H1678.33V242.137Z" fill="#FFDE99"/>
<path d="M1678.33 171.388H1680.26V173.317H1678.33V171.388Z" fill="#FFDE99"/>
<path d="M1685.4 242.137H1687.33V244.066H1685.4V242.137Z" fill="#FFDE99"/>
<path d="M1685.4 171.388H1687.33V173.317H1685.4V171.388Z" fill="#FFDE99"/>
<path d="M1692.47 242.137H1694.39V244.066H1692.47V242.137Z" fill="#FFDE99"/>
<path d="M1692.47 171.388H1694.39V173.317H1692.47V171.388Z" fill="#FFDE99"/>
<path d="M1699.53 242.137H1701.46V244.066H1699.53V242.137Z" fill="#FFDE99"/>
<path d="M1699.53 171.388H1701.46V173.317H1699.53V171.388Z" fill="#FFDE99"/>
<path d="M1706.6 242.137H1708.53V244.066H1706.6V242.137Z" fill="#FFDE99"/>
<path d="M1706.6 171.388H1708.53V173.317H1706.6V171.388Z" fill="#FFDE99"/>
<path d="M1713.67 242.137H1715.6V244.066H1713.67V242.137Z" fill="#FFDE99"/>
<path d="M1713.67 171.388H1715.6V173.317H1713.67V171.388Z" fill="#FFDE99"/>
<path d="M1720.74 242.137H1722.67V244.066H1720.74V242.137Z" fill="#FFDE99"/>
<path d="M1720.74 171.388H1722.67V173.317H1720.74V171.388Z" fill="#FFDE99"/>
<path d="M1727.81 242.137H1729.73V244.066H1727.81V242.137Z" fill="#FFDE99"/>
<path d="M1727.81 171.388H1729.73V173.317H1727.81V171.388Z" fill="#FFDE99"/>
<path d="M1734.87 242.137H1736.8V244.066H1734.87V242.137Z" fill="#FFDE99"/>
<path d="M1734.87 171.388H1736.8V173.317H1734.87V171.388Z" fill="#FFDE99"/>
<path d="M1741.94 242.137H1743.87V244.066H1741.94V242.137Z" fill="#FFDE99"/>
<path d="M1741.94 171.388H1743.87V173.317H1741.94V171.388Z" fill="#FFDE99"/>
<path d="M1749.01 242.137H1750.94V244.066H1749.01V242.137Z" fill="#FFDE99"/>
<path d="M1749.01 171.388H1750.94V173.317H1749.01V171.388Z" fill="#FFDE99"/>
<path d="M1756.08 242.137H1758V244.066H1756.08V242.137Z" fill="#FFDE99"/>
<path d="M1756.08 171.388H1758V173.317H1756.08V171.388Z" fill="#FFDE99"/>
<path d="M1763.14 242.137H1765.07V244.066H1763.14V242.137Z" fill="#FFDE99"/>
<path d="M1763.14 171.388H1765.07V173.317H1763.14V171.388Z" fill="#FFDE99"/>
<path d="M1628.86 248.568H1630.78V250.498H1628.86V248.568Z" fill="#FFDE99"/>
<path d="M1628.86 177.819H1630.78V179.749H1628.86V177.819Z" fill="#FFDE99"/>
<path d="M1635.92 248.568H1637.85V250.498H1635.92V248.568Z" fill="#FFDE99"/>
<path d="M1635.92 177.819H1637.85V179.749H1635.92V177.819Z" fill="#FFDE99"/>
<path d="M1642.99 248.568H1644.92V250.498H1642.99V248.568Z" fill="#FFDE99"/>
<path d="M1642.99 177.819H1644.92V179.749H1642.99V177.819Z" fill="#FFDE99"/>
<path d="M1650.06 248.568H1651.99V250.498H1650.06V248.568Z" fill="#FFDE99"/>
<path d="M1650.06 177.819H1651.99V179.749H1650.06V177.819Z" fill="#FFDE99"/>
<path d="M1657.13 248.568H1659.05V250.498H1657.13V248.568Z" fill="#FFDE99"/>
<path d="M1657.13 177.819H1659.05V179.749H1657.13V177.819Z" fill="#FFDE99"/>
<path d="M1664.19 248.568H1666.12V250.498H1664.19V248.568Z" fill="#FFDE99"/>
<path d="M1664.19 177.819H1666.12V179.749H1664.19V177.819Z" fill="#FFDE99"/>
<path d="M1671.26 248.568H1673.19V250.498H1671.26V248.568Z" fill="#FFDE99"/>
<path d="M1671.26 177.819H1673.19V179.749H1671.26V177.819Z" fill="#FFDE99"/>
<path d="M1678.33 248.568H1680.26V250.498H1678.33V248.568Z" fill="#FFDE99"/>
<path d="M1678.33 177.819H1680.26V179.749H1678.33V177.819Z" fill="#FFDE99"/>
<path d="M1685.4 248.568H1687.33V250.498H1685.4V248.568Z" fill="#FFDE99"/>
<path d="M1685.4 177.819H1687.33V179.749H1685.4V177.819Z" fill="#FFDE99"/>
<path d="M1692.47 248.568H1694.39V250.498H1692.47V248.568Z" fill="#FFDE99"/>
<path d="M1692.47 177.819H1694.39V179.749H1692.47V177.819Z" fill="#FFDE99"/>
<path d="M1699.53 248.568H1701.46V250.498H1699.53V248.568Z" fill="#FFDE99"/>
<path d="M1699.53 177.819H1701.46V179.749H1699.53V177.819Z" fill="#FFDE99"/>
<path d="M1706.6 248.568H1708.53V250.498H1706.6V248.568Z" fill="#FFDE99"/>
<path d="M1706.6 177.819H1708.53V179.749H1706.6V177.819Z" fill="#FFDE99"/>
<path d="M1713.67 248.568H1715.6V250.498H1713.67V248.568Z" fill="#FFDE99"/>
<path d="M1713.67 177.819H1715.6V179.749H1713.67V177.819Z" fill="#FFDE99"/>
<path d="M1720.74 248.568H1722.67V250.498H1720.74V248.568Z" fill="#FFDE99"/>
<path d="M1720.74 177.819H1722.67V179.749H1720.74V177.819Z" fill="#FFDE99"/>
<path d="M1727.81 248.568H1729.73V250.498H1727.81V248.568Z" fill="#FFDE99"/>
<path d="M1727.81 177.819H1729.73V179.749H1727.81V177.819Z" fill="#FFDE99"/>
<path d="M1734.87 248.568H1736.8V250.498H1734.87V248.568Z" fill="#FFDE99"/>
<path d="M1734.87 177.819H1736.8V179.749H1734.87V177.819Z" fill="#FFDE99"/>
<path d="M1741.94 248.568H1743.87V250.498H1741.94V248.568Z" fill="#FFDE99"/>
<path d="M1741.94 177.819H1743.87V179.749H1741.94V177.819Z" fill="#FFDE99"/>
<path d="M1749.01 248.568H1750.94V250.498H1749.01V248.568Z" fill="#FFDE99"/>
<path d="M1749.01 177.819H1750.94V179.749H1749.01V177.819Z" fill="#FFDE99"/>
<path d="M1756.08 248.568H1758V250.498H1756.08V248.568Z" fill="#FFDE99"/>
<path d="M1756.08 177.819H1758V179.749H1756.08V177.819Z" fill="#FFDE99"/>
<path d="M1763.14 248.568H1765.07V250.498H1763.14V248.568Z" fill="#FFDE99"/>
<path d="M1763.14 177.819H1765.07V179.749H1763.14V177.819Z" fill="#FFDE99"/>
<path d="M865.252 148.464C866.063 148.773 866.965 149.01 867.928 149.167C884.26 150.315 900.512 151.733 916.963 152.474C937.93 153.421 959.037 153.881 980.111 154.408C985.449 154.554 990.881 154.267 996.248 154.288C999.65 154.301 1002.99 154.623 1006.39 154.617C1015.22 154.589 1024.08 154.483 1032.95 154.35C1034.49 154.324 1036.06 153.85 1037.62 153.777C1038.58 153.721 1039.53 154.254 1040.49 154.217C1048.79 153.865 1057.09 153.558 1065.39 153.019C1076.66 152.292 1087.98 151.691 1099.17 150.471C1116.22 148.648 1133.11 146.194 1147.37 139.879C1156.71 135.728 1164.82 131.093 1165.96 124.223C1166.87 119.23 1164.22 114.968 1159.13 111.239C1155.37 108.414 1150.74 105.912 1146.68 103.215C1145.55 102.473 1145.02 101.45 1143.94 100.666C1142.42 99.3881 1140.63 98.2202 1138.59 97.1846C1126.53 91.93 1113.42 87.3983 1099.47 83.6595C1089.21 80.8352 1078.78 78.1045 1068.12 75.7372C1033.94 68.1616 998.574 62.4089 961.308 59.6582C936.397 57.824 911.245 56.7801 885.798 57.4541C870.431 57.8592 855.02 59.1269 839.637 60.0696C827.177 60.8018 814.726 61.6951 802.269 62.4982C779.421 63.9831 756.941 66.6298 735.228 71.5335C724.365 73.9825 714.265 77.1757 706.345 82.213C697.236 88.0121 694.787 97.5067 701.247 103.691C706.426 108.669 713.966 112.748 723.154 115.544C728.033 117.048 733.073 118.433 737.631 120.177C741.515 121.669 744.572 123.752 748.398 125.28C754.395 127.669 760.816 129.724 766.872 132.103C768.809 132.856 770.009 134.124 771.752 135.05C776.497 137.539 780.866 140.334 786.288 142.318C794.587 145.367 803.564 147.918 812.413 150.534C817.142 151.931 822.212 153.023 827.123 154.255C828.798 154.155 830.462 154.272 831.976 154.597C833.491 154.922 834.813 155.445 835.832 156.122C841.534 157.165 847.226 158.221 852.939 159.25C854.15 159.469 855.463 159.606 856.706 159.772L870.473 161.899C871.904 162.436 873.448 162.885 875.079 163.238C908.483 168.109 942.608 171.759 977.235 174.165C999.074 175.675 1020.85 177.422 1042.83 178.471C1062.11 179.395 1081.64 179.528 1101.07 179.945C1104.17 180.008 1107.35 179.705 1110.49 179.637C1112.19 179.619 1113.9 179.403 1115.5 179.004C1117.09 178.605 1118.54 178.031 1119.74 177.321C1120.05 177.151 1120.39 177.002 1120.77 176.879C1121.74 176.55 1122.74 176.233 1123.73 175.903L1120.93 174.988C1121.13 174.862 1121.35 174.747 1121.59 174.645C1122.55 174.324 1123.51 174.022 1124.46 173.713C1123.34 173.417 1122.23 172.836 1121.07 172.865C1082.27 173.71 1044.67 170.429 1006.98 167.561C962.901 164.201 919.343 159.738 876.798 153.366C866.987 151.899 857.285 150.258 847.673 148.514C840.632 147.216 833.801 145.649 827.229 143.824C830.668 144.269 834.096 144.714 837.555 145.08C844.788 145.89 852.162 146.64 859.444 147.466C860.413 147.656 861.323 147.916 862.149 148.239L865.252 148.464ZM1073.02 90.3416C1076.86 91.0344 1080.82 91.5906 1084.51 92.4536C1101.35 96.3412 1116.95 101.518 1130.84 107.838C1135.67 110.044 1139.42 112.921 1143.74 115.487C1148.92 118.453 1152.05 122.329 1152.66 126.531C1152.85 127.781 1152.41 129.423 1151.03 130.39C1147.88 132.606 1143.45 134.069 1138.2 135.063C1141.58 131.302 1142.91 127.673 1138.95 124.466C1136.18 122.204 1132.83 120.176 1129.01 118.434C1117.42 113.224 1103.66 109.894 1089.68 106.836C1067.74 102.039 1044.82 98.7049 1021.41 96.1359C991.163 92.7393 960.137 91.0206 928.789 91.0053C917.902 90.9983 906.99 91.1806 896.082 91.4335C873.946 91.9416 851.793 93.755 830.013 96.8419C818.135 98.5164 806.48 100.533 795.272 103.624C783.876 106.77 773.581 110.324 768.31 117.035C767.663 117.849 766.891 118.16 765.29 117.814C761.492 116.977 757.559 116.283 753.783 115.406C750.723 114.693 747.204 114.124 744.976 112.903C739.914 110.238 736.781 106.655 736.079 102.73C735.546 99.5736 736.314 96.334 739.58 93.6265C743.486 90.39 747.57 86.936 753.969 84.9563C757.063 83.992 758.168 81.612 762.371 81.5914C762.705 81.5718 763.101 80.9729 763.514 80.6577C764.786 79.684 767.634 79.8466 768.468 78.556C768.656 78.6042 768.855 78.6402 769.062 78.6634C769.921 78.7731 770.829 78.7772 771.721 78.6752C780.728 76.4388 789.631 74.0725 799.083 72.476C807.663 70.9438 816.493 70.0206 825.342 69.7302C830.927 69.596 836.644 70.2689 842.295 68.818C843.381 68.5408 845.141 69.3427 846.626 69.3524C856.451 69.4218 866.292 69.5613 876.141 69.4223C885.714 69.2866 895.056 70.71 904.89 69.5113C907.15 69.2362 910.169 69.0523 912.414 70.3625C913.418 70.9501 916.102 69.9388 918.406 70.4306C920.711 70.9225 924.113 70.5222 927.01 70.5136C927.106 70.508 927.194 70.5739 927.302 70.5805C933.699 71.0193 939.908 71.9219 946.195 72.5096C969.968 74.7533 993.653 77.1122 1016.82 80.5165C1022.04 81.2833 1027.17 82.2433 1032.53 82.827C1039.64 83.5667 1046.97 83.9186 1053.24 85.9426C1055.61 86.7023 1058.73 86.8229 1061.45 87.3095C1062.49 87.5433 1063.48 87.827 1064.41 88.1574L1073.02 90.3416ZM930.279 98.0181L928.309 96.8923C928.977 96.7481 929.676 96.6633 930.378 96.6414C931.583 96.7582 932.794 96.9844 934.002 97.1656L930.121 97.9693C930.952 98.2503 931.748 98.7596 932.623 98.7664C934.288 98.772 936.068 98.2922 937.691 98.3844C940.009 98.5068 942.189 99.1224 944.51 99.2771C962.447 100.234 980.457 100.993 998.343 102.095C1005.39 102.529 1012.26 103.573 1019.09 104.543C1030.68 106.19 1042.9 106.765 1054.09 109.108C1055.02 109.306 1056.23 109.169 1057.2 109.345C1060.84 110.005 1064.47 110.677 1068.11 111.434C1071.39 112.133 1074.52 113.042 1077.82 113.689C1081.11 114.336 1084.46 114.65 1087.73 115.215C1096.51 116.723 1103.71 119.688 1111.2 122.332C1115.26 123.9 1119.02 125.672 1122.44 127.628C1124.25 128.668 1125.86 129.813 1127.22 131.046C1128.8 132.331 1127.56 133.134 1124.97 133.442C1117.48 134.347 1109.99 135.563 1102.46 136.006C1067.13 138.082 1032.08 137.452 997.105 136.674C977.534 136.24 958.037 135.439 938.55 134.612C906.324 133.24 874.314 131.273 842.705 128.164C820.432 126.078 798.474 123.334 776.925 119.944C774.192 119.496 774.47 118.93 775.966 117.892C781.091 114.416 787.909 112.017 794.918 110.227C803.91 107.94 813.602 106.575 822.969 104.764C823.632 104.634 824.041 104.054 824.66 103.772C825.278 103.49 826.237 103.104 826.997 102.781L828.001 103.369L825.403 103.786L826.05 104.188C827.723 103.928 829.442 103.433 831.049 103.461C836.12 103.545 840.903 102.391 845.903 102.09C854.401 101.591 862.887 100.672 871.371 99.9471C873.6 99.7515 875.809 99.4341 878.04 99.2965C880.046 99.1787 882.048 99.2163 884.022 99.1843C885.506 99.1682 887.002 99.1451 888.487 99.1419C889.972 99.1387 891.68 99.4715 892.593 99.1074C895.285 98.0375 897.824 98.4573 900.375 98.6501C902.59 98.8433 904.649 99.2397 905.882 97.5959C906.082 97.3255 907.056 97.1971 907.742 97.0469C907.826 97.042 908.312 97.3626 908.245 97.4441C906.978 98.9153 909.22 98.1435 910.002 98.2139C911.076 98.2881 912.162 98.3258 913.255 98.3267C915.114 98.3726 916.972 98.4056 918.842 98.4316C921.107 98.4537 923.688 98.1469 925.545 98.568C927.702 99.0038 928.824 98.5239 930.279 98.0052L930.279 98.0181ZM745.869 75.7129C746.398 75.9534 747.003 76.4547 747.454 76.3958C751.805 75.8362 756.113 75.1756 760.449 74.5716C761.282 74.4903 762.119 74.4411 762.956 74.4243C762.496 74.8146 761.954 75.1766 761.342 75.5021C757.568 77.0948 753.628 78.542 749.955 80.2323C737.565 85.8297 730.157 92.8545 728.438 101.317C727.975 103.614 728.614 105.93 728.776 108.695C719.357 105.55 711.625 102.163 707.009 97.183C704.757 94.7287 704.196 91.9099 707.49 89.2655C714.146 83.9144 724.533 81.5257 734.557 78.8673C738.4 77.8202 743.184 77.9076 745.868 75.7L745.869 75.7129ZM864.358 60.072C909.238 57.0855 980.664 58.4627 1063.64 76.0841C1084.77 80.4989 1104.78 86.1762 1123.33 93.0181C1044.39 67.9876 957.937 56.4937 864.357 60.0591L864.358 60.072ZM1119.31 116.812L1118.94 117.215C1114.52 115.968 1110.15 114.654 1105.66 113.469C1089.84 109.25 1073.23 105.851 1056.05 103.315C1040.88 101.142 1025.65 98.9063 1010.11 97.4982C990.58 95.7358 970.73 94.6388 950.929 93.5584C942.614 93.1029 934.076 93.333 925.629 93.2732C920.693 93.2399 915.747 93.259 910.814 93.2709C905.88 93.2827 900.851 93.3066 895.87 93.3277C899.629 92.8022 903.454 92.5101 907.269 92.4574C918.706 92.5182 930.129 92.6705 941.537 92.914C971.383 93.5206 1000.91 95.1485 1029.55 98.9168C1046.52 101.153 1063.24 103.843 1079.86 106.643C1093.96 108.975 1107.24 112.393 1119.31 116.799L1119.31 116.812ZM819.989 145.349L820.533 144.832C824.503 145.737 828.383 146.744 832.441 147.527C841.829 149.336 851.206 151.152 860.749 152.751C872.072 154.672 883.537 156.359 895.014 158.038C896.79 158.302 898.87 159.26 900.996 157.939C901.403 158.042 901.791 158.165 902.156 158.304C903.438 158.72 904.612 159.349 905.999 159.507C927.512 161.869 949.051 164.196 970.616 166.49C973.762 166.829 976.928 167.109 980.096 167.414C978.37 167.625 976.609 167.632 974.935 167.433C952.017 165.067 929.121 162.684 906.248 160.281C903.983 160.046 902.985 160.189 903.392 161.613C903.339 162.141 903.101 162.666 902.692 163.161C902.177 162.739 901.578 162.341 901.144 161.888C900.186 160.864 900.539 159.53 897.473 159.116C885.85 157.535 874.3 155.826 862.822 153.987C855.241 152.77 847.847 151.258 840.399 149.86C835.554 148.941 830.71 148.03 825.86 147.028C823.835 146.529 821.874 145.965 819.988 145.336L819.989 145.349ZM957.053 137.657L956.877 138.12C947.068 137.72 937.239 137.373 927.45 136.894C901.602 135.632 875.791 134.187 850.411 131.721C840.136 130.714 829.921 129.523 819.744 128.35C814.571 127.748 809.485 127.012 804.353 126.299C802.386 126.033 800.407 125.78 798.427 125.522L798.753 124.946C850.415 131.792 903.393 135.54 957.052 137.644L957.053 137.657ZM943.674 146.203C900.885 145.031 858.715 142.381 818.15 135.873C859.24 140.978 901.192 144.42 943.672 146.171L943.674 146.203ZM776.49 66.8908L776.465 66.4654L806.137 63.9135C806.147 64.0875 806.157 64.2616 806.167 64.4291L776.49 66.8908ZM990.047 168.2L989.816 168.75L984.262 168.184L984.43 167.786L990.047 168.2Z" fill="#FFD170"/>
<path d="M1779.51 190C1809.62 190 1834.03 214.409 1834.03 244.519V299.037H1725V244.519C1725 214.409 1749.41 190 1779.51 190Z" fill="#FFD170"/>
<path d="M1485 41C1499.91 41 1512 53.0883 1512 68C1512 82.9117 1499.91 95 1485 95C1470.09 95 1458 82.9117 1458 68C1458 53.0883 1470.09 41 1485 41Z" fill="#FFD170"/>
<path d="M1800 1.30026e-06L1909.04 0L1909.04 109.025C1894.72 109.025 1880.54 106.206 1867.31 100.726C1854.08 95.2466 1842.06 87.2158 1831.94 77.0917C1821.81 66.9676 1813.78 54.9487 1808.3 41.7218C1802.82 28.4948 1800 14.3172 1800 1.30026e-06Z" fill="#FFD170"/>
<path d="M1332.04 207.18C1331.94 205.95 1332.96 204.924 1334.19 205.025L1344.21 205.851C1345.91 205.991 1346.66 208.055 1345.46 209.259L1336.25 218.45C1335.05 219.654 1332.98 218.894 1332.85 217.196L1332.04 207.18Z" fill="#FFD170"/>
<path d="M1388.2 216.694C1381.3 216.694 1375.7 222.291 1375.7 229.194C1375.7 236.098 1381.3 241.694 1388.2 241.694C1395.11 241.694 1400.7 236.098 1400.7 229.194C1400.7 222.291 1395.11 216.694 1388.2 216.694Z" stroke="#FFD170" stroke-width="3"/>
<path d="M477.5 41C484.404 41 490 46.5964 490 53.5C490 60.4036 484.404 66 477.5 66C470.596 66 465 60.4036 465 53.5C465 46.5964 470.596 41 477.5 41Z" stroke="#FFD170" stroke-width="3"/>
<circle r="6.5" transform="matrix(-1 0 0 1 1355.2 260.194)" fill="#FFD170"/>
<circle cx="519.5" cy="72.5" r="6.5" fill="#FFD170"/>
<path d="M480.042 220.547L480.044 220.549L462.192 209.675L473.023 191.819C473.914 190.349 473.472 188.397 472.005 187.504L469.721 186.113C468.255 185.22 466.317 185.722 465.426 187.192L454.595 205.048L436.744 194.174C435.278 193.282 433.364 193.743 432.472 195.213L431.076 197.515C430.185 198.984 430.66 200.894 432.126 201.787L449.979 212.661L439.109 230.582C438.218 232.05 438.704 233.941 440.17 234.834L442.455 236.226C443.921 237.119 445.815 236.677 446.706 235.209L457.575 217.288L475.424 228.16C476.891 229.053 478.804 228.598 479.695 227.129L481.091 224.827C481.983 223.357 481.508 221.441 480.042 220.547Z" fill="#FFD170"/>
<path d="M590.922 250.212L590.924 250.213L573.072 239.339L583.903 221.483C584.794 220.013 584.352 218.061 582.885 217.168L580.601 215.777C579.135 214.884 577.197 215.386 576.306 216.856L565.475 234.712L547.624 223.838C546.158 222.946 544.244 223.407 543.352 224.877L541.956 227.179C541.065 228.648 541.54 230.558 543.006 231.451L560.859 242.325L549.989 260.246C549.098 261.715 549.584 263.605 551.05 264.498L553.335 265.89C554.801 266.783 556.695 266.341 557.586 264.873L568.455 246.952L586.304 257.824C587.771 258.717 589.684 258.262 590.575 256.793L591.971 254.491C592.863 253.021 592.388 251.105 590.922 250.212Z" fill="#FFD170"/>
</svg>
