<svg width="66" height="66" viewBox="0 0 66 66" fill="none" xmlns="http://www.w3.org/2000/svg">
<circle cx="33" cy="33" r="33" fill="#FFE3A7"/>
<path d="M31.495 33.562C31.495 35.2087 31.3173 36.6387 30.962 37.852C30.6067 39.0653 30.117 40.0707 29.493 40.868C28.869 41.6567 28.128 42.246 27.27 42.636C26.4207 43.0173 25.502 43.208 24.514 43.208C23.526 43.208 22.6073 43.0173 21.758 42.636C20.9087 42.246 20.1763 41.6567 19.561 40.868C18.9457 40.0707 18.4603 39.0653 18.105 37.852C17.7583 36.6387 17.585 35.2087 17.585 33.562C17.585 31.9153 17.7583 30.4897 18.105 29.285C18.4603 28.0717 18.9457 27.0707 19.561 26.282C20.1763 25.4847 20.9087 24.8953 21.758 24.514C22.6073 24.124 23.526 23.929 24.514 23.929C25.502 23.929 26.4207 24.124 27.27 24.514C28.128 24.8953 28.869 25.4847 29.493 26.282C30.117 27.0707 30.6067 28.0717 30.962 29.285C31.3173 30.4897 31.495 31.9153 31.495 33.562ZM27.79 33.562C27.79 32.2273 27.6947 31.1267 27.504 30.26C27.322 29.3933 27.0793 28.7087 26.776 28.206C26.4727 27.7033 26.1217 27.3523 25.723 27.153C25.333 26.9537 24.93 26.854 24.514 26.854C24.098 26.854 23.695 26.9537 23.305 27.153C22.9237 27.3523 22.5813 27.7033 22.278 28.206C21.9833 28.7087 21.745 29.3933 21.563 30.26C21.381 31.1267 21.29 32.2273 21.29 33.562C21.29 34.9053 21.381 36.0103 21.563 36.877C21.745 37.7437 21.9833 38.4283 22.278 38.931C22.5813 39.4337 22.9237 39.7847 23.305 39.984C23.695 40.1833 24.098 40.283 24.514 40.283C24.93 40.283 25.333 40.1833 25.723 39.984C26.1217 39.7847 26.4727 39.4337 26.776 38.931C27.0793 38.4283 27.322 37.7437 27.504 36.877C27.6947 36.0103 27.79 34.9053 27.79 33.562ZM33.369 29.454C33.5077 28.5353 33.7677 27.7293 34.149 27.036C34.5304 26.3427 35.007 25.7663 35.579 25.307C36.151 24.8477 36.801 24.5053 37.529 24.28C38.2657 24.046 39.0587 23.929 39.908 23.929C40.8094 23.929 41.6154 24.059 42.326 24.319C43.0454 24.5703 43.652 24.917 44.146 25.359C44.64 25.801 45.017 26.3167 45.277 26.906C45.5457 27.4953 45.68 28.128 45.68 28.804C45.68 29.402 45.615 29.9307 45.485 30.39C45.3637 30.8407 45.1774 31.235 44.926 31.573C44.6834 31.911 44.38 32.197 44.016 32.431C43.6607 32.665 43.249 32.86 42.781 33.016C44.9477 33.7267 46.031 35.1697 46.031 37.345C46.031 38.307 45.8534 39.1563 45.498 39.893C45.1427 40.621 44.666 41.232 44.068 41.726C43.47 42.22 42.7724 42.5927 41.975 42.844C41.1864 43.0867 40.3587 43.208 39.492 43.208C38.5734 43.208 37.763 43.104 37.061 42.896C36.359 42.688 35.7394 42.376 35.202 41.96C34.6734 41.544 34.2184 41.024 33.837 40.4C33.4557 39.7673 33.122 39.0307 32.836 38.19L34.422 37.54C34.838 37.3667 35.2237 37.319 35.579 37.397C35.943 37.475 36.203 37.6657 36.359 37.969C36.5324 38.2983 36.7144 38.6017 36.905 38.879C37.1044 39.1563 37.3254 39.399 37.568 39.607C37.8107 39.8063 38.0837 39.9623 38.387 40.075C38.699 40.1877 39.0544 40.244 39.453 40.244C39.9557 40.244 40.3934 40.1617 40.766 39.997C41.1387 39.8323 41.4507 39.62 41.702 39.36C41.9534 39.0913 42.1397 38.7923 42.261 38.463C42.391 38.125 42.456 37.7913 42.456 37.462C42.456 37.0287 42.417 36.6387 42.339 36.292C42.261 35.9367 42.079 35.6377 41.793 35.395C41.5157 35.1437 41.0997 34.953 40.545 34.823C39.999 34.6843 39.2537 34.615 38.309 34.615V32.093C39.0977 32.093 39.7434 32.028 40.246 31.898C40.7487 31.768 41.143 31.586 41.429 31.352C41.715 31.118 41.91 30.8363 42.014 30.507C42.1267 30.1777 42.183 29.818 42.183 29.428C42.183 28.6047 41.9664 27.9763 41.533 27.543C41.1084 27.1097 40.5017 26.893 39.713 26.893C39.3664 26.893 39.0457 26.945 38.751 27.049C38.465 27.1443 38.205 27.2787 37.971 27.452C37.7457 27.6253 37.5507 27.829 37.386 28.063C37.2214 28.297 37.1 28.5527 37.022 28.83C36.8574 29.2633 36.645 29.5537 36.385 29.701C36.125 29.8397 35.748 29.87 35.254 29.792L33.369 29.454Z" fill="#292929"/>
</svg>
