<svg width="66" height="66" viewBox="0 0 66 66" fill="none" xmlns="http://www.w3.org/2000/svg">
<circle cx="33" cy="33" r="33" fill="#FFBBAF"/>
<path d="M31.495 33.562C31.495 35.2087 31.3173 36.6387 30.962 37.852C30.6067 39.0653 30.117 40.0707 29.493 40.868C28.869 41.6567 28.128 42.246 27.27 42.636C26.4207 43.0173 25.502 43.208 24.514 43.208C23.526 43.208 22.6073 43.0173 21.758 42.636C20.9087 42.246 20.1763 41.6567 19.561 40.868C18.9457 40.0707 18.4603 39.0653 18.105 37.852C17.7583 36.6387 17.585 35.2087 17.585 33.562C17.585 31.9153 17.7583 30.4897 18.105 29.285C18.4603 28.0717 18.9457 27.0707 19.561 26.282C20.1763 25.4847 20.9087 24.8953 21.758 24.514C22.6073 24.124 23.526 23.929 24.514 23.929C25.502 23.929 26.4207 24.124 27.27 24.514C28.128 24.8953 28.869 25.4847 29.493 26.282C30.117 27.0707 30.6067 28.0717 30.962 29.285C31.3173 30.4897 31.495 31.9153 31.495 33.562ZM27.79 33.562C27.79 32.2273 27.6947 31.1267 27.504 30.26C27.322 29.3933 27.0793 28.7087 26.776 28.206C26.4727 27.7033 26.1217 27.3523 25.723 27.153C25.333 26.9537 24.93 26.854 24.514 26.854C24.098 26.854 23.695 26.9537 23.305 27.153C22.9237 27.3523 22.5813 27.7033 22.278 28.206C21.9833 28.7087 21.745 29.3933 21.563 30.26C21.381 31.1267 21.29 32.2273 21.29 33.562C21.29 34.9053 21.381 36.0103 21.563 36.877C21.745 37.7437 21.9833 38.4283 22.278 38.931C22.5813 39.4337 22.9237 39.7847 23.305 39.984C23.695 40.1833 24.098 40.283 24.514 40.283C24.93 40.283 25.333 40.1833 25.723 39.984C26.1217 39.7847 26.4727 39.4337 26.776 38.931C27.0793 38.4283 27.322 37.7437 27.504 36.877C27.6947 36.0103 27.79 34.9053 27.79 33.562ZM44.809 39.711C45.199 39.711 45.5024 39.8193 45.719 40.036C45.9444 40.2527 46.057 40.5387 46.057 40.894V43H32.979V41.83C32.979 41.6047 33.0267 41.362 33.122 41.102C33.2174 40.8333 33.3777 40.5907 33.603 40.374L39.193 34.771C39.6697 34.2943 40.09 33.8393 40.454 33.406C40.818 32.964 41.1214 32.535 41.364 32.119C41.6067 31.6943 41.7887 31.2653 41.91 30.832C42.0314 30.3987 42.092 29.9437 42.092 29.467C42.092 28.6263 41.8754 27.9893 41.442 27.556C41.0087 27.114 40.3977 26.893 39.609 26.893C39.2624 26.893 38.9417 26.945 38.647 27.049C38.361 27.1443 38.101 27.2787 37.867 27.452C37.6417 27.6253 37.4467 27.829 37.282 28.063C37.1174 28.297 36.996 28.5527 36.918 28.83C36.762 29.2633 36.5497 29.5537 36.281 29.701C36.021 29.8397 35.6484 29.87 35.163 29.792L33.265 29.454C33.4037 28.5353 33.6637 27.7293 34.045 27.036C34.4264 26.3427 34.903 25.7663 35.475 25.307C36.047 24.8477 36.7014 24.5053 37.438 24.28C38.1747 24.046 38.9677 23.929 39.817 23.929C40.7097 23.929 41.52 24.0633 42.248 24.332C42.9847 24.592 43.613 24.9603 44.133 25.437C44.653 25.905 45.056 26.4727 45.342 27.14C45.628 27.8073 45.771 28.544 45.771 29.35C45.771 30.0433 45.6714 30.6847 45.472 31.274C45.2727 31.8633 44.9997 32.4267 44.653 32.964C44.315 33.4927 43.9207 34.0083 43.47 34.511C43.0194 35.0137 42.5427 35.5207 42.04 36.032L38.036 40.127C38.478 39.997 38.9157 39.8973 39.349 39.828C39.7824 39.75 40.1897 39.711 40.571 39.711H44.809Z" fill="#292929"/>
</svg>
