<svg width="66" height="66" viewBox="0 0 66 66" fill="none" xmlns="http://www.w3.org/2000/svg">
<circle cx="33" cy="33" r="33" fill="#CCE1FF"/>
<path d="M31.495 33.562C31.495 35.2087 31.3173 36.6387 30.962 37.852C30.6067 39.0653 30.117 40.0707 29.493 40.868C28.869 41.6567 28.128 42.246 27.27 42.636C26.4207 43.0173 25.502 43.208 24.514 43.208C23.526 43.208 22.6073 43.0173 21.758 42.636C20.9087 42.246 20.1763 41.6567 19.561 40.868C18.9457 40.0707 18.4603 39.0653 18.105 37.852C17.7583 36.6387 17.585 35.2087 17.585 33.562C17.585 31.9153 17.7583 30.4897 18.105 29.285C18.4603 28.0717 18.9457 27.0707 19.561 26.282C20.1763 25.4847 20.9087 24.8953 21.758 24.514C22.6073 24.124 23.526 23.929 24.514 23.929C25.502 23.929 26.4207 24.124 27.27 24.514C28.128 24.8953 28.869 25.4847 29.493 26.282C30.117 27.0707 30.6067 28.0717 30.962 29.285C31.3173 30.4897 31.495 31.9153 31.495 33.562ZM27.79 33.562C27.79 32.2273 27.6947 31.1267 27.504 30.26C27.322 29.3933 27.0793 28.7087 26.776 28.206C26.4727 27.7033 26.1217 27.3523 25.723 27.153C25.333 26.9537 24.93 26.854 24.514 26.854C24.098 26.854 23.695 26.9537 23.305 27.153C22.9237 27.3523 22.5813 27.7033 22.278 28.206C21.9833 28.7087 21.745 29.3933 21.563 30.26C21.381 31.1267 21.29 32.2273 21.29 33.562C21.29 34.9053 21.381 36.0103 21.563 36.877C21.745 37.7437 21.9833 38.4283 22.278 38.931C22.5813 39.4337 22.9237 39.7847 23.305 39.984C23.695 40.1833 24.098 40.283 24.514 40.283C24.93 40.283 25.333 40.1833 25.723 39.984C26.1217 39.7847 26.4727 39.4337 26.776 38.931C27.0793 38.4283 27.322 37.7437 27.504 36.877C27.6947 36.0103 27.79 34.9053 27.79 33.562ZM41.234 35.798V30.182C41.234 29.8873 41.2427 29.5753 41.26 29.246C41.286 28.908 41.3207 28.557 41.364 28.193L35.904 35.798H41.234ZM46.538 35.798V37.826C46.538 38.0167 46.473 38.1813 46.343 38.32C46.2217 38.45 46.0484 38.515 45.823 38.515H44.354V43H41.234V38.515H33.447C33.2217 38.515 33.0137 38.4457 32.823 38.307C32.641 38.1683 32.5284 37.9863 32.485 37.761L32.108 35.967L40.948 24.124H44.354V35.798H46.538Z" fill="#292929"/>
</svg>
