<svg width="20" height="20" viewBox="0 0 20 20" fill="none" xmlns="http://www.w3.org/2000/svg">
<g clip-path="url(#clip0)">
<path d="M19.7081 2.65276C19.3717 2.38245 18.88 2.43608 18.6097 2.77241L8.21451 15.7098C8.07341 15.8607 7.88271 15.9481 7.67556 15.9564C7.46232 15.965 7.26037 15.8888 7.10826 15.7443L1.32185 10.1978C1.01033 9.8992 0.515835 9.90971 0.217242 10.2212C-0.081313 10.5326 -0.0708443 11.0272 0.24064 11.3258L6.02935 16.8745C6.46919 17.2926 7.03834 17.5196 7.64138 17.5196C7.67361 17.5196 7.70603 17.519 7.73841 17.5176C8.37716 17.492 8.96384 17.2155 9.39029 16.7393C9.39955 16.7289 9.40853 16.7183 9.41728 16.7075L19.8277 3.75112C20.098 3.41475 20.0444 2.92303 19.7081 2.65276Z" fill="#1A78ED"/>
</g>
<defs>
<clipPath id="clip0">
<rect width="20" height="20" fill="white"/>
</clipPath>
</defs>
</svg>
