<svg width="18" height="18" viewBox="0 0 18 18" fill="none" xmlns="http://www.w3.org/2000/svg">
<g clip-path="url(#clip0)">
<path d="M17.7374 2.38742C17.4346 2.14414 16.9921 2.19241 16.7489 2.49511L7.39314 14.1387C7.26616 14.2746 7.09452 14.3532 6.90809 14.3607C6.71617 14.3685 6.53441 14.2999 6.39752 14.1698L1.18975 9.17792C0.909379 8.90922 0.464336 8.91868 0.195601 9.19898C-0.0730978 9.47931 -0.0636759 9.92439 0.21666 10.1931L5.4265 15.187C5.82236 15.5633 6.33459 15.7676 6.87733 15.7676C6.90633 15.7676 6.93551 15.767 6.96466 15.7658C7.53953 15.7427 8.06754 15.4939 8.45134 15.0653C8.45968 15.056 8.46776 15.0464 8.47564 15.0367L17.8451 3.37595C18.0883 3.07322 18.0401 2.63067 17.7374 2.38742Z" fill="#FD6F55"/>
</g>
<defs>
<clipPath id="clip0">
<rect width="18" height="18" fill="white"/>
</clipPath>
</defs>
</svg>
