<svg width="21" height="21" viewBox="0 0 21 21" fill="none" xmlns="http://www.w3.org/2000/svg">
<path d="M12.7303 10.4138L20.3015 2.98731C20.5098 2.78288 20.6247 2.51014 20.625 2.21931C20.625 1.92832 20.5101 1.65526 20.3015 1.45115L19.638 0.800546C19.4294 0.595627 19.1514 0.483398 18.8545 0.483398C18.5582 0.483398 18.2801 0.595627 18.0715 0.800546L10.5003 8.22654L2.92881 0.800546C2.72054 0.595627 2.44231 0.483398 2.14564 0.483398C1.8493 0.483398 1.57107 0.595627 1.3628 0.800546L0.699 1.45115C0.267 1.87487 0.267 2.56407 0.699 2.98731L8.27036 10.4138L0.699 17.8399C0.490573 18.0447 0.375823 18.3174 0.375823 18.6083C0.375823 18.8991 0.490573 19.1718 0.699 19.3764L1.36264 20.027C1.5709 20.2318 1.8493 20.3442 2.14548 20.3442C2.44215 20.3442 2.72038 20.2318 2.92864 20.027L10.5002 12.6009L18.0714 20.027C18.28 20.2318 18.558 20.3442 18.8544 20.3442H18.8547C19.1512 20.3442 19.4293 20.2318 19.6379 20.027L20.3013 19.3764C20.5096 19.172 20.6245 18.8991 20.6245 18.6083C20.6245 18.3174 20.5096 18.0447 20.3013 17.8401L12.7303 10.4138Z" fill="#292929"/>
</svg>
