<svg width="32" height="29" viewBox="0 0 32 29" fill="none" xmlns="http://www.w3.org/2000/svg">
<circle cx="14.5" cy="14.5" r="14.5" fill="#FFC854"/>
<path d="M31.584 6.52121L30.7323 5.66955C30.4647 5.40173 30.1079 5.25439 29.727 5.25439C29.3461 5.25439 28.9891 5.40173 28.7215 5.66955L16.7545 17.6363L9.27769 10.1593C9.01008 9.89191 8.65306 9.74436 8.27215 9.74436C7.89145 9.74436 7.53463 9.89191 7.26681 10.1593L6.41494 11.0108C6.14712 11.279 6 11.6362 6 12.0167C6 12.3974 6.14712 12.7544 6.41494 13.0223L14.8567 21.4636C14.8679 21.4795 14.8797 21.4942 14.8935 21.5078L15.7453 22.3455C16.013 22.6122 16.37 22.7456 16.7539 22.7456H16.7583C17.1394 22.7456 17.4964 22.6122 17.7636 22.3455L18.6157 21.5004C18.6294 21.4869 18.6411 21.4756 18.648 21.4642L31.5838 8.52976C32.1387 7.97615 32.1387 7.07545 31.584 6.52121Z" fill="#292929"/>
</svg>
