<svg width="72" height="72" viewBox="0 0 72 72" fill="none" xmlns="http://www.w3.org/2000/svg">
<g clip-path="url(#clip0)">
<path d="M69.5262 44.056L59.4119 33.9417L58.2831 33.5623L57.8971 32.4269L36.6365 11.1663C35.5249 10.0547 34.0172 9.4303 32.4452 9.4303H11.4119C9.5087 9.4303 7.96576 10.9732 7.96576 12.8765V33.9099C7.96576 35.4819 8.59027 36.9896 9.70177 38.1012L30.9623 59.3617L32.0872 59.7253L32.477 60.8766L42.5913 70.9909C43.9371 72.3367 46.119 72.3367 47.4648 70.9909L69.5259 48.9298C70.872 47.5837 70.872 45.4018 69.5262 44.056ZM15.9234 20.2445C14.3458 20.2445 13.0668 18.9655 13.0668 17.3878C13.0668 15.8102 14.3458 14.5312 15.9234 14.5312C17.5011 14.5312 18.7801 15.8102 18.7801 17.3878C18.7801 18.9655 17.501 20.2445 15.9234 20.2445Z" fill="#FF9683"/>
<path d="M69.5261 44.056L59.4118 33.9417L58.283 33.5623L57.897 32.427L36.6365 11.1663C35.5248 10.0547 34.0172 9.4303 32.4453 9.4303H22.8015C24.3736 9.4303 25.8812 10.0548 26.9928 11.1663L59.8824 44.056C61.2281 45.4017 61.2281 47.5837 59.8824 48.9295L40.2062 68.6056L42.5914 70.9907C43.9372 72.3365 46.1191 72.3365 47.465 70.9907L69.5261 48.9296C70.8719 47.5837 70.8719 45.4017 69.5261 44.056Z" fill="#FD6F55"/>
<path d="M37.0297 55.88C36.7555 55.88 36.4815 55.7755 36.2723 55.5662C35.8541 55.148 35.8541 54.4698 36.2723 54.0514L39.189 51.1347C39.6075 50.7164 40.2856 50.7165 40.704 51.1347C41.1224 51.5529 41.1222 52.2312 40.704 52.6495L37.7873 55.5662C37.5779 55.7753 37.3037 55.88 37.0297 55.88ZM43.6964 49.2134C43.4221 49.2134 43.1481 49.1089 42.939 48.8996C42.5207 48.4813 42.5207 47.8032 42.939 47.3848L45.8557 44.4681C46.2742 44.0498 46.9522 44.0498 47.3706 44.4681C47.7888 44.8863 47.7888 45.5646 47.3706 45.9829L44.4539 48.8996C44.2445 49.1087 43.9703 49.2134 43.6964 49.2134ZM50.3628 42.5468C50.0886 42.5468 49.8145 42.4423 49.6054 42.233C49.1872 41.8148 49.1872 41.1366 49.6054 40.7182L52.5221 37.8015C52.9406 37.3832 53.6187 37.3833 54.0371 37.8015C54.4553 38.2197 54.4553 38.898 54.0371 39.3163L51.1204 42.233C50.9111 42.4421 50.6369 42.5468 50.3628 42.5468Z" fill="#F4FBFF"/>
<path d="M27.4383 45.0359C27.3002 45.0359 27.1597 45.009 27.0243 44.952C26.4788 44.7231 26.2222 44.0954 26.4511 43.5499L35.4373 22.1375C35.6663 21.592 36.2941 21.3355 36.8395 21.5643C37.385 21.7932 37.6416 22.421 37.4127 22.9664L28.4263 44.3789C28.2543 44.7889 27.8568 45.0359 27.4383 45.0359Z" fill="#F4FBFF"/>
<path d="M25.7185 31.8533C22.9384 31.8533 20.6766 29.3029 20.6766 26.1681C20.6766 23.0333 22.9384 20.4829 25.7185 20.4829C28.4985 20.4829 30.7603 23.0333 30.7603 26.1681C30.7603 29.3029 28.4985 31.8533 25.7185 31.8533ZM25.7185 22.6252C24.1197 22.6252 22.8189 24.2145 22.8189 26.1681C22.8189 28.1217 24.1197 29.7111 25.7185 29.7111C27.3172 29.7111 28.618 28.1218 28.618 26.1681C28.618 24.2145 27.3172 22.6252 25.7185 22.6252Z" fill="#F4FBFF"/>
<path d="M37.8549 46.4933C35.0748 46.4933 32.8132 43.9429 32.8132 40.8081C32.8132 37.6733 35.0748 35.1229 37.8549 35.1229C40.6349 35.1229 42.8967 37.6733 42.8967 40.8081C42.8967 43.9431 40.6349 46.4933 37.8549 46.4933ZM37.8549 37.2652C36.2561 37.2652 34.9553 38.8545 34.9553 40.8083C34.9553 42.7618 36.2561 44.3512 37.8549 44.3512C39.4538 44.3512 40.7544 42.7618 40.7544 40.8083C40.7544 38.8545 39.4538 37.2652 37.8549 37.2652Z" fill="#F4FBFF"/>
<path d="M14.2336 18.3551H8.03755C4.41322 18.3551 1.4646 15.4065 1.4646 11.7821C1.4646 10.0264 2.14832 8.37577 3.38976 7.13433L4.93466 5.58942C5.77152 4.75256 6.23235 3.63994 6.23235 2.45644V1.07114C6.23235 0.479531 6.71202 0 7.30349 0C7.89496 0 8.37463 0.479531 8.37463 1.07114V2.45644C8.37463 4.21214 7.69091 5.8628 6.44947 7.10423L4.90457 8.64914C4.06771 9.486 3.60688 10.5986 3.60688 11.7821C3.60688 14.2252 5.59447 16.2129 8.03755 16.2129H14.2336C14.8252 16.2129 15.3048 16.6925 15.3048 17.2841C15.3048 17.8757 14.8251 18.3551 14.2336 18.3551Z" fill="#2B4D66"/>
<path d="M57.8971 32.4269L56.2722 34.0517C55.8539 34.4699 55.8539 35.1481 56.2722 35.5665C56.4814 35.7757 56.7553 35.8802 57.0296 35.8802C57.3036 35.8802 57.5779 35.7756 57.787 35.5665L59.4118 33.9417L57.8971 32.4269Z" fill="#F4FBFF"/>
<path d="M53.316 37.4896L54.3492 38.5228C54.3403 38.261 54.2371 38.0016 54.0373 37.8017C53.8372 37.6017 53.5779 37.4985 53.316 37.4896Z" fill="#E4F6FF"/>
<path d="M32.4771 60.8762L34.0372 59.3161C34.4555 58.8979 34.4555 58.2197 34.0372 57.8013C33.619 57.3831 32.9407 57.3831 32.5224 57.8013L30.9623 59.3614L32.4771 60.8762Z" fill="#F4FBFF"/>
<path d="M56.2722 34.0517C55.8539 34.4699 55.8539 35.1481 56.2722 35.5665C56.4814 35.7757 56.7555 35.8802 57.0296 35.8802C57.3036 35.8802 57.5779 35.7756 57.787 35.5665L59.4118 33.9417L57.8969 32.4269L56.2722 34.0517Z" fill="#E4F6FF"/>
</g>
<defs>
<clipPath id="clip0">
<rect width="72" height="72" fill="white"/>
</clipPath>
</defs>
</svg>
