<svg width="80" height="71" viewBox="0 0 80 71" fill="none" xmlns="http://www.w3.org/2000/svg">
<path d="M70.6675 59.643C70.7669 60.8744 69.7407 61.9012 68.512 61.7997L58.4905 60.9722C56.7938 60.832 56.0382 58.7655 57.243 57.56L66.4539 48.3436C67.6587 47.1381 69.7197 47.8984 69.8569 49.599L70.6675 59.643Z" fill="#FFD67E"/>
<path d="M14.5 50.106C21.4036 50.106 27 44.4976 27 37.5794C27 30.6612 21.4036 25.0529 14.5 25.0529C7.59644 25.0529 2 30.6612 2 37.5794C2 44.4976 7.59644 50.106 14.5 50.106Z" stroke="#FD6F55" stroke-width="3"/>
<ellipse rx="6.5" ry="6.51379" transform="matrix(1 0 0 -1 47.5 6.51356)" fill="#1A78ED"/>
</svg>
