<svg width="124" height="89" viewBox="0 0 124 89" fill="none" xmlns="http://www.w3.org/2000/svg">
<path d="M109.013 18.354C107.998 19.0575 106.594 18.6804 106.066 17.5627L101.763 8.45324C101.035 6.9122 102.442 5.22585 104.087 5.66761L116.662 9.04423C118.307 9.48599 118.684 11.6514 117.285 12.6212L109.013 18.354Z" fill="#6EC1B1"/>
<path d="M23.2686 67.023L23.2696 67.0236L16.6804 63.01L20.6779 56.4192C21.0069 55.8768 20.8437 55.1563 20.3024 54.8266L19.4593 54.313C18.9182 53.9834 18.2029 54.1688 17.8739 54.7113L13.8764 61.3021L7.28723 57.2886C6.74624 56.9591 6.03975 57.1294 5.71066 57.672L5.19526 58.5217C4.86644 59.0639 5.04187 59.7688 5.583 60.0984L12.1723 64.112L8.16028 70.7266C7.83146 71.2688 8.01077 71.9666 8.55205 72.2963L9.39519 72.8099C9.93646 73.1396 10.6355 72.9765 10.9643 72.4346L14.9763 65.8199L21.5644 69.8328C22.1057 70.1625 22.8118 69.9943 23.1406 69.4523L23.656 68.6026C23.9851 68.06 23.8099 67.3527 23.2686 67.023Z" fill="#1A78ED"/>
<path d="M64.1951 77.9722L64.1961 77.9728L57.6069 73.9592L61.6044 67.3684C61.9334 66.826 61.7702 66.1055 61.2289 65.7758L60.3858 65.2622C59.8447 64.9326 59.1294 65.1181 58.8004 65.6605L54.8029 72.2513L48.2137 68.2378C47.6727 67.9083 46.9662 68.0786 46.6372 68.6212L46.1218 69.4709C45.7929 70.0131 45.9684 70.718 46.5095 71.0476L53.0988 75.0612L49.0868 81.6759C48.758 82.218 48.9373 82.9159 49.4785 83.2455L50.3217 83.7591C50.863 84.0888 51.562 83.9258 51.8908 83.3838L55.9028 76.7691L62.4909 80.782C63.0322 81.1117 63.7383 80.9436 64.0671 80.4016L64.5825 79.5518C64.9116 79.0092 64.7364 78.3019 64.1951 77.9722Z" fill="#FFC854"/>
</svg>
