<svg width="95" height="82" viewBox="0 0 95 82" fill="none" xmlns="http://www.w3.org/2000/svg">
<path d="M32.1273 31.6772L32.1283 31.6787L25.3019 22.431L34.5283 15.5934C35.2876 15.0306 35.4685 13.945 34.9077 13.1854L34.0342 12.0021C33.4736 11.2426 32.3827 11.0954 31.6234 11.6581L22.3969 18.4958L15.5706 9.24828C15.0102 8.48904 13.9398 8.32592 13.1803 8.88881L11.9907 9.77038C11.2318 10.3328 11.0766 11.4038 11.6372 12.1633L18.4637 21.411L9.20389 28.2733C8.44496 28.8358 8.29909 29.8992 8.85985 30.6589L9.73333 31.8422C10.2941 32.6018 11.3501 32.7708 12.1088 32.2086L21.3686 25.3462L28.1939 34.5923C28.7546 35.3519 29.8233 35.5179 30.582 34.9556L31.7715 34.074C32.5311 33.5111 32.688 32.4369 32.1273 31.6772Z" fill="#1A78ED"/>
<path d="M82.4019 69.8355L82.403 69.8369L75.5765 60.5892L84.803 53.7516C85.5623 53.1888 85.7432 52.1032 85.1824 51.3436L84.3089 50.1603C83.7483 49.4008 82.6574 49.2536 81.8981 49.8163L72.6716 56.654L65.8453 47.4065C65.2849 46.6472 64.2145 46.4841 63.455 47.047L62.2654 47.9286C61.5065 48.491 61.3513 49.562 61.9119 50.3215L68.7384 59.5692L59.4786 66.4315C58.7197 66.994 58.5738 68.0574 59.1345 68.8171L60.008 70.0004C60.5688 70.76 61.6248 70.929 62.3835 70.3668L71.6433 63.5044L78.4685 72.7505C79.0293 73.5101 80.0979 73.6761 80.8567 73.1138L82.0462 72.2322C82.8058 71.6693 82.9627 70.5951 82.4019 69.8355Z" fill="#FD6F55"/>
</svg>
