<svg width="72" height="72" viewBox="0 0 72 72" fill="none" xmlns="http://www.w3.org/2000/svg">
<g clip-path="url(#clip0)">
<path d="M70.1591 48.245L39.838 31.5097C37.4492 30.1913 34.5508 30.1913 32.1621 31.5097L1.84095 48.245C-0.532149 49.5548 -0.532149 52.9659 1.84095 54.2756L32.1621 71.0109C34.5508 72.3294 37.4492 72.3294 39.838 71.0109L70.1591 54.2756C72.5322 52.9659 72.5322 49.5548 70.1591 48.245Z" fill="#708CFF"/>
<path d="M66.5593 46.2591L39.8383 61.0081C37.4491 62.3272 34.5506 62.3272 32.1615 61.0081L5.44055 46.2591L32.1615 31.5101C34.5507 30.1911 37.4493 30.1911 39.8383 31.5101L66.5593 46.2591Z" fill="#1A78ED"/>
<path d="M9.57465 54.2762L39.8675 70.9957L39.8383 71.0118C37.4492 72.3294 34.552 72.3294 32.1629 71.0118L1.84066 54.2762C-0.532296 52.966 -0.532296 49.5551 1.84066 48.2449L32.1628 31.5093C34.552 30.1917 37.4491 30.1917 39.8381 31.5093L39.8674 31.5254L9.57465 48.2449C7.20155 49.5551 7.20155 52.966 9.57465 54.2762Z" fill="#1A78ED"/>
<path d="M70.159 39.015L39.8383 55.7504C37.4491 57.0693 34.5505 57.0693 32.1615 55.7504L1.84066 39.015C-0.532296 37.7048 -0.532296 34.2939 1.84066 32.9851L5.44037 30.9985L32.1614 16.2495C34.5505 14.9305 37.4491 14.9305 39.8381 16.2495L66.5591 30.9985L70.1588 32.9851C72.5321 34.2939 72.5321 37.7048 70.159 39.015Z" fill="#B8E7DE"/>
<path d="M9.57465 39.0165L39.8675 55.736L39.8383 55.752C37.4492 57.0696 34.552 57.0696 32.1629 55.752L1.84066 39.0165C-0.532296 37.7063 -0.532296 34.2953 1.84066 32.9851L32.1628 16.2495C34.552 14.932 37.4491 14.932 39.8381 16.2495L39.8674 16.2656L9.57465 32.9851C7.20155 34.2953 7.20155 37.7063 9.57465 39.0165Z" fill="#6EC1B1"/>
<path d="M66.5593 30.9985L39.8383 45.7475C37.4491 47.0665 34.5506 47.0665 32.1615 45.7475L5.44055 30.9985L32.1615 16.2495C34.5507 14.9305 37.4493 14.9305 39.8383 16.2495L66.5593 30.9985Z" fill="#6EC1B1"/>
<path d="M70.1594 17.7241L39.8383 0.988841C37.4495 -0.329614 34.5511 -0.329614 32.1624 0.988841L1.84126 17.7241C-0.531844 19.0339 -0.531844 22.445 1.84126 23.7547L32.1624 40.49C34.5511 41.8085 37.4495 41.8085 39.8383 40.49L70.1594 23.7547C72.5325 22.4448 72.5325 19.0339 70.1594 17.7241Z" fill="#FFDC94"/>
<path d="M9.57528 23.756L39.8682 40.4755L39.8389 40.4915C37.4497 41.8091 34.5526 41.8091 32.1636 40.4915L1.84144 23.756C-0.531518 22.4458 -0.531518 19.0348 1.84144 17.7246L32.1636 0.989044C34.5528 -0.328542 37.4499 -0.328542 39.8389 0.989044L39.8682 1.00512L9.57528 17.7246C7.20232 19.0348 7.20232 22.4458 9.57528 23.756Z" fill="#FFC854"/>
</g>
<defs>
<clipPath id="clip0">
<rect width="72" height="72" fill="white"/>
</clipPath>
</defs>
</svg>
