<svg width="82" height="82" viewBox="0 0 82 82" fill="none" xmlns="http://www.w3.org/2000/svg">
<g clip-path="url(#clip0)">
<path d="M82 11.6335V70.3666C82 71.2774 81.2609 72.0165 80.3501 72.0165H1.64993C0.739121 72.0165 0 71.2774 0 70.3666V11.6335C0 10.7226 0.739121 9.98352 1.64993 9.98352H80.3501C81.2609 9.98352 82 10.7226 82 11.6335Z" fill="#E8E6ED"/>
<path d="M82 11.6335V70.3667C82 71.2775 81.2609 72.0166 80.3501 72.0166H60.5876C78.8421 56.2156 78.4362 19.4756 78.0056 9.98376H80.3501C81.2609 9.9836 82 10.7227 82 11.6335Z" fill="#D1D0D8"/>
<path d="M82 11.6335V20.3829H0V11.6335C0 10.7226 0.739121 9.98352 1.64993 9.98352H80.3501C81.2609 9.98352 82 10.7226 82 11.6335Z" fill="#D1D0D8"/>
<path d="M81.9999 11.6335V20.383H78.0683C78.2036 15.8524 78.1062 12.1846 78.0056 9.98376H80.3502C81.2608 9.9836 81.9999 10.7227 81.9999 11.6335Z" fill="#AAAAB2"/>
<path d="M6.60718 16.421H6.58844C5.90489 16.421 5.35107 15.867 5.35107 15.1837C5.35107 14.5003 5.90505 13.9463 6.58844 13.9463H6.60718C7.29073 13.9463 7.84455 14.5003 7.84455 15.1837C7.84455 15.8669 7.29057 16.421 6.60718 16.421Z" fill="#717177"/>
<path d="M10.3429 16.421H10.3243C9.64073 16.421 9.08691 15.867 9.08691 15.1837C9.08691 14.5003 9.64089 13.9463 10.3243 13.9463H10.3429C11.0264 13.9463 11.5802 14.5003 11.5802 15.1837C11.5804 15.8669 11.0264 16.421 10.3429 16.421Z" fill="#717177"/>
<path d="M14.0788 16.421H14.0602C13.3766 16.421 12.8228 15.867 12.8228 15.1837C12.8228 14.5003 13.3768 13.9463 14.0602 13.9463H14.0788C14.7623 13.9463 15.3161 14.5003 15.3161 15.1837C15.3163 15.8669 14.7623 16.421 14.0788 16.421Z" fill="#717177"/>
<path d="M75.4115 16.421H73.1089C72.4254 16.421 71.8716 15.867 71.8716 15.1837C71.8716 14.5003 72.4255 13.9463 73.1089 13.9463H75.4115C76.095 13.9463 76.6488 14.5003 76.6488 15.1837C76.649 15.8669 76.095 16.421 75.4115 16.421Z" fill="#717177"/>
<path d="M32.046 28.799V49.9491C32.046 50.8603 31.3073 51.599 30.396 51.599H9.24597C8.33468 51.599 7.59604 50.8603 7.59604 49.9491V28.799C7.59604 27.8877 8.33468 27.149 9.24597 27.149H30.396C31.3073 27.149 32.046 27.8878 32.046 28.799Z" fill="#FFE3A7"/>
<path d="M32.046 28.7991V49.9491C32.046 50.8604 31.3074 51.5991 30.3961 51.5991H15.9628C27.0419 44.9037 27.0254 32.2392 26.5155 27.1493H30.3961C31.3074 27.1491 32.046 27.8879 32.046 28.7991Z" fill="#FFC854"/>
<path d="M32.046 57.0502V63.8692C32.046 64.7805 31.3073 65.5191 30.396 65.5191H9.24597C8.33468 65.5191 7.59604 64.7805 7.59604 63.8692V57.0502C7.59604 56.1389 8.33468 55.4003 9.24597 55.4003H30.396C31.3073 55.4003 32.046 56.1391 32.046 57.0502Z" fill="#6C7F8C"/>
<path d="M32.046 57.0502V63.8692C32.046 64.7805 31.3074 65.5191 30.3961 65.5191H22.6927C25.9662 62.5328 27.8272 58.9146 28.8485 55.4003H30.3961C31.3074 55.4003 32.046 56.1391 32.046 57.0502Z" fill="#475762"/>
<path d="M72.7377 28.799V34.2304C72.7377 35.1416 71.999 35.8803 71.0877 35.8803H55.2899C54.3786 35.8803 53.64 35.1416 53.64 34.2304V28.799C53.64 27.8877 54.3786 27.149 55.2899 27.149H71.0877C71.9989 27.149 72.7377 27.8878 72.7377 28.799Z" fill="#509DFD"/>
<path d="M72.7374 28.799V34.2304C72.7374 35.1416 71.9988 35.8803 71.0875 35.8803H64.5505C67.5104 33.3114 69.3716 30.2361 70.5165 27.149H71.0873C71.9986 27.149 72.7374 27.8878 72.7374 28.799Z" fill="#1A78ED"/>
<path d="M72.7377 41.3813V63.8694C72.7377 64.7807 71.999 65.5194 71.0877 65.5194H55.2899C54.3786 65.5194 53.64 64.7807 53.64 63.8694V41.3813C53.64 40.47 54.3786 39.7313 55.2899 39.7313H71.0877C71.9989 39.7313 72.7377 40.47 72.7377 41.3813Z" fill="#FF9683"/>
<path d="M72.7376 41.3812V63.8694C72.7376 64.7807 71.999 65.5193 71.0877 65.5193H59.3553C67.7812 58.443 68.1789 45.9003 67.7945 39.7314H71.0877C71.9988 39.7313 72.7376 40.4699 72.7376 41.3812Z" fill="#FD6F55"/>
<path d="M49.7561 28.799V63.8692C49.7561 64.7805 49.0175 65.5191 48.1062 65.5191H37.687C36.7758 65.5191 36.0371 64.7805 36.0371 63.8692V28.799C36.0371 27.8877 36.7758 27.149 37.687 27.149H48.1062C49.0175 27.149 49.7561 27.8878 49.7561 28.799Z" fill="#B8E7DE"/>
<path d="M49.7561 28.799V63.8692C49.7561 64.7805 49.0175 65.5191 48.1062 65.5191H39.1588C47.2795 54.3526 47.3917 33.691 47.2053 27.149H48.1062C49.0175 27.149 49.7561 27.8878 49.7561 28.799Z" fill="#6EC1B1"/>
</g>
<defs>
<clipPath id="clip0">
<rect width="82" height="82" fill="white"/>
</clipPath>
</defs>
</svg>
